<?xml version="1.0" encoding="UTF-8"?>
<svg width="296px" height="266px" viewBox="0 0 296 266" version="1.1" xmlns="http://www.w3.org/2000/svg" xmlns:xlink="http://www.w3.org/1999/xlink">
    <!-- Generator: Sketch 43.1 (39012) - http://www.bohemiancoding.com/sketch -->
    <title>final-adv</title>
    <desc>Created with Sketch.</desc>
    <defs></defs>
    <g id="Page-1" stroke="none" stroke-width="1" fill="none" fill-rule="evenodd">
        <g id="final-adv" fill-rule="nonzero" fill="#C12762">
            <path d="M205.135833,56.5946296 L223,45.8976852 L223,0.5 L148.5,0.5 L148.5,43.9604606 L111.112302,66.6666667 L114.6437,66.6666667 L131.4618,56.5946296 L149.333333,45.8976852 L167.1975,56.5946296 L184.0156,66.6666667 L188.310367,66.6666667 L205.135833,56.5946296 Z M221.895,43.9862037 L204.030833,54.6831481 L187.271667,64.7184259 L187.271667,23.180463 L221.895,2.44824074 L221.895,43.9862037 Z M185.069033,64.7184259 L168.3025,54.6831481 L150.438333,43.9862037 L150.438333,2.44824074 L185.061667,23.180463 L185.069033,64.7184259 Z M151.4844,0.5 L220.848933,0.5 L186.166667,21.2689815 L151.4844,0.5 Z" id="Shape"></path>
            <path d="M295.5,0.5 L223,0.5 L223,45.8976852 L240.864167,56.5946296 L257.682267,66.6666667 L261.977033,66.6666667 L278.795133,56.5946296 L295.5,45.8976852 L295.5,0.5 Z M258.728333,64.7184259 L241.969167,54.6831481 L224.105,43.9862037 L224.105,2.44824074 L258.728333,23.180463 L258.728333,64.7184259 Z M225.151067,0.5 L294.5156,0.5 L259.833333,21.2689815 L225.151067,0.5 Z M295.561667,43.9862037 L277.6975,54.6831481 L260.938333,64.7184259 L260.938333,23.180463 L295.561667,2.44824074 L295.561667,43.9862037 Z" id="Shape"></path>
            <path d="M223,265.130005 L223,219.768981 L188.317733,199 L223,178.231019 L223,87.4356481 L188.317733,66.6666667 L184.022967,66.6666667 L149.333333,87.4356481 L114.651067,66.6666667 L111.87586,66.6666667 L111.87586,109.812331 L74.6597985,132.295656 L74.6597985,176.56481 L37.9950218,198.243123 L37.9950218,242.283481 L0.751719583,265.130005 L223,265.130005 Z M221.895,221.680463 L221.895,263.218426 L205.135833,253.183148 L187.271667,242.486204 L187.271667,200.948241 L221.895,221.680463 Z M221.895,176.319537 L204.030833,187.016481 L187.271667,197.051759 L187.271667,155.513796 L221.895,134.781574 L221.895,176.319537 Z M187.271667,68.6149074 L221.895,89.3471296 L221.895,130.885093 L205.135833,120.849815 L187.271667,110.15287 L187.271667,68.6149074 Z M204.030833,122.761296 L220.848933,132.833333 L186.166667,153.602315 L151.4844,132.833333 L168.3025,122.761296 L186.166667,112.064352 L204.030833,122.761296 Z M150.438333,89.3471296 L185.061667,68.6149074 L185.061667,110.15287 L167.1975,120.849815 L150.438333,130.885093 L150.438333,89.3471296 Z M150.438333,134.781574 L185.061667,155.513796 L185.061667,197.051759 L168.3025,187.016481 L150.438333,176.319537 L150.438333,134.781574 Z M113.605,68.6149074 L148.228333,89.3471296 L148.228333,130.885093 L131.469167,120.849815 L113.605,110.15287 L113.605,68.6149074 Z M130.364167,122.761296 L147.182267,132.833333 L112.5,153.602315 L77.8177333,132.833333 L94.6358333,122.761296 L112.5,112.064352 L130.364167,122.761296 Z M148.228333,134.781574 L148.228333,176.319537 L130.364167,187.016481 L113.605,197.051759 L113.605,155.513796 L148.228333,134.781574 Z M76.7716667,134.781574 L111.395,155.513796 L111.395,197.051759 L94.6358333,187.016481 L76.7716667,176.319537 L76.7716667,134.781574 Z M4.15106667,265.166667 L20.9691667,255.09463 L38.8333333,244.397685 L56.6975,255.09463 L73.5156,265.166667 L4.15106667,265.166667 Z M74.5616667,263.218426 L57.8025,253.183148 L39.9383333,242.486204 L39.9383333,200.948241 L74.5616667,221.680463 L74.5616667,263.218426 Z M40.9844,199 L75.6666667,178.231019 L110.3563,199 L75.6666667,219.768981 L40.9844,199 Z M111.402367,200.948241 L111.402367,242.486204 L93.5308333,253.183148 L76.7716667,263.218426 L76.7716667,221.680463 L111.402367,200.948241 Z M77.8177333,265.166667 L94.6358333,255.09463 L112.5,244.397685 L130.364167,255.09463 L147.182267,265.166667 L77.8177333,265.166667 Z M148.228333,263.218426 L131.469167,253.183148 L113.605,242.486204 L113.605,200.948241 L148.228333,221.680463 L148.228333,263.218426 Z M114.651067,199 L149.333333,178.231019 L184.022967,199 L149.333333,219.768981 L114.651067,199 Z M185.069033,200.948241 L185.069033,242.486204 L167.1975,253.183148 L150.438333,263.218426 L150.438333,221.680463 L185.069033,200.948241 Z M151.4844,265.166667 L168.3025,255.09463 L186.166667,244.397685 L204.030833,255.09463 L220.848933,265.166667 L151.4844,265.166667 Z" id="Shape"></path>
            <path d="M295.51278,86.7446594 L261.9844,66.6666667 L257.689633,66.6666667 L223,87.4356481 L223,178.231019 L257.689633,199 L223,219.768981 L223,265.170044 L295.51278,265.170044 L295.51278,86.7446594 Z M260.938333,68.6149074 L295.561667,89.3471296 L295.561667,130.885093 L278.8025,120.849815 L260.938333,110.15287 L260.938333,68.6149074 Z M277.6975,122.761296 L294.5156,132.833333 L259.833333,153.602315 L225.151067,132.833333 L241.969167,122.761296 L259.833333,112.064352 L277.6975,122.761296 Z M295.561667,134.781574 L295.561667,176.319537 L277.6975,187.016481 L260.938333,197.051759 L260.938333,155.513796 L295.561667,134.781574 Z M224.105,89.3471296 L258.728333,68.6149074 L258.728333,110.15287 L240.864167,120.849815 L224.105,130.885093 L224.105,89.3471296 Z M241.969167,187.016481 L224.105,176.319537 L224.105,134.781574 L258.728333,155.513796 L258.728333,197.051759 L241.969167,187.016481 Z M224.105,221.680463 L258.728333,200.948241 L258.728333,242.486204 L240.864167,253.183148 L224.105,263.218426 L224.105,221.680463 Z M225.151067,265.166667 L241.969167,255.09463 L259.833333,244.397685 L277.6975,255.09463 L294.5156,265.166667 L225.151067,265.166667 Z M295.561667,263.218426 L278.8025,253.183148 L260.938333,242.486204 L260.938333,200.948241 L295.561667,221.680463 L295.561667,263.218426 Z M261.9844,199 L295.560059,179.057851 L295.560059,219.170044 L261.9844,199 Z" id="Shape"></path>
        </g>
    </g>
</svg>