<?xml version="1.0" encoding="UTF-8"?>
<svg width="377px" height="246px" viewBox="0 0 377 246" version="1.1" xmlns="http://www.w3.org/2000/svg" xmlns:xlink="http://www.w3.org/1999/xlink">
    <!-- Generator: Sketch 43.1 (39012) - http://www.bohemiancoding.com/sketch -->
    <title>final-pack</title>
    <desc>Created with Sketch.</desc>
    <defs></defs>
    <g id="Page-1" stroke="none" stroke-width="1" fill="none" fill-rule="evenodd">
        <g id="final-pack" fill-rule="nonzero" fill="#790000">
            <path d="M317.879355,220.368889 C312.913682,217.579957 307.435628,215.823518 301.774194,215.205062 L299.722581,215.205062 L297.670968,215.205062 L297.123871,215.205062 L295.072258,215.205062 L293.020645,215.205062 C282.335278,216.323359 272.472819,221.456835 265.426452,229.568025 C268.618966,231.970682 271.625177,234.611426 274.419355,237.467654 C275.479355,238.527778 276.470968,239.622099 277.462581,240.887407 C281.290217,236.286202 286.595588,233.155789 292.473548,232.030247 L294.593548,231.722469 L296.679355,231.722469 L298.047097,231.722469 L300.132903,231.722469 L302.252903,232.030247 C308.129848,233.158477 313.434373,236.28839 317.263871,240.887407 C318.255484,239.793086 319.247097,238.698765 320.272903,237.467654 C323.024761,234.628706 325.98506,231.999563 329.129032,229.602222 C325.908085,225.890238 322.066904,222.766022 317.776774,220.368889" id="Shape"></path>
            <path d="M159.050323,220.368889 C154.032375,217.558884 148.494164,215.80181 142.774194,215.205062 L140.722581,215.205062 L138.670968,215.205062 L138.123871,215.205062 L136.038065,215.205062 L133.986452,215.205062 C123.301085,216.323359 113.438626,221.456835 106.392258,229.568025 C109.605503,231.959031 112.634469,234.588251 115.453548,237.433457 C116.479355,238.49358 117.505161,239.587901 118.496774,240.85321 C122.311498,236.194381 127.632625,233.013428 133.541935,231.859259 L135.661935,231.551481 L137.747742,231.551481 L139.115484,231.551481 L141.20129,231.551481 L143.32129,231.859259 C149.136446,233.024195 154.375253,236.150944 158.16129,240.71642 C159.141505,239.5993 160.144516,238.516379 161.170323,237.467654 C163.98993,234.623012 167.018852,231.993831 170.231613,229.602222 C167.02429,225.889838 163.194233,222.765258 158.913548,220.368889" id="Shape"></path>
            <path d="M183.190968,245 C183.190968,245 190.450019,241.051565 194.406452,239.382716 C195.603226,238.869753 196.834194,238.425185 198.065161,237.980617 C202.038115,236.557553 206.154205,235.571411 210.340645,235.03963 L212.392258,234.766049 L214.512258,234.766049 L217.931613,234.766049 L221.350968,234.766049 L223.470968,234.766049 L225.522581,235.03963 C229.709021,235.571411 233.82511,236.557553 237.798065,237.980617 C239.029032,238.425185 240.26,238.869753 241.456774,239.382716 C245.380521,241.094107 252.569677,245 252.569677,245 L274.932258,245 L272.846452,241.776543 C269.702491,238.467911 266.269514,235.44654 262.588387,232.748395 C261.425806,231.893457 260.229032,231.072716 259.169032,230.286173 C255.754675,228.048804 252.163895,226.093088 248.432258,224.438395 C246.859355,223.754444 245.252258,223.070494 243.610968,222.489136 C239.891927,221.144219 236.0734,220.092287 232.190323,219.342963 L229.967742,218.864198 L227.881935,218.864198 C221.211361,217.94719 214.446704,217.94719 207.776129,218.864198 L205.587742,219.171975 L203.467742,219.548148 C199.585045,220.299097 195.766643,221.350995 192.047097,222.694321 C190.405806,223.275679 188.79871,223.95963 187.225806,224.64358 C183.493226,226.296359 179.902293,228.252159 176.489032,230.491358 C175.28086,231.2893 174.141075,232.110041 173.069677,232.95358 C169.390925,235.654679 165.958201,238.675827 162.811613,241.981728 L160.725806,245 L183.190968,245 Z" id="Shape"></path>
            <path d="M364.553548,219.171975 L362.433548,219.548148 C358.550216,220.296379 354.731604,221.348335 351.012903,222.694321 C349.371613,223.275679 347.764516,223.95963 346.191613,224.64358 C342.461958,226.302291 338.871496,228.257835 335.454839,230.491358 C334.258065,231.277901 333.06129,232.098642 332.035484,232.95358 C328.353555,235.650728 324.920493,238.672174 321.777419,241.981728 L319.691613,245 L342.190968,245 C342.190968,245 349.218458,241.14042 353.064516,239.382716 C354.26129,238.869753 355.492258,238.425185 356.723226,237.980617 C360.69618,236.557553 364.81227,235.571411 368.99871,235.03963 L371.050323,234.766049 L373.170323,234.766049 L376.589677,234.766049 L376.589677,218.351235 C373.299463,218.309252 370.009987,218.480599 366.741935,218.864198 L364.553548,219.171975 Z" id="Shape"></path>
            <path d="M317.879355,5.36901235 C312.911092,2.59202263 307.433176,0.847260184 301.774194,0.239382716 L299.722581,0.239382716 L297.670968,0.239382716 L297.123871,0.239382716 L294.935484,0 L292.883871,0 C282.197502,1.11496348 272.333889,6.24903999 265.289677,14.362963 C268.538274,16.8239139 271.590693,19.53368 274.419355,22.4677778 C275.479355,23.5279012 276.470968,24.6222222 277.462581,25.7165432 C281.295574,21.128043 286.600307,18.0100919 292.473548,16.8935802 C293.157419,16.8935802 293.875484,16.6541975 294.593548,16.5858025 C295.311613,16.5174074 295.995484,16.5858025 296.679355,16.5858025 L298.047097,16.5858025 L300.132903,16.5858025 C300.816774,16.5858025 301.534839,16.7567901 302.252903,16.8935802 C308.125135,18.0127751 313.429024,21.1302302 317.263871,25.7165432 C318.255484,24.6222222 319.247097,23.5279012 320.272903,22.4677778 C323.023068,19.6270617 325.983504,16.9977967 329.129032,14.6023457 C325.908569,10.8898614 322.067294,7.76556918 317.776774,5.36901235" id="Shape"></path>
            <path d="M376.350323,35.8390123 L374.29871,35.8390123 L372.247097,35.8390123 C366.524255,36.4444419 360.98553,38.2133164 355.970968,41.037037 L354.432258,41.9603704 C350.769376,44.2038037 347.471405,46.9947191 344.652903,50.2361728 C347.87101,52.6335983 350.900341,55.2745678 353.714194,58.1358025 C354.671613,59.0933333 355.594839,60.0850617 356.483871,61.0767901 L356.757419,61.3845679 L356.757419,61.3845679 C360.573229,56.8694462 365.824505,53.8028267 371.631613,52.6983951 C372.315484,52.6983951 373.033548,52.4590123 373.751613,52.3906173 C374.469677,52.3222222 375.153548,52.3906173 375.837419,52.3906173 L376.52129,52.3906173 L376.52129,35.9758025 L376.247742,35.9758025" id="Shape"></path>
            <path d="M319.418065,77.9703704 L317.879355,77.047037 C312.920796,74.229852 307.44155,72.4497624 301.774194,71.8148148 L299.722581,71.8148148 L297.670968,71.8148148 L297.123871,71.8148148 L294.935484,71.8148148 L292.883871,71.8148148 C287.173467,72.4056825 281.645265,74.1632737 276.641935,76.978642 L275.103226,77.9019753 C271.429481,80.1443145 268.120073,82.935151 265.289677,86.1777778 C268.534469,88.5935255 271.586863,91.2575359 274.419355,94.1458025 C275.376774,95.1033333 276.3,96.0950617 277.189032,97.0867901 L277.462581,97.3945679 L277.462581,97.3945679 C281.278391,92.8794462 286.529667,89.8128267 292.336774,88.7083951 L294.456774,88.3664198 L296.542581,88.3664198 L297.910323,88.3664198 L299.996129,88.3664198 L302.116129,88.7083951 C307.921264,89.8180917 313.170897,92.8837517 316.990323,97.3945679 L316.990323,97.3945679 L317.229677,97.0867901 C318.11871,96.0608642 319.076129,95.1033333 319.999355,94.1458025 C322.832905,91.2795395 325.88536,88.6383432 329.129032,86.2461728 C326.308646,83.0066294 323.010988,80.215978 319.349677,77.9703704" id="Shape"></path>
            <path d="M240.020645,113.809383 L238.481935,112.851852 C233.462907,110.050242 227.924087,108.304612 222.205806,107.722222 L220.154194,107.722222 L218.102581,107.722222 L217.555484,107.722222 L215.503871,107.722222 L213.452258,107.722222 C207.734368,108.306506 202.195923,110.052018 197.176129,112.851852 L195.637419,113.809383 C191.978599,116.058431 188.681431,118.848667 185.858065,122.085185 C189.059602,124.477452 192.077108,127.106646 194.885161,129.950617 C195.842581,130.908148 196.765806,131.899877 197.654839,132.891605 L197.894194,133.199383 L197.894194,133.199383 C201.718505,128.617632 207.010076,125.500317 212.870968,124.37642 C213.554839,124.37642 214.272903,124.137037 214.990968,124.068642 L217.076774,124.068642 L218.410323,124.068642 L220.496129,124.068642 L222.616129,124.37642 C228.421264,125.486116 233.670897,128.551776 237.490323,133.062593 L237.490323,133.062593 L237.763871,132.754815 C238.652903,131.751687 239.576129,130.771358 240.533548,129.813827 C243.35298,126.968998 246.381917,124.339803 249.594839,121.948395 C246.776715,118.706557 243.478682,115.915589 239.815484,113.672593" id="Shape"></path>
            <path d="M374.29871,107.61963 L372.247097,107.61963 C366.521975,108.236572 360.983296,110.017069 355.970968,112.851852 L354.432258,113.809383 C350.770634,116.054557 347.472914,118.845261 344.652903,122.085185 C347.864147,124.47868 350.892932,127.107743 353.714194,129.950617 C354.671613,130.908148 355.594839,131.899877 356.483871,132.891605 L356.757419,133.199383 L356.757419,133.199383 C360.573229,128.684261 365.824505,125.617642 371.631613,124.51321 L373.751613,124.205432 L375.837419,124.205432 L376.52129,124.205432 L376.52129,107.790617 L376.247742,107.790617 L374.196129,107.790617" id="Shape"></path>
            <path d="M319.418065,149.648395 L317.879355,148.725062 C312.910383,145.955661 307.431695,144.222286 301.774194,143.62963 L299.722581,143.62963 L297.670968,143.62963 L297.123871,143.62963 L295.072258,143.62963 L293.020645,143.62963 C287.310838,144.22336 281.783205,145.980771 276.77871,148.793457 L275.24,149.71679 C271.568442,151.962164 268.259468,154.752634 265.426452,157.992593 C268.615967,160.361616 271.62214,162.968032 274.419355,165.78963 C275.376774,166.74716 276.3,167.738889 277.189032,168.730617 L277.462581,169.038395 L277.462581,169.038395 C281.283805,164.529723 286.532622,161.46454 292.336774,160.352222 L294.456774,160.044444 L296.542581,160.044444 L297.910323,160.044444 L299.996129,160.044444 L302.116129,160.352222 C307.920282,161.46454 313.169098,164.529723 316.990323,169.038395 L316.990323,169.038395 L317.229677,168.730617 C318.11871,167.704691 319.076129,166.74716 319.999355,165.78963 C322.836239,162.937376 325.888484,160.307795 329.129032,157.924198 C326.305666,154.687679 323.008498,151.897443 319.349677,149.648395" id="Shape"></path>
            <path d="M160.623226,149.648395 L159.084516,148.725062 C154.063638,145.93361 148.524581,144.199543 142.808387,143.62963 L140.756774,143.62963 L138.705161,143.62963 L138.158065,143.62963 L136.072258,143.62963 L134.020645,143.62963 C128.311235,144.225261 122.783978,145.982552 117.77871,148.793457 L116.24,149.71679 C112.567508,151.960868 109.258349,154.751494 106.426452,157.992593 C109.638251,160.385396 112.667087,163.014503 115.487742,165.858025 C116.445161,166.815556 117.368387,167.807284 118.257419,168.799012 L118.530968,169.10679 L118.530968,169.10679 C122.350393,164.595974 127.600026,161.530314 133.405161,160.420617 L135.525161,160.11284 L137.610968,160.11284 L138.97871,160.11284 L141.064516,160.11284 L143.184516,160.420617 C148.997884,161.456374 154.282419,164.448879 158.16129,168.901605 L158.16129,168.901605 L158.400645,168.593827 C159.289677,167.567901 160.247097,166.61037 161.170323,165.65284 C163.987442,162.80554 167.016571,160.176178 170.231613,157.787407 C167.408988,154.550136 164.111698,151.759797 160.452258,149.511605" id="Shape"></path>
            <path d="M240.020645,185.45321 L238.481935,184.666667 C233.467074,181.849544 227.927358,180.091993 222.205806,179.50284 L220.154194,179.50284 L218.102581,179.50284 L217.555484,179.50284 L215.503871,179.50284 L213.452258,179.50284 C207.73011,180.089118 202.189822,181.846851 197.176129,184.666667 L195.637419,185.59 C191.975894,187.849036 188.678535,190.650965 185.858065,193.9 C189.063645,196.287254 192.08152,198.916769 194.885161,201.765432 C195.842581,202.722963 196.765806,203.714691 197.654839,204.70642 L197.894194,205.014198 L197.894194,205.014198 C201.697026,200.381606 206.991156,197.214429 212.870968,196.054444 L214.990968,195.746667 L217.076774,195.746667 L218.410323,195.746667 L220.496129,195.746667 L222.616129,196.054444 C228.421264,197.164141 233.670897,200.229801 237.490323,204.740617 L237.490323,204.740617 L237.763871,204.43284 C238.652903,203.406914 239.576129,202.449383 240.533548,201.491852 C243.350127,198.643975 246.379301,196.014573 249.594839,193.62642 C246.776994,190.374732 243.479203,187.572436 239.815484,185.31642" id="Shape"></path>
            <path d="M374.29871,179.263457 L372.247097,179.263457 C366.507612,179.924544 360.966498,181.764036 355.970968,184.666667 C355.423871,184.940247 354.945161,185.282222 354.432258,185.59 C350.772507,187.837764 347.475157,190.628154 344.652903,193.865802 C347.869417,196.265203 350.898602,198.906045 353.714194,201.765432 C354.671613,202.722963 355.594839,203.714691 356.483871,204.70642 L356.757419,205.014198 L356.757419,205.014198 C360.573229,200.499076 365.824505,197.432456 371.631613,196.328025 L373.751613,196.020247 L375.837419,196.020247 L376.52129,196.020247 L376.52129,179.605432 L376.247742,179.605432 L374.196129,179.605432" id="Shape"></path>
            <path d="M366.741935,3.69333333 L364.553548,4.00111111 L362.433548,4.37728395 C358.550216,5.12551519 354.731604,6.17747077 351.012903,7.52345679 C349.371613,8.10481481 347.764516,8.78876543 346.191613,9.47271605 C342.460642,11.1287605 338.869969,13.0844182 335.454839,15.3204938 C334.258065,16.107037 333.06129,16.9277778 332.035484,17.782716 C328.351122,20.4768336 324.917797,23.4985107 321.777419,26.8108642 C321.059355,27.5632099 320.34129,28.3497531 319.691613,29.1362963 C317.671213,31.4680314 315.798324,33.9236297 314.083871,36.4887654 C317.115419,37.1346697 320.106732,37.9568056 323.042581,38.9509877 C325.458925,39.7717284 327.81828,40.7064609 330.120645,41.7551852 L330.496774,41.9261728 C332.957917,38.7822834 335.730265,35.8950387 338.771613,33.3083951 C339.9,32.3508642 341.062581,31.4617284 342.190968,30.6067901 C345.578469,28.1145537 349.223905,25.9935336 353.064516,24.2802469 C354.26129,23.767284 355.492258,23.322716 356.723226,22.8781481 C360.696566,21.4563809 364.812513,20.4702733 368.99871,19.9371605 L371.050323,19.6977778 L373.170323,19.6977778 L376.589677,19.6977778 L376.589677,3.00938272 C373.227227,3.01342993 369.868795,3.24192127 366.536774,3.69333333" id="Shape"></path>
            <path d="M266.623226,45.3117284 C262.892522,47.0211235 259.302462,49.0221864 255.886452,51.2962963 C254.689677,52.0828395 253.492903,52.9035802 252.467097,53.792716 L252.467097,53.792716 L252.193548,53.9637037 C248.660528,56.6125145 245.365441,59.564707 242.345806,62.7866667 C241.627742,63.5390123 240.909677,64.3255556 240.26,65.1120988 C238.246515,67.4494505 236.373955,69.904617 234.652258,72.4645679 C237.685023,73.119627 240.676466,73.9532177 243.610968,74.9609877 L246.243871,75.9185185 L248.945161,76.978642 L250.689032,77.7651852 L251.065161,77.9361728 C251.988387,76.7734568 252.911613,75.6791358 253.937419,74.5164198 C255.639933,72.6510603 257.455623,70.8922624 259.374194,69.25 C260.502581,68.2924691 261.699355,67.4033333 262.793548,66.5483951 L262.793548,66.5483951 L262.99871,66.5483951 C265.985054,64.4053127 269.167909,62.5503397 272.504516,61.0083951 L273.872258,60.358642 C274.932258,59.8798765 276.026452,59.5037037 277.291613,59.1275309 L277.701935,59.1275309 C281.675353,57.7060222 285.791271,56.7199214 289.977419,56.1865432 L292.029032,55.912963 L294.149032,55.912963 L297.568387,55.912963 L300.987742,55.912963 L303.107742,55.912963 L305.159355,56.1865432 C309.344924,56.7230816 313.460505,57.7091017 317.434839,59.1275309 L317.845161,59.1275309 C318.939355,59.5379012 320.033548,59.9140741 321.264516,60.358642 L322.632258,61.0083951 C325.978323,62.5529457 329.172288,64.4077223 332.172258,66.5483951 L332.172258,66.5483951 L332.172258,66.5483951 C333.369032,67.4033333 334.565806,68.2924691 335.591613,69.25 C337.514232,70.8878098 339.330194,72.6468703 341.028387,74.5164198 C342.02,75.6107407 342.977419,76.7050617 343.900645,77.9361728 L344.276774,77.7651852 L346.020645,76.978642 L348.721935,75.9185185 L351.354839,74.9609877 C354.151002,73.9187028 357.005258,73.0394898 359.903226,72.3277778 C358.203505,69.7609793 356.34188,67.3051749 354.329677,64.9753086 C353.645806,64.1887654 352.961935,63.4022222 352.243871,62.6498765 C349.237422,59.4270682 345.953608,56.4747246 342.430323,53.8269136 L342.122581,53.6217284 C340.96,52.7667901 339.763226,51.9460494 338.703226,51.1253086 C335.284553,48.8951593 331.694366,46.9397661 327.966452,45.2775309 C326.393548,44.5935802 324.786452,43.9096296 323.145161,43.3282716 C319.438698,41.9804932 315.631306,40.9284784 311.75871,40.1820988 L309.63871,39.8059259 L309.296774,39.8059259 L307.279355,39.5323457 L306.869032,39.5323457 L304.475484,39.2587654 C302.081935,39.0193827 299.688387,38.9167901 297.260645,38.9167901 C294.832903,38.9167901 292.405161,38.9167901 290.011613,39.2587654 L287.618065,39.5323457 L287.207742,39.5323457 L285.190323,39.8059259 L285.019355,39.8059259 L282.899355,40.1820988 C279.015376,40.9275623 275.196549,41.9795773 271.47871,43.3282716 C269.837419,43.9096296 268.230323,44.5935802 266.657419,45.2775309" id="Shape"></path>
            <path d="M212.392258,91.3758025 L214.512258,91.3758025 L217.931613,91.3758025 L221.350968,91.3758025 L223.470968,91.3758025 L225.522581,91.6151852 C229.709021,92.1469662 233.82511,93.1331081 237.798065,94.5561728 L238.208387,94.5561728 C239.302581,94.9665432 240.396774,95.342716 241.627742,95.8214815 L242.995484,96.4712346 C246.32984,98.0174973 249.512299,99.8722396 252.50129,102.011235 L252.50129,102.011235 L252.50129,102.011235 C253.698065,102.866173 254.860645,103.755309 255.920645,104.71284 C257.840691,106.35348 259.656479,108.112373 261.357419,109.979259 C262.349032,111.07358 263.306452,112.167901 264.195484,113.399012 L264.571613,113.228025 L266.315484,112.441481 L269.016774,111.381358 L271.649677,110.423827 C274.585753,109.430384 277.577022,108.60826 280.608387,107.961605 C278.889096,105.39993 277.016428,102.944623 275.000645,100.609136 L272.914839,98.2837037 C269.907159,95.0621498 266.623459,92.1099091 263.10129,89.4607407 L262.793548,89.221358 C261.630968,88.3664198 260.434194,87.545679 259.374194,86.7591358 C255.961327,84.5192769 252.370339,82.5634473 248.637419,80.911358 L246.312258,79.9196296 L243.645161,79.2014815 L243.200645,79.2014815 L239.952258,78.141358 C237.412259,77.365911 234.832673,76.7266473 232.224516,76.2262963 L229.967742,75.6791358 L229.967742,75.6791358 L227.881935,75.2345679 L227.471613,75.2345679 L225.078065,74.9609877 C222.684516,74.7216049 220.290968,74.6190123 217.863226,74.6190123 C215.435484,74.6190123 213.007742,74.6190123 210.648387,74.9609877 L208.254839,75.2345679 L207.810323,75.2345679 L205.792903,75.5081481 L205.792903,75.5081481 L203.672903,75.884321 C201.003551,76.4334646 198.366619,77.1298785 195.774194,77.9703704 L192.525806,79.0304938 L192.08129,79.0304938 L189.585161,80.0222222 L187.26,81.0139506 C183.526259,82.6643719 179.935136,84.6202747 176.523226,86.8617284 C175.326452,87.6482716 174.129677,88.4690123 173.103871,89.3239506 L173.103871,89.3239506 L172.761935,89.5633333 C169.240077,92.2002862 165.956307,95.1411474 162.948387,98.3520988 L160.862581,100.677531 C158.846732,103.012965 156.974062,105.468277 155.254839,108.03 C158.286516,108.675375 161.277859,109.497519 164.213548,110.492222 L166.846452,111.449753 L169.547742,112.509877 L171.257419,113.29642 L171.633548,113.467407 C172.556774,112.304691 173.48,111.21037 174.471613,110.047654 C176.168724,108.177057 177.984755,106.417929 179.908387,104.781235 C181.036774,103.823704 182.199355,102.934568 183.327742,102.07963 L183.327742,102.07963 L183.60129,101.874444 C186.581302,99.7499469 189.752116,97.9067681 193.072903,96.368642 L194.440645,95.7188889 C195.500645,95.274321 196.594839,94.8639506 197.689032,94.4877778 L198.099355,94.4877778 C202.072309,93.0647131 206.188399,92.0785712 210.374839,91.5467901 L212.426452,91.3074074" id="Shape"></path>
            <path d="M367.015484,75.2345679 L366.741935,75.2345679 L364.724516,75.5081481 L364.724516,75.5081481 L362.604516,75.884321 C359.995777,76.3820164 357.416049,77.0213154 354.876774,77.7993827 L351.628387,78.8595062 L351.183871,78.8595062 L348.687742,79.817037 L346.362581,80.8087654 C342.630943,82.463458 339.040163,84.4191742 335.625806,86.6565432 C334.429032,87.4430864 333.232258,88.2638272 332.206452,89.1187654 L332.206452,89.1187654 L331.967097,89.3239506 C328.239453,92.0542332 324.771248,95.122178 321.606452,98.4888889 C320.888387,99.2412346 320.204516,100.027778 319.520645,100.814321 C317.504276,103.149332 315.63158,105.604676 313.912903,108.16679 C316.933191,108.826904 319.912963,109.660424 322.837419,110.66321 L325.470323,111.620741 L328.171613,112.680864 L329.915484,113.467407 L330.291613,113.638395 C331.180645,112.475679 332.138065,111.381358 333.129677,110.218642 C334.828867,108.350058 336.644765,106.591059 338.566452,104.952222 C339.694839,103.994691 340.857419,103.105556 341.985806,102.250617 L341.985806,102.250617 L342.190968,102.250617 C345.179195,100.110442 348.361768,98.2556333 351.696774,96.7106173 L353.064516,96.0608642 C354.124516,95.5820988 355.21871,95.2059259 356.483871,94.7955556 L356.894194,94.7955556 C360.867148,93.3724909 364.983237,92.3863489 369.169677,91.8545679 L371.22129,91.6151852 L373.34129,91.6151852 L376.760645,91.6151852 L376.760645,75.2003704 C374.332903,75.2003704 371.905161,75.2003704 369.545806,75.5423457 L367.152258,75.8159259" id="Shape"></path>
            <path d="M246.072903,147.425556 L248.774194,148.485679 L250.518065,149.272222 L250.894194,149.44321 C251.806022,148.280494 252.763441,147.140576 253.766452,146.023457 C255.464106,144.153386 257.280102,142.394292 259.203226,140.757037 C260.331613,139.799506 261.528387,138.91037 262.622581,138.055432 L262.622581,138.055432 L262.827742,138.055432 C265.816298,135.915764 268.998821,134.060984 272.333548,132.515432 L273.70129,131.865679 C274.76129,131.421111 275.855484,131.010741 277.120645,130.634568 L277.530968,130.634568 C281.504768,129.214348 285.620545,128.228281 289.806452,127.69358 L291.858065,127.42 L293.978065,127.42 L297.397419,127.42 L300.816774,127.42 L302.936774,127.42 L304.988387,127.69358 C309.17439,128.227753 313.290223,129.213833 317.263871,130.634568 L317.674194,130.634568 C318.768387,131.044938 319.862581,131.421111 321.093548,131.865679 L322.46129,132.515432 C325.797235,134.058649 328.979972,135.913554 331.967097,138.055432 L331.967097,138.055432 L331.967097,138.055432 C333.163871,138.91037 334.360645,139.799506 335.386452,140.757037 C337.312101,142.391508 339.128272,144.150772 340.823226,146.023457 C341.814839,147.117778 342.772258,148.212099 343.695484,149.44321 L344.071613,149.272222 L345.815484,148.485679 L348.516774,147.425556 L351.149677,146.468025 C354.01665,145.476081 356.939562,144.653916 359.903226,144.005802 C358.199261,141.485522 356.337699,139.075489 354.329677,136.790123 C353.645806,135.969383 352.961935,135.217037 352.243871,134.430494 C349.235946,131.209189 345.952269,128.256969 342.430323,125.607531 L342.122581,125.402346 C340.96,124.547407 339.763226,123.726667 338.703226,122.940123 C335.29036,120.700265 331.699372,118.744435 327.966452,117.092346 L325.64129,116.100617 L323.145161,115.143086 L322.700645,115.143086 L319.28129,114.082963 C316.741926,113.305221 314.162216,112.665926 311.553548,112.167901 L309.433548,111.791728 L309.433548,111.791728 L307.416129,111.518148 L307.005806,111.518148 L304.612258,111.244568 C302.21871,111.005185 299.825161,110.902593 297.397419,110.902593 C294.969677,110.902593 292.541935,110.902593 290.182581,111.244568 L287.789032,111.518148 L287.37871,111.518148 L285.36129,111.791728 L285.190323,111.791728 L283.070323,112.167901 C280.462221,112.668506 277.882649,113.307766 275.342581,114.082963 L272.094194,115.143086 L271.649677,115.143086 L269.153548,116.100617 L266.828387,117.092346 C263.09675,118.747038 259.50597,120.702754 256.091613,122.940123 C254.860645,123.726667 253.698065,124.547407 252.672258,125.402346 L252.672258,125.402346 L252.432903,125.607531 C248.899107,128.255396 245.603941,131.207659 242.585161,134.430494 C241.867097,135.217037 241.183226,135.969383 240.499355,136.790123 C238.483377,139.125452 236.6107,141.580772 234.891613,144.142593 C237.922851,144.789769 240.91409,145.611885 243.850323,146.604815 L246.483226,147.562346" id="Shape"></path>
            <path d="M193.414839,134.327901 C190.408777,131.11505 187.124833,128.174033 183.60129,125.539136 L183.293548,125.299753 L183.293548,125.299753 C182.130968,124.444815 180.968387,123.624074 179.874194,122.837531 C176.461804,120.596877 172.870749,118.641011 169.137419,116.989753 L166.812258,115.998025 L164.316129,115.006296 L163.871613,115.006296 L160.623226,113.946173 C158.082917,113.171845 155.503392,112.532596 152.895484,112.031111 L150.775484,111.654938 L150.604516,111.654938 L148.587097,111.381358 L148.142581,111.381358 L145.749032,111.107778 C143.355484,110.868395 140.961935,110.765802 138.534194,110.765802 C136.106452,110.765802 133.67871,110.765802 131.285161,111.107778 L128.891613,111.381358 L128.447097,111.381358 L126.429677,111.654938 L126.25871,111.654938 L124.13871,112.031111 C121.531658,112.536483 118.952334,113.175682 116.410968,113.946173 L113.162581,115.006296 L112.718065,115.006296 L110.221935,115.998025 L107.896774,116.989753 C104.163718,118.641566 100.572708,120.597407 97.16,122.837531 C95.9632258,123.624074 94.7664516,124.444815 93.7406452,125.299753 L93.1935484,125.504938 C89.6724861,128.155451 86.3888998,131.107591 83.38,134.327901 C82.6619355,135.114444 81.9780645,135.86679 81.2941935,136.687531 C79.2716236,139.0175 77.3986276,141.473238 75.6864516,144.04 C78.7193425,144.680382 81.7109796,145.502607 84.6451613,146.502222 L87.2780645,147.459753 L89.9793548,148.519877 L91.7232258,149.30642 L92.0993548,149.477407 C93.0111828,148.33749 93.9572043,147.197572 94.9374194,146.057654 C96.6333571,144.185921 98.449464,142.42672 100.374194,140.791235 C101.502581,139.833704 102.699355,138.944568 103.793548,138.08963 L103.793548,138.08963 L103.793548,138.08963 C106.905694,135.878141 110.226923,133.976803 113.709677,132.41284 L115.077419,131.763086 C116.137419,131.284321 117.231613,130.908148 118.496774,130.497778 L118.907097,130.497778 C122.756239,129.069956 126.744509,128.049849 130.806452,127.454198 L132.858065,127.214815 L134.978065,127.214815 L138.397419,127.214815 L141.816774,127.214815 L143.936774,127.214815 L145.988387,127.454198 C150.173909,127.990997 154.289462,128.977011 158.263871,130.395185 L158.674194,130.395185 C159.768387,130.805556 160.862581,131.181728 162.093548,131.660494 L163.46129,132.310247 C166.782901,133.846791 169.953859,135.690053 172.932903,137.816049 L173.206452,138.021235 L173.206452,138.021235 C174.403226,138.876173 175.565806,139.799506 176.625806,140.72284 C178.550536,142.358325 180.366643,144.117526 182.062581,145.989259 C183.054194,147.08358 184.011613,148.177901 184.934839,149.409012 L185.310968,149.238025 L187.054839,148.451481 L189.756129,147.391358 L192.389032,146.433827 C195.311236,145.432985 198.291571,144.610728 201.313548,143.971605 C199.528355,141.467603 197.598851,139.069716 195.534839,136.790123 L193.449032,134.464691" id="Shape"></path>
            <path d="M193.414839,205.327901 C190.408777,202.11505 187.124833,199.174033 183.60129,196.539136 L183.293548,196.299753 L183.293548,196.299753 C182.130968,195.444815 180.968387,194.624074 179.874194,193.837531 C176.461804,191.596877 172.870749,189.641011 169.137419,187.989753 L166.812258,186.998025 L164.316129,186.006296 L163.871613,186.006296 L160.623226,184.946173 C158.082917,184.171845 155.503392,183.532596 152.895484,183.031111 L150.775484,182.654938 L150.604516,182.654938 L148.587097,182.381358 L148.142581,182.381358 L145.749032,182.107778 C143.355484,181.868395 140.961935,181.765802 138.534194,181.765802 C136.106452,181.765802 133.67871,181.765802 131.285161,182.107778 L128.891613,182.381358 L128.447097,182.381358 L126.429677,182.654938 L126.25871,182.654938 L124.13871,183.031111 C121.531658,183.536483 118.952334,184.175682 116.410968,184.946173 L113.162581,186.006296 L112.718065,186.006296 L110.221935,186.998025 L107.896774,187.989753 C104.163718,189.641566 100.572708,191.597407 97.16,193.837531 C95.9632258,194.624074 94.7664516,195.444815 93.7406452,196.299753 L93.1935484,196.504938 C89.6724861,199.155451 86.3888998,202.107591 83.38,205.327901 C82.6619355,206.114444 81.9780645,206.86679 81.2941935,207.687531 C79.2716236,210.0175 77.3986276,212.473238 75.6864516,215.04 C78.7193425,215.680382 81.7109796,216.502607 84.6451613,217.502222 L87.2780645,218.459753 L89.9793548,219.519877 L91.7232258,220.30642 L92.0993548,220.477407 C93.0111828,219.33749 93.9572043,218.197572 94.9374194,217.057654 C96.6333571,215.185921 98.449464,213.42672 100.374194,211.791235 C101.502581,210.833704 102.699355,209.944568 103.793548,209.08963 L103.793548,209.08963 L103.793548,209.08963 C106.905694,206.878141 110.226923,204.976803 113.709677,203.41284 L115.077419,202.763086 C116.137419,202.284321 117.231613,201.908148 118.496774,201.497778 L118.907097,201.497778 C122.756239,200.069956 126.744509,199.049849 130.806452,198.454198 L132.858065,198.214815 L134.978065,198.214815 L138.397419,198.214815 L141.816774,198.214815 L143.936774,198.214815 L145.988387,198.454198 C150.173909,198.990997 154.289462,199.977011 158.263871,201.395185 L158.674194,201.395185 C159.768387,201.805556 160.862581,202.181728 162.093548,202.660494 L163.46129,203.310247 C166.782901,204.846791 169.953859,206.690053 172.932903,208.816049 L173.206452,209.021235 L173.206452,209.021235 C174.403226,209.876173 175.565806,210.799506 176.625806,211.72284 C178.550536,213.358325 180.366643,215.117526 182.062581,216.989259 C183.054194,218.08358 184.011613,219.177901 184.934839,220.409012 L185.310968,220.238025 L187.054839,219.451481 L189.756129,218.391358 L192.389032,217.433827 C195.311236,216.432985 198.291571,215.610728 201.313548,214.971605 C199.528355,212.467603 197.598851,210.069716 195.534839,207.790123 L193.449032,205.464691" id="Shape"></path>
            <path d="M113.414839,241.327901 C110.408777,238.11505 107.124833,235.174033 103.60129,232.539136 L103.293548,232.299753 C102.130968,231.444815 100.968387,230.624074 99.8741935,229.837531 C96.4618038,227.596877 92.8707488,225.641011 89.1374194,223.989753 L86.8122581,222.998025 L84.316129,222.006296 L83.8716129,222.006296 L80.6232258,220.946173 C78.0829171,220.171845 75.5033916,219.532596 72.8954839,219.031111 L70.7754839,218.654938 L68.5870968,218.381358 L68.1425806,218.381358 L65.7490323,218.107778 C63.3554839,217.868395 60.9619355,217.765802 58.5341935,217.765802 C56.1064516,217.765802 53.6787097,217.765802 51.2851613,218.107778 L48.8916129,218.381358 L48.4470968,218.381358 L46.4296774,218.654938 L44.1387097,219.031111 C41.531658,219.536483 38.9523339,220.175682 36.4109677,220.946173 L33.1625806,222.006296 L32.7180645,222.006296 L30.2219355,222.998025 L27.8967742,223.989753 C24.163718,225.641566 20.5727076,227.597407 17.16,229.837531 C15.9632258,230.624074 14.7664516,231.444815 13.7406452,232.299753 L13.1935484,232.504938 C9.67248614,235.155451 6.38889983,238.107591 3.38,241.327901 C2.66193548,242.114444 1.97806452,242.86679 1.29419355,243.687531 C0.970857684,244.060009 0.33569964,245 0.33569964,245 C0.33569964,245 22.6993548,245.854938 23.7935484,245 L23.7935484,245.08963 C26.9056939,242.878141 30.2269228,240.976803 33.7096774,239.41284 L35.0774194,238.763086 C36.1374194,238.284321 37.2316129,237.908148 38.4967742,237.497778 L38.9070968,237.497778 C42.7562388,236.069956 46.7445092,235.049849 50.8064516,234.454198 L52.8580645,234.214815 L54.9780645,234.214815 L58.3974194,234.214815 L61.8167742,234.214815 L63.9367742,234.214815 L65.9883871,234.454198 C70.1739086,234.990997 74.289462,235.977011 78.263871,237.395185 L78.6741935,237.395185 C79.7683871,237.805556 80.8625806,238.181728 82.0935484,238.660494 L83.4612903,239.310247 C86.7829012,240.846791 89.9538587,242.690053 92.9329032,244.816049 L93.2064516,245 L116.796766,245 C116.796766,245 115.961251,244.261073 115.534839,243.790123 L113.449032,241.464691" id="Shape"></path>
            <path d="M352.414839,205.327901 C349.408777,202.11505 346.124833,199.174033 342.60129,196.539136 L342.293548,196.299753 L342.293548,196.299753 C341.130968,195.444815 339.968387,194.624074 338.874194,193.837531 C335.461804,191.596877 331.870749,189.641011 328.137419,187.989753 L325.812258,186.998025 L323.316129,186.006296 L322.871613,186.006296 L319.623226,184.946173 C317.082917,184.171845 314.503392,183.532596 311.895484,183.031111 L309.775484,182.654938 L309.604516,182.654938 L307.587097,182.381358 L307.142581,182.381358 L304.749032,182.107778 C302.355484,181.868395 299.961935,181.765802 297.534194,181.765802 C295.106452,181.765802 292.67871,181.765802 290.285161,182.107778 L287.891613,182.381358 L287.447097,182.381358 L285.429677,182.654938 L285.25871,182.654938 L283.13871,183.031111 C280.531658,183.536483 277.952334,184.175682 275.410968,184.946173 L272.162581,186.006296 L271.718065,186.006296 L269.221935,186.998025 L266.896774,187.989753 C263.163718,189.641566 259.572708,191.597407 256.16,193.837531 C254.963226,194.624074 253.766452,195.444815 252.740645,196.299753 L252.193548,196.504938 C248.672486,199.155451 245.3889,202.107591 242.38,205.327901 C241.661935,206.114444 240.978065,206.86679 240.294194,207.687531 C238.271624,210.0175 236.398628,212.473238 234.686452,215.04 C237.719343,215.680382 240.71098,216.502607 243.645161,217.502222 L246.278065,218.459753 L248.979355,219.519877 L250.723226,220.30642 L251.099355,220.477407 C252.011183,219.33749 252.957204,218.197572 253.937419,217.057654 C255.633357,215.185921 257.449464,213.42672 259.374194,211.791235 C260.502581,210.833704 261.699355,209.944568 262.793548,209.08963 L262.793548,209.08963 L262.793548,209.08963 C265.905694,206.878141 269.226923,204.976803 272.709677,203.41284 L274.077419,202.763086 C275.137419,202.284321 276.231613,201.908148 277.496774,201.497778 L277.907097,201.497778 C281.756239,200.069956 285.744509,199.049849 289.806452,198.454198 L291.858065,198.214815 L293.978065,198.214815 L297.397419,198.214815 L300.816774,198.214815 L302.936774,198.214815 L304.988387,198.454198 C309.173909,198.990997 313.289462,199.977011 317.263871,201.395185 L317.674194,201.395185 C318.768387,201.805556 319.862581,202.181728 321.093548,202.660494 L322.46129,203.310247 C325.782901,204.846791 328.953859,206.690053 331.932903,208.816049 L332.206452,209.021235 L332.206452,209.021235 C333.403226,209.876173 334.565806,210.799506 335.625806,211.72284 C337.550536,213.358325 339.366643,215.117526 341.062581,216.989259 C342.054194,218.08358 343.011613,219.177901 343.934839,220.409012 L344.310968,220.238025 L346.054839,219.451481 L348.756129,218.391358 L351.389032,217.433827 C354.311236,216.432985 357.291571,215.610728 360.313548,214.971605 C358.528355,212.467603 356.598851,210.069716 354.534839,207.790123 L352.449032,205.464691" id="Shape"></path>
            <path d="M237.969032,166.370988 C239.063226,166.781358 240.157419,167.157531 241.388387,167.602099 L242.756129,168.251852 C246.090024,169.798999 249.272402,171.653694 252.261935,173.791852 L252.261935,173.791852 L252.261935,173.791852 C253.45871,174.64679 254.655484,175.535926 255.68129,176.493457 C257.601336,178.134098 259.417124,179.89299 261.118065,181.759877 C262.109677,182.854198 263.067097,183.948519 263.956129,185.17963 L264.332258,185.008642 L266.076129,184.222099 L268.777419,183.161975 L271.410323,182.204444 C274.344706,181.196294 277.336172,180.362697 280.369032,179.708025 C278.653787,177.143455 276.780935,174.687905 274.76129,172.355556 L272.675484,170.030123 C269.669035,166.807315 266.385221,163.854971 262.861935,161.20716 L262.554194,161.001975 C261.391613,160.147037 260.194839,159.326296 259.134839,158.539753 C255.719708,156.303677 252.129035,154.34802 248.398065,152.691975 L246.072903,151.700247 L243.645161,150.879506 L243.200645,150.879506 L239.952258,149.785185 C237.411199,149.013578 234.831817,148.374365 232.224516,147.870123 L229.967742,147.35716 L229.967742,147.35716 L227.847742,147.049383 L227.403226,147.049383 L225.009677,146.775802 C222.616129,146.570617 220.222581,146.433827 217.760645,146.433827 C215.29871,146.433827 212.905161,146.433827 210.545806,146.775802 L208.152258,147.049383 L207.707742,147.049383 L205.690323,147.322963 L205.519355,147.322963 L203.399355,147.699136 C200.791638,148.201491 198.212158,148.840728 195.671613,149.614198 L192.423226,150.708519 L191.97871,150.708519 L189.482581,151.666049 L187.157419,152.657778 C183.424771,154.310419 179.833827,156.266224 176.420645,158.505556 C175.223871,159.292099 174.027097,160.11284 173.00129,160.93358 L173.00129,160.93358 L172.659355,161.172963 C169.151334,163.813909 165.879257,166.754544 162.88,169.961728 L160.794194,172.28716 C158.77789,174.622224 156.905197,177.077564 155.186452,179.63963 C158.218632,180.297052 161.209937,181.130605 164.145161,182.136049 L166.778065,183.09358 L169.479355,184.153704 L171.223226,184.940247 L171.599355,185.111235 C172.488387,183.948519 173.445806,182.854198 174.437419,181.691481 C176.139435,179.825638 177.955156,178.06681 179.874194,176.425062 C181.002581,175.467531 182.165161,174.578395 183.293548,173.723457 L183.293548,173.723457 L183.567097,173.518272 C186.556835,171.477149 189.727294,169.714306 193.03871,168.251852 L194.406452,167.602099 C195.466452,167.123333 196.560645,166.74716 197.825806,166.370988 L198.236129,166.370988 C202.209083,164.947923 206.325173,163.961781 210.511613,163.43 L212.563226,163.15642 L214.683226,163.15642 L218.102581,163.15642 C219.333548,163.15642 220.325161,163.15642 221.521935,163.327407 L223.641935,163.327407 L225.693548,163.600988 C229.880282,164.13116 233.996545,165.117344 237.969032,166.541975 L238.379355,166.541975" id="Shape"></path>
            <path d="M367.015484,147.049383 L366.741935,147.049383 L364.724516,147.322963 L364.724516,147.322963 L362.604516,147.699136 C359.996854,148.201737 357.417387,148.840972 354.876774,149.614198 L351.628387,150.708519 L351.183871,150.708519 L348.687742,151.666049 L346.362581,152.657778 C342.630338,154.311243 339.039461,156.267012 335.625806,158.505556 C334.429032,159.292099 333.232258,160.11284 332.206452,160.967778 L332.206452,160.967778 L331.967097,161.138765 C328.433855,163.787307 325.138746,166.739519 322.119355,169.961728 C321.40129,170.714074 320.717419,171.500617 320.033548,172.28716 C318.013767,174.619399 316.140908,177.074958 314.425806,179.63963 C317.446482,180.298187 320.426343,181.131732 323.350323,182.136049 L325.983226,183.09358 L328.684516,184.153704 L330.428387,184.940247 L330.804516,185.111235 C331.693548,183.948519 332.650968,182.854198 333.642581,181.691481 C335.34275,179.823847 337.158586,178.064908 339.079355,176.425062 C340.207742,175.467531 341.370323,174.578395 342.49871,173.723457 L342.49871,173.723457 L342.703871,173.723457 C345.692098,171.583281 348.874671,169.728473 352.209677,168.183457 L353.064516,167.567901 C354.124516,167.089136 355.21871,166.712963 356.483871,166.302593 L356.894194,166.302593 C360.867148,164.879528 364.983237,163.893386 369.169677,163.361605 L371.22129,163.122222 L373.34129,163.122222 L376.760645,163.122222 L376.760645,146.707407 C374.332903,146.707407 371.905161,146.707407 369.545806,147.049383 L367.152258,147.322963" id="Shape"></path>
        </g>
    </g>
</svg>