<?xml version="1.0" encoding="UTF-8"?>
<svg width="302px" height="322px" viewBox="0 0 302 322" version="1.1" xmlns="http://www.w3.org/2000/svg" xmlns:xlink="http://www.w3.org/1999/xlink">
    <!-- Generator: Sketch 43.1 (39012) - http://www.bohemiancoding.com/sketch -->
    <title>final-label</title>
    <desc>Created with Sketch.</desc>
    <defs></defs>
    <g id="Page-1" stroke="none" stroke-width="1" fill="none" fill-rule="evenodd">
        <g id="final-label" fill-rule="nonzero" fill="#006A5F">
            <g id="23423Ресурс-2" transform="translate(151.637562, 0.000000)">
                <path d="M56.1228886,170.129714 L56.1228886,119.0908 L100.501741,93.6155325 L144.858482,119.0908 L144.858482,170.129714 L100.501741,195.516603 L56.1228886,170.129714 Z M51.3245771,116.439428 L51.3245771,172.781087 L100.501741,201.06239 L149.656793,172.781087 L149.656793,116.351049 L149.656793,116.351049 L100.501741,88.1139352 L51.3245771,116.439428 Z" id="Shape"></path>
                <path d="M60.279951,121.521225 L60.279951,121.521225 L60.279951,167.69929 L100.501741,190.744133 L140.701419,167.6551 L140.701419,121.521225 L140.701419,121.521225 L100.501741,98.3880024 L60.279951,121.521225 Z M135.92522,124.283071 L135.92522,164.893254 L100.545965,185.220441 L65.1667105,164.893254 L65.1667105,124.238881 L100.545965,103.911694 L100.545965,103.911694 L135.92522,124.238881 L135.92522,124.283071 Z" id="Shape"></path>
                <path d="M69.2353248,126.603021 L69.2353248,162.507019 L100.501741,180.447971 L131.768157,162.507019 L131.768157,126.603021 L100.501741,108.66207 L69.2353248,126.603021 Z M126.969846,159.745173 L100.435405,174.946374 L73.900964,159.767268 L73.900964,129.364867 L100.435405,114.185762 L126.969846,129.386962 L126.969846,159.745173 Z" id="Shape"></path>
                <path d="M87.1460725,136.987562 L87.1460725,152.232952 L100.413293,159.899837 L113.680513,152.232952 L113.680513,136.987562 L100.413293,129.320678 L87.1460725,136.987562 Z M109.08121,139.749408 L109.08121,149.58158 L100.523853,154.508713 L91.9664959,149.58158 L91.9664959,139.638934 L100.501741,134.778086 L109.059098,139.683124 L109.08121,139.749408 Z" id="Shape"></path>
                <polygon id="Shape" points="102.491824 84.6671514 150.362438 112.46237 150.362438 106.960772 107.290136 81.9274002 107.290136 30.9768649 150.362438 5.94349262 150.362438 0.441895362 102.491824 28.2371137"></polygon>
                <polygon id="Shape" points="120.402572 74.3930842 150.362438 91.8921406 150.362438 86.3905433 125.200883 71.653333 125.200883 41.2509321 150.362438 26.491627 150.362438 21.0121245 120.402572 38.5111808"></polygon>
                <polygon id="Shape" points="129.357946 69.267098 150.362438 81.6180734 150.362438 76.1164762 134.156257 66.505252 134.156257 46.399013 150.362438 36.7877889 150.362438 31.2861917 129.357946 43.637167"></polygon>
                <polygon id="Shape" points="138.31332 64.1190171 150.362438 71.3440062 150.362438 65.842409 143.111631 61.3571711 143.111631 51.547094 150.362438 47.0618561 150.362438 41.5602588 138.31332 48.785248"></polygon>
                <polygon id="Shape" points="102.491824 260.895022 150.362438 288.69024 150.362438 283.188643 107.290136 258.155271 107.290136 207.204735 150.362438 182.171363 150.362438 176.669766 102.491824 204.442889"></polygon>
                <polygon id="Shape" points="120.402572 250.620955 150.362438 268.120011 150.362438 262.618414 125.200883 247.881203 125.200883 217.478803 150.362438 202.719497 150.362438 197.2179 120.402572 214.739051"></polygon>
                <polygon id="Shape" points="129.357946 245.472874 150.362438 257.845944 150.362438 252.344347 134.156257 242.733123 134.156257 222.626884 150.362438 213.015659 150.362438 207.514062 129.357946 219.865038"></polygon>
                <polygon id="Shape" points="138.31332 240.346888 150.362438 247.571877 150.362438 242.070279 143.111631 237.585042 143.111631 227.75287 150.362438 223.289727 150.362438 217.788129 138.31332 225.013118"></polygon>
                <path d="M0.0688819744,84.6892462 L49.3344941,112.904265 L98.511658,84.6892462 L98.511658,28.2371137 L98.511658,28.2371137 L49.3344941,0 L0.0688819744,28.2150189 L0.0688819744,84.6892462 Z M4.95564152,30.9326754 L49.3344941,5.50159726 L93.7133466,30.9326754 L93.7133466,81.9274002 L49.3344941,107.402668 L4.95564152,81.9274002 L4.95564152,30.9326754 Z" id="Shape"></path>
                <path d="M89.5562842,79.5411652 L89.5562842,33.3630999 L89.5562842,33.3630999 L49.3344941,10.2740672 L9.11270394,33.3630999 L9.11270394,33.3630999 L9.11270394,79.5411652 L49.3344941,102.630198 L89.5562842,79.5411652 Z M13.9110154,36.1249459 L49.29027,15.7977592 L84.6695247,36.1249459 L84.6695247,76.7793192 L49.29027,97.1065059 L13.9110154,76.7793192 L13.9110154,36.1249459 Z" id="Shape"></path>
                <path d="M71.6455365,69.267098 L71.6455365,43.637167 L49.3344941,30.9326754 L27.0234516,43.7476409 L27.0234516,69.267098 L49.3344941,82.0820636 L71.6455365,69.267098 Z M31.8438751,66.505252 L31.8438751,46.399013 L31.8438751,46.399013 L49.3566061,36.3458936 L66.8472251,46.399013 L66.8472251,66.505252 L66.8472251,66.505252 L49.3344941,76.5583715 L31.821763,66.505252 L31.8438751,66.505252 Z" id="Shape"></path>
                <path d="M62.6901627,64.0748275 L62.6901627,48.785248 L49.4229422,41.1183635 L36.1557217,48.785248 L36.1557217,64.0748275 L49.4229422,71.7417121 L62.6901627,64.0748275 Z M40.7771369,51.5029045 L49.3344941,46.5757712 L57.8918513,51.5029045 L57.8918513,61.3350763 L49.3344941,66.2843043 L40.7771369,61.3792658 L40.7771369,51.5029045 Z" id="Shape"></path>
                <path d="M98.511658,204.442889 L98.511658,204.442889 L49.3344941,176.22787 L0.0688819744,204.442889 L0.0688819744,260.895022 L49.2460459,289.132136 L98.4232099,260.895022 L98.511658,204.442889 Z M93.7133466,258.133176 L49.3344941,283.630538 L4.95564152,258.155271 L4.95564152,207.204735 L49.3344941,181.729468 L93.7133466,207.204735 L93.7133466,258.133176 Z" id="Shape"></path>
                <path d="M9.11270394,209.59097 L9.11270394,209.59097 L9.11270394,255.769036 L49.3344941,278.835974 L89.5562842,255.746941 L89.5562842,209.59097 L89.5562842,209.59097 L49.3344941,186.501938 L9.11270394,209.59097 Z M84.7579728,253.00719 L49.3787181,273.334376 L13.9994635,253.00719 L13.9994635,212.330722 L49.3787181,192.003535 L49.3787181,192.003535 L84.7579728,212.330722 L84.7579728,253.00719 Z" id="Shape"></path>
                <path d="M27.0234516,219.865038 L27.0234516,245.472874 L49.3344941,258.287839 L71.6455365,245.472874 L71.6455365,219.865038 L49.3344941,207.050072 L27.0234516,219.865038 Z M66.8251131,242.733123 L66.8251131,242.733123 L49.312382,252.786242 L31.799651,242.733123 L31.799651,242.733123 L31.799651,222.626884 L31.799651,222.626884 L49.312382,212.573764 L66.8251131,222.626884 L66.8251131,242.733123 Z" id="Shape"></path>
                <path d="M35.9567134,225.013118 L35.9567134,240.346888 L49.2239339,248.013772 L62.4911544,240.346888 L62.4911544,225.013118 L49.2239339,217.346234 L35.9567134,225.013118 Z M57.8697393,237.585042 L49.312382,242.512175 L40.7550248,237.585042 L40.7550248,227.75287 L49.312382,222.825736 L57.8697393,227.75287 L57.8697393,237.585042 Z" id="Shape"></path>
            </g>
            <g id="23423Ресурс-2" transform="translate(150.323537, 264.632194)">
                <path d="M151.511658,57.3678059 L151.511658,28.2371137 L102.334494,0 L53.068882,28.2150189 L53.068882,57.3678059 L151.511658,57.3678059 Z M57.9556415,30.9326754 L102.334494,5.50159726 L146.713347,30.9326754 L146.713347,57.3678059 L57.9556415,57.3678059 L57.9556415,30.9326754 Z" id="Shape"></path>
                <path d="M142.556284,57.3678059 L142.556284,33.3630999 L102.334494,10.2740672 L62.1127039,33.3630999 L62.1127039,57.3678059 L142.556284,57.3678059 Z M66.9110154,36.1249459 L102.29027,15.7977592 L137.669525,36.1249459 L137.669525,57.3678059 L66.9110154,57.3678059 L66.9110154,36.1249459 Z" id="Shape"></path>
                <path d="M133.60091,57.3678059 L133.60091,38.5111808 L102.334494,20.5702291 L71.0680778,38.5111808 L71.0680778,57.3678059 L133.60091,57.3678059 Z M75.8663892,41.2509321 L102.40083,26.0497316 L128.935271,41.2509321 L128.935271,57.3678059 L75.8663892,57.3678059 L75.8663892,41.2509321 Z" id="Shape"></path>
                <path d="M115.690163,57.3678059 L115.690163,48.785248 L102.422942,41.1183635 L89.1557217,48.785248 L89.1557217,57.3678059 L115.690163,57.3678059 Z M93.7771369,51.5029045 L102.334494,46.5757712 L110.891851,51.5029045 L110.891851,57.3678059 L93.7771369,57.3678059 L93.7771369,51.5029045 Z" id="Shape"></path>
                <polygon id="Shape" points="0 0 0 5.50159726 44.3788526 30.9768649 44.3788526 57.3678059 49.177164 57.3678059 49.177164 28.2371137"></polygon>
                <polygon id="Shape" points="0 10.2740672 0 15.7756644 35.4234787 36.1249459 35.4234787 57.3678059 40.2217901 57.3678059 40.2217901 33.3630999"></polygon>
                <polygon id="Shape" points="0 20.5481343 0 26.0497316 26.4681049 41.2509321 26.4681049 57.3678059 31.2664163 57.3678059 31.2664163 38.5111808"></polygon>
                <polygon id="Shape" points="0 30.8442963 0 36.3458936 17.5127311 46.399013 17.5127311 57.3678059 22.3110425 57.3678059 22.3110425 43.637167"></polygon>
            </g>
            <g id="23423Ресурс-2" transform="translate(0.000000, 264.632194)">
                <polygon id="Shape" points="102.491824 57.3678059 107.290136 57.3678059 107.290136 30.9768649 150.895067 5.94349262 150.895067 0.441895362 102.491824 28.2371137"></polygon>
                <polygon id="Shape" points="111.447198 57.3678059 116.245509 57.3678059 116.245509 36.1249459 150.895067 16.2175598 150.895067 10.7159625 111.447198 33.3630999"></polygon>
                <polygon id="Shape" points="120.402572 57.3678059 125.200883 57.3678059 125.200883 41.2509321 150.895067 26.491627 150.895067 21.0121245 120.402572 38.5111808"></polygon>
                <polygon id="Shape" points="134.156257 57.3678059 134.156257 46.399013 150.895067 36.7877889 150.895067 31.2861917 129.357946 43.637167 129.357946 57.3678059"></polygon>
                <path d="M98.511658,57.3678059 L98.511658,28.2371137 L49.3344941,0 L0.0688819744,28.2150189 L0.0688819744,57.3678059 L98.511658,57.3678059 Z M4.95564152,30.9326754 L49.3344941,5.50159726 L93.7133466,30.9326754 L93.7133466,57.3678059 L4.95564152,57.3678059 L4.95564152,30.9326754 Z" id="Shape"></path>
                <path d="M89.5562842,57.3678059 L89.5562842,33.3630999 L49.3344941,10.2740672 L9.11270394,33.3630999 L9.11270394,57.3678059 L89.5562842,57.3678059 Z M13.9110154,36.1249459 L49.29027,15.7977592 L84.6695247,36.1249459 L84.6695247,57.3678059 L13.9110154,57.3678059 L13.9110154,36.1249459 Z" id="Shape"></path>
                <path d="M71.6455365,57.3678059 L71.6455365,43.637167 L49.3344941,30.9326754 L27.0234516,43.7476409 L27.0234516,57.3678059 L71.6455365,57.3678059 Z M31.8438751,57.3678059 L31.8438751,46.399013 L49.3566061,36.3458936 L66.8472251,46.399013 L66.8472251,57.3678059 L31.8438751,57.3678059 Z" id="Shape"></path>
                <path d="M62.6901627,57.3678059 L62.6901627,48.785248 L49.4229422,41.1183635 L36.1557217,48.785248 L36.1557217,57.3678059 L62.6901627,57.3678059 Z M40.7771369,51.5029045 L49.3344941,46.5757712 L57.8918513,51.5029045 L57.8918513,57.3678059 L40.7771369,57.3678059 L40.7771369,51.5029045 Z" id="Shape"></path>
            </g>
        </g>
    </g>
</svg>