<?xml version="1.0" encoding="UTF-8"?>
<svg width="339px" height="434px" viewBox="0 0 339 434" version="1.1" xmlns="http://www.w3.org/2000/svg" xmlns:xlink="http://www.w3.org/1999/xlink">
    <!-- Generator: Sketch 43.1 (39012) - http://www.bohemiancoding.com/sketch -->
    <title>final-book</title>
    <desc>Created with Sketch.</desc>
    <defs>
        <rect id="path-1" x="0" y="0" width="390" height="530"></rect>
    </defs>
    <g id="Page-1" stroke="none" stroke-width="1" fill="none" fill-rule="evenodd">
        <g id="final-book" transform="translate(-51.000000, -96.000000)">
            <mask id="mask-2" fill="white">
                <use xlink:href="#path-1"></use>
            </mask>
            <g id="Mask"></g>
            <g id="Group-8" mask="url(#mask-2)">
                <g transform="translate(258.851942, 354.617314) rotate(-300.000000) translate(-258.851942, -354.617314) translate(45.351942, 114.117314)" id="Group-7">
                    <g transform="translate(162.000000, 54.000000)">
                        <g id="Group-6" transform="translate(54.000000, 108.000000)" fill="#00769A">
                            <rect id="Rectangle-2" x="-5.68434189e-14" y="1.13686838e-13" width="49" height="4"></rect>
                            <rect id="Rectangle-2" x="5.68434189e-14" y="9" width="49" height="4"></rect>
                            <rect id="Rectangle-2" x="5.68434189e-14" y="18" width="49" height="4"></rect>
                            <rect id="Rectangle-2" x="5.68434189e-14" y="27" width="49" height="4"></rect>
                            <rect id="Rectangle-2" x="-5.68434189e-14" y="36" width="49" height="4"></rect>
                            <rect id="Rectangle-2" x="5.68434189e-14" y="45" width="49" height="4"></rect>
                        </g>
                        <g id="Group-6" transform="translate(132.500000, 132.500000) rotate(90.000000) translate(-132.500000, -132.500000) translate(108.000000, 108.000000)" fill="#00769A">
                            <rect id="Rectangle-2" x="2.84217094e-14" y="-2.84217094e-14" width="49" height="4"></rect>
                            <rect id="Rectangle-2" x="8.52651283e-14" y="9" width="49" height="4"></rect>
                            <rect id="Rectangle-2" x="8.52651283e-14" y="18" width="49" height="4"></rect>
                            <rect id="Rectangle-2" x="0" y="27" width="49" height="4"></rect>
                            <rect id="Rectangle-2" x="0" y="36" width="49" height="4"></rect>
                            <rect id="Rectangle-2" x="4.26325641e-14" y="45" width="49" height="4"></rect>
                        </g>
                        <g id="Group-6" transform="translate(24.500000, 132.500000) rotate(90.000000) translate(-24.500000, -132.500000) translate(-0.000000, 108.000000)" fill="#00769A">
                            <rect id="Rectangle-2" x="0" y="-5.68434189e-14" width="49" height="4"></rect>
                            <rect id="Rectangle-2" x="5.68434189e-14" y="9" width="49" height="4"></rect>
                            <rect id="Rectangle-2" x="-5.68434189e-14" y="18" width="49" height="4"></rect>
                            <rect id="Rectangle-2" x="0" y="27" width="49" height="4"></rect>
                            <rect id="Rectangle-2" x="0" y="36" width="49" height="4"></rect>
                            <rect id="Rectangle-2" x="5.68434189e-14" y="45" width="49" height="4"></rect>
                        </g>
                        <g id="Group-6" transform="translate(-0.000000, 162.000000)" fill="#00769A">
                            <rect id="Rectangle-2" x="-5.68434189e-14" y="0" width="49" height="4"></rect>
                            <rect id="Rectangle-2" x="-5.68434189e-14" y="9" width="49" height="4"></rect>
                            <rect id="Rectangle-2" x="-5.68434189e-14" y="18" width="49" height="4"></rect>
                            <rect id="Rectangle-2" x="-5.68434189e-14" y="27" width="49" height="4"></rect>
                            <rect id="Rectangle-2" x="-5.68434189e-14" y="36" width="49" height="4"></rect>
                            <rect id="Rectangle-2" x="5.68434189e-14" y="45" width="49" height="4"></rect>
                        </g>
                        <g id="Group-6" transform="translate(108.000000, 162.000000)" fill="#00769A">
                            <rect id="Rectangle-2" x="2.84217094e-14" y="2.84217094e-14" width="49" height="4"></rect>
                            <rect id="Rectangle-2" x="2.84217094e-14" y="9" width="49" height="4"></rect>
                            <rect id="Rectangle-2" x="2.84217094e-14" y="18" width="49" height="4"></rect>
                            <rect id="Rectangle-2" x="2.84217094e-14" y="27" width="49" height="4"></rect>
                            <rect id="Rectangle-2" x="2.84217094e-14" y="36" width="49" height="4"></rect>
                            <rect id="Rectangle-2" x="2.84217094e-14" y="45" width="49" height="4"></rect>
                        </g>
                        <g id="Group-6" transform="translate(78.500000, 186.500000) rotate(90.000000) translate(-78.500000, -186.500000) translate(54.000000, 162.000000)" fill="#00769A">
                            <rect id="Rectangle-2" x="8.52651283e-14" y="8.52651283e-14" width="49" height="4"></rect>
                            <rect id="Rectangle-2" x="5.68434189e-14" y="9" width="49" height="4"></rect>
                            <rect id="Rectangle-2" x="1.13686838e-13" y="18" width="49" height="4"></rect>
                            <rect id="Rectangle-2" x="1.13686838e-13" y="27" width="49" height="4"></rect>
                            <rect id="Rectangle-2" x="2.84217094e-14" y="36" width="49" height="4"></rect>
                            <rect id="Rectangle-2" x="5.68434189e-14" y="45" width="49" height="4"></rect>
                        </g>
                        <g id="Group-6" transform="translate(54.000000, 0.000000)" fill="#00769A">
                            <rect id="Rectangle-2" x="5.68434189e-14" y="36" width="49" height="4"></rect>
                            <rect id="Rectangle-2" x="5.68434189e-14" y="45" width="49" height="4"></rect>
                        </g>
                        <g id="Group-6" transform="translate(24.500000, 24.500000) rotate(90.000000) translate(-24.500000, -24.500000) translate(-0.000000, 0.000000)" fill="#00769A">
                            <rect id="Rectangle-2" x="5.68434189e-14" y="-1.13686838e-13" width="49" height="4"></rect>
                            <rect id="Rectangle-2" x="-5.73945099e-14" y="9" width="49" height="4"></rect>
                            <rect id="Rectangle-2" x="-1.10218212e-15" y="18" width="49" height="4"></rect>
                            <rect id="Rectangle-2" x="-1.65327318e-15" y="27" width="49" height="4"></rect>
                            <rect id="Rectangle-2" x="5.46390546e-14" y="36" width="49" height="4"></rect>
                            <rect id="Rectangle-2" x="5.40879636e-14" y="45" width="49" height="4"></rect>
                        </g>
                        <g id="Group-6" transform="translate(-0.000000, 54.000000)" fill="#00769A">
                            <rect id="Rectangle-2" x="5.68434189e-14" y="0" width="49" height="4"></rect>
                            <rect id="Rectangle-2" x="5.68434189e-14" y="9" width="49" height="4"></rect>
                            <rect id="Rectangle-2" x="5.68434189e-14" y="18" width="49" height="4"></rect>
                            <rect id="Rectangle-2" x="5.68434189e-14" y="27" width="49" height="4"></rect>
                            <rect id="Rectangle-2" x="5.68434189e-14" y="36" width="49" height="4"></rect>
                            <rect id="Rectangle-2" x="5.68434189e-14" y="45" width="49" height="4"></rect>
                        </g>
                        <g id="Group-6" transform="translate(108.000000, 54.000000)" fill="#00769A">
                            <rect id="Rectangle-2" x="2.84217094e-14" y="18" width="49" height="4"></rect>
                            <rect id="Rectangle-2" x="2.84217094e-14" y="27" width="49" height="4"></rect>
                            <rect id="Rectangle-2" x="2.84217094e-14" y="36" width="49" height="4"></rect>
                            <rect id="Rectangle-2" x="2.84217094e-14" y="45" width="49" height="4"></rect>
                        </g>
                        <g id="Group-6" transform="translate(78.500000, 78.500000) rotate(90.000000) translate(-78.500000, -78.500000) translate(54.000000, 54.000000)" fill="#00769A">
                            <rect id="Rectangle-2" x="1.13686838e-13" y="-2.84217094e-14" width="49" height="4"></rect>
                            <rect id="Rectangle-2" x="5.68434189e-14" y="9" width="49" height="4"></rect>
                            <rect id="Rectangle-2" x="5.68434189e-14" y="18" width="49" height="4"></rect>
                            <rect id="Rectangle-2" x="1.13686838e-13" y="27" width="49" height="4"></rect>
                            <rect id="Rectangle-2" x="1.13686838e-13" y="36" width="49" height="4"></rect>
                            <rect id="Rectangle-2" x="1.63424829e-13" y="45" width="49" height="4"></rect>
                        </g>
                    </g>
                    <g transform="translate(54.000000, 216.000000)">
                        <g id="Group-6" transform="translate(78.500000, 132.500000) rotate(90.000000) translate(-78.500000, -132.500000) translate(54.000000, 108.000000)" fill="#00769A">
                            <rect id="Rectangle-2" x="5.68434189e-14" y="5.68434189e-14" width="49" height="4"></rect>
                            <rect id="Rectangle-2" x="1.13686838e-13" y="9" width="49" height="4"></rect>
                            <rect id="Rectangle-2" x="0" y="18" width="49" height="4"></rect>
                            <rect id="Rectangle-2" x="0" y="27" width="49" height="4"></rect>
                            <rect id="Rectangle-2" x="5.68434189e-14" y="36" width="49" height="4"></rect>
                            <rect id="Rectangle-2" x="1.13686838e-13" y="45" width="49" height="4"></rect>
                        </g>
                        <g id="Group-6" transform="translate(0.000000, 0.000000)" fill="#00769A">
                            <rect id="Rectangle-2" x="-5.68434189e-14" y="-2.84217094e-14" width="49" height="4"></rect>
                            <rect id="Rectangle-2" x="-5.68434189e-14" y="9" width="49" height="4"></rect>
                            <rect id="Rectangle-2" x="-5.68434189e-14" y="18" width="49" height="4"></rect>
                            <rect id="Rectangle-2" x="-5.68434189e-14" y="27" width="49" height="4"></rect>
                            <rect id="Rectangle-2" x="-5.68434189e-14" y="36" width="49" height="4"></rect>
                            <rect id="Rectangle-2" x="-5.68434189e-14" y="45" width="49" height="4"></rect>
                        </g>
                        <g id="Group-6" transform="translate(78.500000, 24.500000) rotate(90.000000) translate(-78.500000, -24.500000) translate(54.000000, 0.000000)" fill="#00769A">
                            <rect id="Rectangle-2" x="1.42108547e-13" y="-1.13686838e-13" width="49" height="4"></rect>
                            <rect id="Rectangle-2" x="1.69979166e-13" y="9" width="49" height="4"></rect>
                            <rect id="Rectangle-2" x="8.41629462e-14" y="18" width="49" height="4"></rect>
                            <rect id="Rectangle-2" x="1.12033565e-13" y="27" width="49" height="4"></rect>
                            <rect id="Rectangle-2" x="2.62173452e-14" y="36" width="49" height="4"></rect>
                            <rect id="Rectangle-2" x="5.40879636e-14" y="45" width="49" height="4"></rect>
                        </g>
                    </g>
                    <g transform="translate(324.000000, 216.000000)">
                        <g id="Group-6" transform="translate(24.500000, 132.500000) rotate(90.000000) translate(-24.500000, -132.500000) translate(-0.000000, 108.000000)" fill="#00769A">
                            <rect id="Rectangle-2" x="5.68434189e-14" y="9" width="49" height="4"></rect>
                            <rect id="Rectangle-2" x="5.68434189e-14" y="18" width="49" height="4"></rect>
                            <rect id="Rectangle-2" x="1.13686838e-13" y="27" width="49" height="4"></rect>
                            <rect id="Rectangle-2" x="1.70530257e-13" y="36" width="49" height="4"></rect>
                            <rect id="Rectangle-2" x="1.70530257e-13" y="45" width="49" height="4"></rect>
                        </g>
                        <g id="Group-6" transform="translate(-0.000000, 162.000000)" fill="#00769A">
                            <rect id="Rectangle-2" x="0" y="5.68434189e-14" width="49" height="4"></rect>
                            <rect id="Rectangle-2" x="0" y="9" width="49" height="4"></rect>
                            <rect id="Rectangle-2" x="0" y="18" width="49" height="4"></rect>
                        </g>
                        <g id="Group-6" transform="translate(54.000000, 0.000000)" fill="#00769A">
                            <rect id="Rectangle-2" x="0" y="2.84217094e-14" width="49" height="4"></rect>
                            <rect id="Rectangle-2" x="-1.13686838e-13" y="9" width="49" height="4"></rect>
                            <rect id="Rectangle-2" x="0" y="18" width="49" height="4"></rect>
                            <rect id="Rectangle-2" x="0" y="27" width="49" height="4"></rect>
                            <rect id="Rectangle-2" x="0" y="36" width="49" height="4"></rect>
                            <rect id="Rectangle-2" x="0" y="45" width="49" height="4"></rect>
                        </g>
                        <g id="Group-6" transform="translate(24.500000, 24.500000) rotate(90.000000) translate(-24.500000, -24.500000) translate(-0.000000, 0.000000)" fill="#00769A">
                            <rect id="Rectangle-2" x="-2.84217094e-14" y="1.13686838e-13" width="49" height="4"></rect>
                            <rect id="Rectangle-2" x="-2.89728005e-14" y="9" width="49" height="4"></rect>
                            <rect id="Rectangle-2" x="2.73195273e-14" y="18" width="49" height="4"></rect>
                            <rect id="Rectangle-2" x="2.67684363e-14" y="27" width="49" height="4"></rect>
                            <rect id="Rectangle-2" x="8.30607641e-14" y="36" width="49" height="4"></rect>
                            <rect id="Rectangle-2" x="-3.11771647e-14" y="45" width="49" height="4"></rect>
                        </g>
                        <g id="Group-6" transform="translate(-0.000000, 54.000000)" fill="#00769A">
                            <rect id="Rectangle-2" x="0" y="5.68434189e-14" width="49" height="4"></rect>
                            <rect id="Rectangle-2" x="0" y="9" width="49" height="4"></rect>
                            <rect id="Rectangle-2" x="0" y="18" width="49" height="4"></rect>
                            <rect id="Rectangle-2" x="0" y="27" width="49" height="4"></rect>
                            <rect id="Rectangle-2" x="0" y="36" width="49" height="4"></rect>
                            <rect id="Rectangle-2" x="0" y="45" width="49" height="4"></rect>
                        </g>
                        <g id="Group-6" transform="translate(78.500000, 78.500000) rotate(90.000000) translate(-78.500000, -78.500000) translate(54.000000, 54.000000)" fill="#00769A">
                            <rect id="Rectangle-2" x="5.68434189e-14" y="27" width="49" height="4"></rect>
                            <rect id="Rectangle-2" x="5.68434189e-14" y="36" width="49" height="4"></rect>
                            <rect id="Rectangle-2" x="1.0658141e-13" y="45" width="49" height="4"></rect>
                        </g>
                    </g>
                    <g transform="translate(0.000000, 0.000000)">
                        <g id="Group-6" transform="translate(54.000000, 108.000000)" fill="#00769A">
                            <rect id="Rectangle-2" x="8.52651283e-14" y="0" width="49" height="4"></rect>
                            <rect id="Rectangle-2" x="2.84217094e-14" y="9" width="49" height="4"></rect>
                            <rect id="Rectangle-2" x="2.84217094e-14" y="18" width="49" height="4"></rect>
                            <rect id="Rectangle-2" x="2.84217094e-14" y="27" width="49" height="4"></rect>
                            <rect id="Rectangle-2" x="8.52651283e-14" y="36" width="49" height="4"></rect>
                            <rect id="Rectangle-2" x="2.84217094e-14" y="45" width="49" height="4"></rect>
                        </g>
                        <g id="Group-6" transform="translate(132.500000, 132.500000) rotate(90.000000) translate(-132.500000, -132.500000) translate(108.000000, 108.000000)" fill="#00769A">
                            <rect id="Rectangle-2" x="2.84217094e-14" y="-1.42108547e-13" width="49" height="4"></rect>
                            <rect id="Rectangle-2" x="-2.84217094e-14" y="9" width="49" height="4"></rect>
                            <rect id="Rectangle-2" x="-2.84217094e-14" y="18" width="49" height="4"></rect>
                            <rect id="Rectangle-2" x="2.84217094e-14" y="27" width="49" height="4"></rect>
                            <rect id="Rectangle-2" x="2.84217094e-14" y="36" width="49" height="4"></rect>
                            <rect id="Rectangle-2" x="-4.26325641e-14" y="45" width="49" height="4"></rect>
                        </g>
                        <g id="Group-6" transform="translate(0.000000, 162.000000)" fill="#00769A">
                            <rect id="Rectangle-2" x="2.84217094e-14" y="5.68434189e-14" width="49" height="4"></rect>
                            <rect id="Rectangle-2" x="8.52651283e-14" y="9" width="49" height="4"></rect>
                            <rect id="Rectangle-2" x="2.84217094e-14" y="18" width="49" height="4"></rect>
                            <rect id="Rectangle-2" x="8.52651283e-14" y="27" width="49" height="4"></rect>
                            <rect id="Rectangle-2" x="2.84217094e-14" y="36" width="49" height="4"></rect>
                            <rect id="Rectangle-2" x="2.84217094e-14" y="45" width="49" height="4"></rect>
                        </g>
                        <g id="Group-6" transform="translate(108.000000, 162.000000)" fill="#00769A">
                            <rect id="Rectangle-2" x="2.84217094e-14" y="8.52651283e-14" width="49" height="4"></rect>
                            <rect id="Rectangle-2" x="2.84217094e-14" y="9" width="49" height="4"></rect>
                            <rect id="Rectangle-2" x="2.84217094e-14" y="18" width="49" height="4"></rect>
                            <rect id="Rectangle-2" x="2.84217094e-14" y="27" width="49" height="4"></rect>
                            <rect id="Rectangle-2" x="2.84217094e-14" y="36" width="49" height="4"></rect>
                            <rect id="Rectangle-2" x="2.84217094e-14" y="45" width="49" height="4"></rect>
                        </g>
                        <g id="Group-6" transform="translate(54.000000, 0.000000)" fill="#00769A">
                            <rect id="Rectangle-2" x="8.52651283e-14" y="1.13686838e-13" width="49" height="4"></rect>
                            <rect id="Rectangle-2" x="8.52651283e-14" y="9" width="49" height="4"></rect>
                            <rect id="Rectangle-2" x="8.52651283e-14" y="18" width="49" height="4"></rect>
                            <rect id="Rectangle-2" x="8.52651283e-14" y="27" width="49" height="4"></rect>
                            <rect id="Rectangle-2" x="1.42108547e-13" y="36" width="49" height="4"></rect>
                            <rect id="Rectangle-2" x="8.52651283e-14" y="45" width="49" height="4"></rect>
                        </g>
                        <g id="Group-6" transform="translate(132.500000, 24.500000) rotate(90.000000) translate(-132.500000, -24.500000) translate(108.000000, 0.000000)" fill="#00769A">
                            <rect id="Rectangle-2" x="5.62923278e-14" y="9" width="49" height="4"></rect>
                            <rect id="Rectangle-2" x="-1.10218212e-15" y="18" width="49" height="4"></rect>
                            <rect id="Rectangle-2" x="-1.65327318e-15" y="27" width="49" height="4"></rect>
                            <rect id="Rectangle-2" x="5.46390546e-14" y="36" width="49" height="4"></rect>
                            <rect id="Rectangle-2" x="-5.95988742e-14" y="45" width="49" height="4"></rect>
                        </g>
                        <g id="Group-6" transform="translate(108.000000, 54.000000)" fill="#00769A">
                            <rect id="Rectangle-2" x="8.52651283e-14" y="0" width="49" height="4"></rect>
                            <rect id="Rectangle-2" x="2.84217094e-14" y="9" width="49" height="4"></rect>
                            <rect id="Rectangle-2" x="2.84217094e-14" y="18" width="49" height="4"></rect>
                            <rect id="Rectangle-2" x="2.84217094e-14" y="27" width="49" height="4"></rect>
                            <rect id="Rectangle-2" x="8.52651283e-14" y="36" width="49" height="4"></rect>
                            <rect id="Rectangle-2" x="2.84217094e-14" y="45" width="49" height="4"></rect>
                        </g>
                    </g>
                    <g transform="translate(324.000000, 108.000000)">
                        <g id="Group-6" transform="translate(24.500000, 24.500000) rotate(90.000000) translate(-24.500000, -24.500000) translate(-0.000000, 0.000000)" fill="#00769A">
                            <rect id="Rectangle-2" x="5.40879636e-14" y="45" width="49" height="4"></rect>
                        </g>
                        <g id="Group-6" transform="translate(-0.000000, 54.000000)" fill="#00769A">
                            <rect id="Rectangle-2" x="0" y="0" width="49" height="4"></rect>
                            <rect id="Rectangle-2" x="-1.13686838e-13" y="9" width="49" height="4"></rect>
                            <rect id="Rectangle-2" x="0" y="18" width="49" height="4"></rect>
                            <rect id="Rectangle-2" x="-1.13686838e-13" y="27" width="49" height="4"></rect>
                            <rect id="Rectangle-2" x="0" y="36" width="49" height="4"></rect>
                            <rect id="Rectangle-2" x="-1.13686838e-13" y="45" width="49" height="4"></rect>
                        </g>
                        <g id="Group-6" transform="translate(78.500000, 78.500000) rotate(90.000000) translate(-78.500000, -78.500000) translate(54.000000, 54.000000)" fill="#00769A">
                            <rect id="Rectangle-2" x="5.68434189e-14" y="-1.13686838e-13" width="49" height="4"></rect>
                            <rect id="Rectangle-2" x="-5.68434189e-14" y="9" width="49" height="4"></rect>
                            <rect id="Rectangle-2" x="0" y="18" width="49" height="4"></rect>
                            <rect id="Rectangle-2" x="0" y="27" width="49" height="4"></rect>
                            <rect id="Rectangle-2" x="5.68434189e-14" y="36" width="49" height="4"></rect>
                            <rect id="Rectangle-2" x="4.97379915e-14" y="45" width="49" height="4"></rect>
                        </g>
                    </g>
                    <g transform="translate(162.000000, 270.000000)">
                        <g id="Group-6" transform="translate(132.500000, 132.500000) rotate(90.000000) translate(-132.500000, -132.500000) translate(108.000000, 108.000000)" fill="#00769A">
                            <rect id="Rectangle-2" x="5.68434189e-14" y="1.42108547e-13" width="49" height="4"></rect>
                            <rect id="Rectangle-2" x="5.68434189e-14" y="9" width="49" height="4"></rect>
                            <rect id="Rectangle-2" x="0" y="18" width="49" height="4"></rect>
                            <rect id="Rectangle-2" x="5.68434189e-14" y="27" width="49" height="4"></rect>
                            <rect id="Rectangle-2" x="5.68434189e-14" y="36" width="49" height="4"></rect>
                            <rect id="Rectangle-2" x="4.26325641e-14" y="45" width="49" height="4"></rect>
                        </g>
                        <g id="Group-6" transform="translate(78.500000, 186.500000) rotate(90.000000) translate(-78.500000, -186.500000) translate(54.000000, 162.000000)" fill="#00769A">
                            <rect id="Rectangle-2" x="0" y="1.42108547e-13" width="49" height="4"></rect>
                            <rect id="Rectangle-2" x="0" y="9" width="49" height="4"></rect>
                            <rect id="Rectangle-2" x="5.68434189e-14" y="18" width="49" height="4"></rect>
                            <rect id="Rectangle-2" x="5.68434189e-14" y="27" width="49" height="4"></rect>
                            <rect id="Rectangle-2" x="1.13686838e-13" y="36" width="49" height="4"></rect>
                            <rect id="Rectangle-2" x="1.13686838e-13" y="45" width="49" height="4"></rect>
                        </g>
                        <g id="Group-6" transform="translate(54.000000, 0.000000)" fill="#00769A">
                            <rect id="Rectangle-2" x="1.13686838e-13" y="5.68434189e-14" width="49" height="4"></rect>
                            <rect id="Rectangle-2" x="1.13686838e-13" y="9" width="49" height="4"></rect>
                            <rect id="Rectangle-2" x="1.13686838e-13" y="18" width="49" height="4"></rect>
                            <rect id="Rectangle-2" x="1.13686838e-13" y="27" width="49" height="4"></rect>
                            <rect id="Rectangle-2" x="1.13686838e-13" y="36" width="49" height="4"></rect>
                            <rect id="Rectangle-2" x="1.13686838e-13" y="45" width="49" height="4"></rect>
                        </g>
                        <g id="Group-6" transform="translate(132.500000, 24.500000) rotate(90.000000) translate(-132.500000, -24.500000) translate(108.000000, 0.000000)" fill="#00769A">
                            <rect id="Rectangle-2" x="0" y="2.84217094e-14" width="49" height="4"></rect>
                            <rect id="Rectangle-2" x="-5.5109106e-16" y="9" width="49" height="4"></rect>
                            <rect id="Rectangle-2" x="5.57412367e-14" y="18" width="49" height="4"></rect>
                            <rect id="Rectangle-2" x="-1.65327318e-15" y="27" width="49" height="4"></rect>
                            <rect id="Rectangle-2" x="-2.20436424e-15" y="36" width="49" height="4"></rect>
                            <rect id="Rectangle-2" x="-2.7554553e-15" y="45" width="49" height="4"></rect>
                        </g>
                        <g id="Group-6" transform="translate(24.500000, 24.500000) rotate(90.000000) translate(-24.500000, -24.500000) translate(0.000000, 0.000000)" fill="#00769A">
                            <rect id="Rectangle-2" x="5.68434189e-14" y="0" width="49" height="4"></rect>
                            <rect id="Rectangle-2" x="1.13135747e-13" y="9" width="49" height="4"></rect>
                            <rect id="Rectangle-2" x="1.69428074e-13" y="18" width="49" height="4"></rect>
                            <rect id="Rectangle-2" x="5.51901457e-14" y="27" width="49" height="4"></rect>
                            <rect id="Rectangle-2" x="5.46390546e-14" y="36" width="49" height="4"></rect>
                            <rect id="Rectangle-2" x="-2.7554553e-15" y="45" width="49" height="4"></rect>
                        </g>
                        <g id="Group-6" transform="translate(0.000000, 54.000000)" fill="#00769A">
                            <rect id="Rectangle-2" x="5.68434189e-14" y="1.13686838e-13" width="49" height="4"></rect>
                            <rect id="Rectangle-2" x="1.13686838e-13" y="9" width="49" height="4"></rect>
                            <rect id="Rectangle-2" x="5.68434189e-14" y="18" width="49" height="4"></rect>
                            <rect id="Rectangle-2" x="1.13686838e-13" y="27" width="49" height="4"></rect>
                            <rect id="Rectangle-2" x="5.68434189e-14" y="36" width="49" height="4"></rect>
                            <rect id="Rectangle-2" x="1.13686838e-13" y="45" width="49" height="4"></rect>
                        </g>
                        <g id="Group-6" transform="translate(108.000000, 54.000000)" fill="#00769A">
                            <rect id="Rectangle-2" x="8.52651283e-14" y="1.13686838e-13" width="49" height="4"></rect>
                            <rect id="Rectangle-2" x="8.52651283e-14" y="9" width="49" height="4"></rect>
                            <rect id="Rectangle-2" x="8.52651283e-14" y="18" width="49" height="4"></rect>
                            <rect id="Rectangle-2" x="8.52651283e-14" y="27" width="49" height="4"></rect>
                            <rect id="Rectangle-2" x="8.52651283e-14" y="36" width="49" height="4"></rect>
                            <rect id="Rectangle-2" x="8.52651283e-14" y="45" width="49" height="4"></rect>
                        </g>
                        <g id="Group-6" transform="translate(78.500000, 78.500000) rotate(90.000000) translate(-78.500000, -78.500000) translate(54.000000, 54.000000)" fill="#00769A">
                            <rect id="Rectangle-2" x="1.70530257e-13" y="2.84217094e-14" width="49" height="4"></rect>
                            <rect id="Rectangle-2" x="2.27373675e-13" y="9" width="49" height="4"></rect>
                            <rect id="Rectangle-2" x="1.70530257e-13" y="18" width="49" height="4"></rect>
                            <rect id="Rectangle-2" x="1.13686838e-13" y="27" width="49" height="4"></rect>
                            <rect id="Rectangle-2" x="1.13686838e-13" y="36" width="49" height="4"></rect>
                            <rect id="Rectangle-2" x="-7.10542736e-15" y="45" width="49" height="4"></rect>
                        </g>
                    </g>
                </g>
            </g>
        </g>
    </g>
</svg>