<?xml version="1.0" encoding="UTF-8"?>
<svg width="200px" height="199px" viewBox="0 0 200 199" version="1.1" xmlns="http://www.w3.org/2000/svg" xmlns:xlink="http://www.w3.org/1999/xlink">
    <!-- Generator: Sketch 43.1 (39012) - http://www.bohemiancoding.com/sketch -->
    <title>marerial-paper-720</title>
    <desc>Created with Sketch.</desc>
    <defs></defs>
    <g id="Page-1" stroke="none" stroke-width="1" fill="none" fill-rule="evenodd" opacity="0.300000012">
        <g id="marerial-paper-720" fill-rule="nonzero" fill="#00769A">
            <g id="ryrtytreeРесурс-4" transform="translate(29.065744, 49.231196)">
                <polygon id="Shape" points="170.703576 75.1308924 157.785467 87.0046978 156.438293 99.93108 166.920415 92.2860482 170.611303 75.1308924 170.611303 75.1308924"></polygon>
                <polygon id="Shape" points="127.963091 50.3307048 140.862745 38.4568994 142.209919 25.512051 131.746251 33.1386165"></polygon>
                <polygon id="Shape" points="170.703576 25.512051 170.703576 25.512051 170.703576 25.512051 170.703576 25.512051 157.803922 37.3858563 156.456747 50.3307048 166.93887 42.685673 170.703576 25.512051 170.703576 25.512051 170.703576 25.512051"></polygon>
                <polygon id="Shape" points="157.803922 63.2755533 170.703576 75.1308924 166.93887 57.9572703 156.456747 50.3307048"></polygon>
                <polygon id="Shape" points="142.209919 75.1308924 154.039216 80.4307091 170.703576 75.1308924 154.039216 69.8310757"></polygon>
                <polygon id="Shape" points="157.803922 13.3509602 170.703576 25.2062993 166.93887 8.03267725 156.456747 0.406111748"></polygon>
                <polygon id="Shape" points="142.209919 25.2062993 154.039216 30.506116 170.703576 25.2062993 154.039216 19.9064826"></polygon>
                <polygon id="Shape" points="127.963091 50.3307048 127.963091 50.3307048 127.963091 50.3307048 127.963091 50.3307048 127.963091 50.3307048 131.727797 67.5043269 142.209919 75.1308924 140.862745 62.1860439"></polygon>
                <polygon id="Shape" points="127.963091 50.3307048 127.963091 50.3307048 127.963091 50.3307048 144.645905 55.6305215 156.456747 50.3307048 144.645905 45.0124218"></polygon>
                <polygon id="Shape" points="142.209919 124.7682 131.746251 132.413232 127.963091 149.586854 127.963091 149.586854 127.963091 149.586854 140.862745 137.713049"></polygon>
                <polygon id="Shape" points="157.803922 112.894395 170.703576 124.7682 154.020761 119.468383 142.209919 124.7682 154.020761 130.068017 170.703576 124.7682 170.703576 124.7682 170.703576 124.7682 170.703576 124.7682 170.703576 124.7682 166.93887 107.594578 156.456747 99.9495462"></polygon>
                <polygon id="Shape" points="170.703576 124.7682 157.803922 136.642005 156.456747 149.586854 166.93887 141.941822 170.703576 124.786666 170.703576 124.7682 170.703576 124.7682"></polygon>
                <polygon id="Shape" points="156.456747 149.586854 144.645905 144.287037 127.963091 149.586854"></polygon>
                <polygon id="Shape" points="127.963091 50.3307048 111.298731 45.0124218 99.4878893 50.3307048 111.298731 55.6305215 127.963091 50.3307048 127.963091 50.3307048 127.963091 50.3122386 127.963091 50.3307048 124.198385 33.1386165 113.716263 25.512051 115.063437 38.4568994"></polygon>
                <polygon id="Shape" points="56.7474048 25.512051 46.2652826 33.1386165 42.5005767 50.3307048 55.4002307 38.4568994"></polygon>
                <polygon id="Shape" points="56.7474048 75.1308924 46.2652826 82.7759242 42.5005767 99.9495462 55.4002307 88.0942071"></polygon>
                <polygon id="Shape" points="113.716263 75.1308924 124.198385 67.5043269 127.963091 50.3307048 127.963091 50.3307048 127.963091 50.3307048 115.063437 62.1860439"></polygon>
                <polygon id="Shape" points="70.994233 50.3307048 72.3414072 63.2755533 85.2410611 75.1308924 81.4579008 57.9757366"></polygon>
                <polygon id="Shape" points="85.2410611 75.1308924 68.5582468 69.8310757 56.7474048 75.1308924 68.5582468 80.4307091"></polygon>
                <polygon id="Shape" points="70.994233 99.9495462 81.4579008 92.3045145 85.2410611 75.1493587 89.005767 92.3045145 99.4878893 99.9495462 98.1407151 87.0046978 85.2410611 75.1308924 101.905421 80.4491754 113.716263 75.1308924 101.905421 69.8310757 85.2410611 75.1308924 85.2410611 75.1308924 85.2410611 75.1308924 85.2410611 75.1308924 85.2410611 75.1493587 85.2410611 75.1308924 72.3414072 87.0046978"></polygon>
                <polygon id="Shape" points="85.2410611 75.1308924 98.1407151 63.2755533 99.4878893 50.3307048 89.005767 57.9572703"></polygon>
                <polygon id="Shape" points="42.5005767 50.3307048 59.1649366 55.6305215 70.994233 50.3307048 59.1649366 45.0124218 42.5005767 50.3307048 42.5005767 50.3307048 42.5005767 50.3307048 46.2652826 67.5043269 56.7474048 75.1308924 55.4002307 62.1860439"></polygon>
                <polygon id="Shape" points="127.963091 149.586854 124.198385 132.413232 113.716263 124.7682 115.063437 137.713049"></polygon>
                <polygon id="Shape" points="81.4579008 107.594578 70.994233 99.9495462 72.3414072 112.894395 85.2410611 124.7682 68.5582468 119.468383 56.7474048 124.7682 68.5582468 130.068017 85.2410611 124.7682 85.2226067 124.7682 85.2410611 124.7682 85.2410611 124.7682 85.2410611 124.7682"></polygon>
                <polygon id="Shape" points="85.2410611 124.7682 89.005767 141.941822 99.4878893 149.586854 98.1407151 136.642005 85.2410611 124.7682 85.2410611 124.7682 72.3414072 136.642005 70.994233 149.586854 81.4579008 141.941822"></polygon>
                <polygon id="Shape" points="85.2410611 124.7682 85.2410611 124.7682 85.2410611 124.7682 101.905421 130.068017 113.734717 124.7682 101.905421 119.468383"></polygon>
                <polygon id="Shape" points="98.1407151 112.894395 99.4878893 99.9495462 89.005767 107.594578 85.2410611 124.7682 85.2410611 124.7682 85.2410611 124.7682 85.2410611 124.7682"></polygon>
                <polygon id="Shape" points="70.994233 99.9495462 59.1649366 94.6497295 42.5005767 99.9495462 59.1649366 105.267829"></polygon>
                <polygon id="Shape" points="127.963091 149.586854 111.298731 144.287037 99.4878893 149.586854"></polygon>
                <polygon id="Shape" points="28.2537486 25.512051 29.6009227 38.4568994 42.5005767 50.3307048 42.5005767 50.3122386 42.5005767 50.3307048 38.7358708 33.1386165"></polygon>
                <polygon id="Shape" points="28.2537486 75.1308924 29.6009227 88.0942071 42.5005767 99.9495462 38.7358708 82.7759242"></polygon>
                <polygon id="Shape" points="42.5005767 99.9495462 25.8362168 94.6497295 14.0069204 99.9495462 25.8362168 105.267829"></polygon>
                <polygon id="Shape" points="42.5005767 50.3307048 42.5005767 50.3307048 42.5005767 50.3307048 25.8362168 45.0124218 14.0069204 50.3307048 25.8362168 55.6305215"></polygon>
                <polygon id="Shape" points="42.5005767 50.3307048 29.6009227 62.1860439 28.2537486 75.1308924 38.7358708 67.5043269 42.5005767 50.3307048 42.5005767 50.3307048"></polygon>
                <polygon id="Shape" points="42.5005767 99.9680125 46.2652826 117.123168 56.7474048 124.7682 55.4002307 111.823352 42.5005767 99.9495462 42.5005767 99.9680125 42.5005767 99.9495462 42.5005767 99.9495462 42.5005767 99.9495462 42.5005767 99.9680125 42.5005767 99.9495462 29.6009227 111.823352 28.2537486 124.7682 38.7358708 117.123168"></polygon>
                <polygon id="Shape" points="0 125.857709 3.5432526 141.941822 14.0069204 149.586854 12.6597463 136.642005 0 124.989795"></polygon>
                <polygon id="Shape" points="0 124.694335 0 124.842065 16.4429066 130.068017 28.2537486 124.7682 16.4429066 119.468383"></polygon>
                <polygon id="Shape" points="3.5432526 107.594578 0 123.697157 0 124.546605 12.6597463 112.894395 14.0069204 99.9495462"></polygon>
            </g>
            <g id="ryrtytreeРесурс-4" transform="translate(0.000000, 149.080382)">
                <polygon id="Shape" points="15.9354095 13.0452086 28.8350634 24.919014 12.1522491 19.6191972 0.341407151 24.919014 12.1522491 30.2188307 28.8350634 24.919014 28.8350634 24.919014 28.8350634 24.919014 28.8350634 24.919014 28.8350634 24.919014 25.0703576 7.74539187 14.5882353 0.10036011"></polygon>
                <polygon id="Shape" points="28.8350634 24.919014 15.9354095 36.7928193 14.5882353 49.7376678 25.0703576 42.092636 28.8350634 24.9374802 28.8350634 24.919014 28.8350634 24.919014"></polygon>
            </g>
            <g id="ryrtytreeРесурс-4" transform="translate(128.027682, 0.000000)">
                <polygon id="Shape" points="43.2479815 24.919014 32.7843137 32.5640457 29.0011534 49.7376678 29.0011534 49.7376678 29.0011534 49.7376678 41.9008074 37.8638624"></polygon>
                <polygon id="Shape" points="58.8419839 13.0452086 71.7416378 24.919014 55.0588235 19.6191972 43.2479815 24.919014 55.0588235 30.2188307 71.7416378 24.919014 71.7416378 24.919014 71.7416378 24.919014 71.7416378 24.919014 71.7416378 24.919014 67.9769319 7.74539187 57.4948097 0.10036011"></polygon>
                <polygon id="Shape" points="71.7416378 24.919014 58.8419839 36.7928193 57.4948097 49.7376678 67.9769319 42.092636 71.7416378 24.9374802 71.7416378 24.919014 71.7416378 24.919014"></polygon>
                <polygon id="Shape" points="29.0011534 49.7376678 29.0011534 49.7376678 29.0011534 49.7376678 29.0011534 49.7376678 29.0011534 49.7376678 16.1014994 61.6114732 14.7543253 74.5563216 25.2364475 66.9112899 29.0011534 49.7376678 32.7658593 66.9112899 43.2479815 74.5563216 41.9008074 61.6114732 29.0011534 49.7376678 45.6839677 55.0374845 57.4948097 49.7376678 45.6839677 44.4378511"></polygon>
                <polygon id="Shape" points="29.0011534 49.7376678 25.2364475 32.5640457 14.7543253 24.919014 16.1014994 37.8638624"></polygon>
                <polygon id="Shape" points="0.525951557 49.7376678 12.3367935 55.0374845 29.0011534 49.7376678 12.3367935 44.4378511"></polygon>
            </g>
        </g>
    </g>
</svg>