<?xml version="1.0" encoding="UTF-8"?>
<svg width="219px" height="92px" viewBox="0 0 219 92" version="1.1" xmlns="http://www.w3.org/2000/svg" xmlns:xlink="http://www.w3.org/1999/xlink">
    <!-- Generator: Sketch 43.1 (39012) - http://www.bohemiancoding.com/sketch -->
    <title>material-cards</title>
    <desc>Created with Sketch.</desc>
    <defs></defs>
    <g id="Page-1" stroke="none" stroke-width="1" fill="none" fill-rule="evenodd">
        <g id="material-cards" fill-rule="nonzero" fill="#790000">
            <path d="M79.8198419,3.20023639 C79.8198419,9.98160277 74.3123728,15.4789864 67.5185653,15.4789864 L67.5185653,20.1273703 C60.7085822,20.1273703 55.188,25.637843 55.188,32.4353554 C55.188,39.2328679 60.7085822,44.7433406 67.5185653,44.7433406 L67.5185653,49.3917245 C74.3123728,49.3917245 79.8198419,54.8891081 79.8198419,61.6704745 C79.8198419,68.4518409 74.3123728,73.9492245 67.5185653,73.9492245 L67.5185653,78.5976084 C62.9752177,78.3763876 58.6788555,80.669906 56.3407801,84.564623 C55.1270703,86.5863953 54.543405,89.0163191 54.589784,91.2891156 C64.4240809,91.2690712 100.073128,91.3252702 109.88471,91.2891156 C109.867423,89.1325411 109.283036,87.0089798 108.131548,85.0908552 C105.793473,81.1961381 101.497111,78.9026197 96.9537629,79.1238406 L96.9537629,74.4754566 C90.1599555,74.4754566 84.6524863,68.978073 84.6524863,62.1967066 C84.6524863,55.4153403 90.1599555,49.9179566 96.9537629,49.9179566 L96.9537629,45.2695727 C103.763746,45.2695727 109.284328,39.7591001 109.284328,32.9615876 C109.284328,26.1640751 103.763746,20.6536025 96.9537629,20.6536025 L96.9537629,16.0052185 C90.1599555,16.0052185 84.6524863,9.98482084 84.6524863,3.20345447 C84.6524863,-0.122106467 79.8198419,-0.255569045 79.8198419,3.20023639 Z M94.0248875,81.6380608 L96.9537629,81.6380608 C100.475185,81.4428599 103.816113,83.2071301 105.635714,86.2228071 C106.566177,87.7648892 107.020843,89.5535679 106.999711,91.2891156 C99.4990016,91.2888052 70.2035346,91.2982432 57.0916737,91.2891156 C57.0736652,89.5591303 57.528394,87.7599231 58.4558601,86.2228071 C60.2754613,83.2071301 63.6163896,81.4428599 67.1378116,81.6380608 L70.0666869,81.6380608 L70.0666869,76.6973257 C76.0260337,75.446477 80.6472859,70.7414316 81.7821884,64.7693971 L82.309386,64.7693971 C83.4442886,70.7414316 88.0655408,75.446477 94.0248875,76.6973257 L94.0248875,81.6380608 Z M94.0248875,23.2555281 L96.9537629,23.2555281 C100.475185,23.0603271 103.816113,24.8245974 105.635714,27.8402744 C107.455316,30.8559514 107.455316,34.628697 105.635714,37.644374 C103.816113,40.660051 100.475185,42.4243213 96.9537629,42.2291203 L94.0248875,42.2291203 L94.0248875,47.1698554 C88.0655408,48.4207041 83.4442886,53.1257495 82.309386,59.097784 L81.7821884,59.097784 C80.6472859,53.1257495 76.0260337,48.4207041 70.0666869,47.1698554 L70.0666869,42.1998852 L67.1378116,42.1998852 C63.6163896,42.3950862 60.2754613,40.6308159 58.4558601,37.6151389 C56.6362589,34.5994618 56.6362589,30.8267163 58.4558601,27.8110393 C60.2754613,24.7953623 63.6163896,23.031092 67.1378116,23.2262929 L70.0666869,23.2262929 L70.0666869,18.1978525 C76.0260337,16.9470038 80.6472859,12.2419584 81.7821884,6.26992389 L82.309386,6.26992389 C83.4442886,12.2419584 88.0655408,16.9470038 94.0248875,18.1978525 L94.0248875,23.2555281 Z" id="Shape"></path>
            <path d="M134.091903,3.20023639 C134.091903,9.98160277 128.584434,15.4789864 121.790626,15.4789864 L121.790626,20.1273703 C114.980643,20.1273703 109.460061,25.637843 109.460061,32.4353554 C109.460061,39.2328679 114.980643,44.7433406 121.790626,44.7433406 L121.790626,49.3917245 C128.584434,49.3917245 134.091903,54.8891081 134.091903,61.6704745 C134.091903,68.4518409 128.584434,73.9492245 121.790626,73.9492245 L121.790626,78.5976084 C117.247278,78.3763876 112.950916,80.669906 110.612841,84.564623 C109.36959,86.6356044 108.787427,88.9616619 108.866351,91.2891156 C129.287341,91.3150183 152.815319,91.3035533 164.18638,91.2891156 C164.194018,89.0854158 163.609524,87.0508549 162.432898,85.0908552 C160.094822,81.1961381 155.79846,78.9026197 151.255112,79.1238406 L151.255112,74.4754566 C144.461305,74.4754566 138.953836,68.978073 138.953836,62.1967066 C138.953836,55.4153403 144.461305,49.9179566 151.255112,49.9179566 L151.255112,45.2695727 C158.065096,45.2695727 163.585678,39.7591001 163.585678,32.9615876 C163.585678,26.1640751 158.065096,20.6536025 151.255112,20.6536025 L151.255112,16.0052185 C144.461305,16.0052185 138.953836,9.98482084 138.953836,3.20345447 C138.953836,-0.318621528 134.091903,-0.0590539843 134.091903,3.20023639 Z M148.326237,81.6380608 L151.255112,81.6380608 C154.776534,81.4428599 158.117463,83.2071301 159.937064,86.2228071 C160.859773,87.752039 161.314582,89.56797 161.30149,91.2891156 C155.415205,91.3139434 121.066613,91.3049864 111.393609,91.2891156 C111.367037,89.5439689 111.821571,87.7734685 112.75721,86.2228071 C114.576811,83.2071301 117.917739,81.4428599 121.439161,81.6380608 L124.368036,81.6380608 L124.368036,76.6973257 C130.323433,75.4392869 134.941355,70.7376318 136.083538,64.7693971 L136.610736,64.7693971 C137.745638,70.7414316 142.36689,75.446477 148.326237,76.6973257 L148.326237,81.6380608 Z M148.326237,23.2555281 L151.255112,23.2555281 C154.776534,23.0603271 158.117463,24.8245974 159.937064,27.8402744 C161.756665,30.8559514 161.756665,34.628697 159.937064,37.644374 C158.117463,40.660051 154.776534,42.4243213 151.255112,42.2291203 L148.326237,42.2291203 L148.326237,47.1698554 C142.36689,48.4207041 137.745638,53.1257495 136.610736,59.097784 L136.083538,59.097784 C134.941355,53.1295493 130.323433,48.4278942 124.368036,47.1698554 L124.368036,42.1998852 L121.439161,42.1998852 C117.917739,42.3950862 114.576811,40.6308159 112.75721,37.6151389 C110.937608,34.5994618 110.937608,30.8267163 112.75721,27.8110393 C114.576811,24.7953623 117.917739,23.031092 121.439161,23.2262929 L124.368036,23.2262929 L124.368036,18.1978525 C130.323433,16.9398137 134.941355,12.2381586 136.083538,6.26992389 L136.610736,6.26992389 C137.745638,12.2419584 142.36689,16.9470038 148.326237,18.1978525 L148.326237,23.2555281 Z" id="Shape"></path>
            <path d="M188.091903,3.20023639 C188.091903,9.98160277 182.584434,15.4789864 175.790626,15.4789864 L175.790626,20.1273703 C168.980643,20.1273703 163.460061,25.637843 163.460061,32.4353554 C163.460061,39.2328679 168.980643,44.7433406 175.790626,44.7433406 L175.790626,49.3917245 C182.584434,49.3917245 188.091903,54.8891081 188.091903,61.6704745 C188.091903,68.4518409 182.584434,73.9492245 175.790626,73.9492245 L175.790626,78.5976084 C171.247278,78.3763876 166.950916,80.669906 164.612841,84.564623 C163.36959,86.6356044 162.787427,88.9616619 162.866351,91.2891156 C183.287341,91.3150183 206.815319,91.3035533 218.18638,91.2891156 C218.194018,89.0854158 217.609524,87.0508549 216.432898,85.0908552 C214.094822,81.1961381 209.79846,78.9026197 205.255112,79.1238406 L205.255112,74.4754566 C198.461305,74.4754566 192.953836,68.978073 192.953836,62.1967066 C192.953836,55.4153403 198.461305,49.9179566 205.255112,49.9179566 L205.255112,45.2695727 C212.065096,45.2695727 217.585678,39.7591001 217.585678,32.9615876 C217.585678,26.1640751 212.065096,20.6536025 205.255112,20.6536025 L205.255112,16.0052185 C198.461305,16.0052185 192.953836,9.98482084 192.953836,3.20345447 C192.953836,-0.318621528 188.091903,-0.0590539843 188.091903,3.20023639 Z M202.326237,81.6380608 L205.255112,81.6380608 C208.776534,81.4428599 212.117463,83.2071301 213.937064,86.2228071 C214.859773,87.752039 215.314582,89.56797 215.30149,91.2891156 C209.415205,91.3139434 175.066613,91.3049864 165.393609,91.2891156 C165.367037,89.5439689 165.821571,87.7734685 166.75721,86.2228071 C168.576811,83.2071301 171.917739,81.4428599 175.439161,81.6380608 L178.368036,81.6380608 L178.368036,76.6973257 C184.323433,75.4392869 188.941355,70.7376318 190.083538,64.7693971 L190.610736,64.7693971 C191.745638,70.7414316 196.36689,75.446477 202.326237,76.6973257 L202.326237,81.6380608 Z M202.326237,23.2555281 L205.255112,23.2555281 C208.776534,23.0603271 212.117463,24.8245974 213.937064,27.8402744 C215.756665,30.8559514 215.756665,34.628697 213.937064,37.644374 C212.117463,40.660051 208.776534,42.4243213 205.255112,42.2291203 L202.326237,42.2291203 L202.326237,47.1698554 C196.36689,48.4207041 191.745638,53.1257495 190.610736,59.097784 L190.083538,59.097784 C188.941355,53.1295493 184.323433,48.4278942 178.368036,47.1698554 L178.368036,42.1998852 L175.439161,42.1998852 C171.917739,42.3950862 168.576811,40.6308159 166.75721,37.6151389 C164.937608,34.5994618 164.937608,30.8267163 166.75721,27.8110393 C168.576811,24.7953623 171.917739,23.031092 175.439161,23.2262929 L178.368036,23.2262929 L178.368036,18.1978525 C184.323433,16.9398137 188.941355,12.2381586 190.083538,6.26992389 L190.610736,6.26992389 C191.745638,12.2419584 196.36689,16.9470038 202.326237,18.1978525 L202.326237,23.2555281 Z" id="Shape"></path>
            <path d="M25.5477812,61.6704745 C25.5477812,68.4518409 20.040312,73.9492245 13.2465046,73.9492245 L13.2465046,78.5976084 C8.70315687,78.3763876 4.40679473,80.669906 2.06871927,84.564623 C0.819004739,86.6463713 0.237269681,88.9497512 0.3235141,91.2891156 C6.60594341,91.3003882 40.5167348,91.3261282 55.6423147,91.2891156 C55.6460736,89.0926035 55.0615607,87.0444551 53.8887762,85.0908552 C51.5507007,81.1961381 47.2543386,78.9026197 42.7109909,79.1238406 L42.7109909,74.4754566 C35.9171834,74.4754566 30.4097143,68.978073 30.4097143,62.1967066 C30.4097143,58.7974776 25.5477812,58.2883372 25.5477812,61.6704745 Z M39.7821155,76.6096203 L39.7821155,81.6380608 L42.7109909,81.6380608 C46.2324128,81.4428599 49.5733411,83.2071301 51.3929424,86.2228071 C52.3470762,87.8041204 52.8008964,89.5097838 52.7544028,91.2891156 C37.9837988,91.3166902 24.6132606,91.2935242 2.85304764,91.2891156 C2.79677336,89.493518 3.25012016,87.8187613 4.21308804,86.2228071 C6.03268926,83.2071301 9.37361756,81.4428599 12.8950395,81.6380608 L15.8239149,81.6380608 L15.8239149,76.6973257 C21.7793115,75.4392869 26.3972338,70.7376318 27.5394164,64.7693971 L28.066614,64.7693971 C29.2087965,70.7376318 33.8267189,75.4392869 39.7821155,76.6973257" id="Shape"></path>
        </g>
    </g>
</svg>