<?xml version="1.0" encoding="UTF-8"?>
<svg width="289px" height="287px" viewBox="0 0 289 287" version="1.1" xmlns="http://www.w3.org/2000/svg" xmlns:xlink="http://www.w3.org/1999/xlink">
    <!-- Generator: Sketch 43.1 (39012) - http://www.bohemiancoding.com/sketch -->
    <title>marerial-paper</title>
    <desc>Created with Sketch.</desc>
    <defs></defs>
    <g id="Page-1" stroke="none" stroke-width="1" fill="none" fill-rule="evenodd">
        <g id="marerial-paper" fill-rule="nonzero" fill="#00769A">
            <g id="ryrtytreeРесурс-4" transform="translate(42.000000, 71.000000)">
                <polygon id="Shape" points="246.666667 108.351895 228 125.476 226.053333 144.118105 241.2 133.092632 246.533333 108.351895 246.533333 108.351895"></polygon>
                <polygon id="Shape" points="184.906667 72.5856842 203.546667 55.4615789 205.493333 36.7928421 190.373333 47.7916842"></polygon>
                <polygon id="Shape" points="246.666667 36.7928421 246.666667 36.7928421 246.666667 36.7928421 246.666667 36.7928421 228.026667 53.9169474 226.08 72.5856842 241.226667 61.5602105 246.666667 36.7928421 246.666667 36.7928421 246.666667 36.7928421"></polygon>
                <polygon id="Shape" points="228.026667 91.2544211 246.666667 108.351895 241.226667 83.5845263 226.08 72.5856842"></polygon>
                <polygon id="Shape" points="205.493333 108.351895 222.586667 115.995158 246.666667 108.351895 222.586667 100.708632"></polygon>
                <polygon id="Shape" points="228.026667 19.2544211 246.666667 36.3518947 241.226667 11.5845263 226.08 0.585684211"></polygon>
                <polygon id="Shape" points="205.493333 36.3518947 222.586667 43.9951579 246.666667 36.3518947 222.586667 28.7086316"></polygon>
                <polygon id="Shape" points="184.906667 72.5856842 184.906667 72.5856842 184.906667 72.5856842 184.906667 72.5856842 184.906667 72.5856842 190.346667 97.3530526 205.493333 108.351895 203.546667 89.6831579"></polygon>
                <polygon id="Shape" points="184.906667 72.5856842 184.906667 72.5856842 184.906667 72.5856842 209.013333 80.2289474 226.08 72.5856842 209.013333 64.9157895"></polygon>
                <polygon id="Shape" points="205.493333 179.937579 190.373333 190.963053 184.906667 215.730421 184.906667 215.730421 184.906667 215.730421 203.546667 198.606316"></polygon>
                <polygon id="Shape" points="228.026667 162.813474 246.666667 179.937579 222.56 172.294316 205.493333 179.937579 222.56 187.580842 246.666667 179.937579 246.666667 179.937579 246.666667 179.937579 246.666667 179.937579 246.666667 179.937579 241.226667 155.170211 226.08 144.144737"></polygon>
                <polygon id="Shape" points="246.666667 179.937579 228.026667 197.061684 226.08 215.730421 241.226667 204.704947 246.666667 179.964211 246.666667 179.937579 246.666667 179.937579"></polygon>
                <polygon id="Shape" points="226.08 215.730421 209.013333 208.087158 184.906667 215.730421"></polygon>
                <polygon id="Shape" points="184.906667 72.5856842 160.826667 64.9157895 143.76 72.5856842 160.826667 80.2289474 184.906667 72.5856842 184.906667 72.5856842 184.906667 72.5590526 184.906667 72.5856842 179.466667 47.7916842 164.32 36.7928421 166.266667 55.4615789"></polygon>
                <polygon id="Shape" points="82 36.7928421 66.8533333 47.7916842 61.4133333 72.5856842 80.0533333 55.4615789"></polygon>
                <polygon id="Shape" points="82 108.351895 66.8533333 119.377368 61.4133333 144.144737 80.0533333 127.047263"></polygon>
                <polygon id="Shape" points="164.32 108.351895 179.466667 97.3530526 184.906667 72.5856842 184.906667 72.5856842 184.906667 72.5856842 166.266667 89.6831579"></polygon>
                <polygon id="Shape" points="102.586667 72.5856842 104.533333 91.2544211 123.173333 108.351895 117.706667 83.6111579"></polygon>
                <polygon id="Shape" points="123.173333 108.351895 99.0666667 100.708632 82 108.351895 99.0666667 115.995158"></polygon>
                <polygon id="Shape" points="102.586667 144.144737 117.706667 133.119263 123.173333 108.378526 128.613333 133.119263 143.76 144.144737 141.813333 125.476 123.173333 108.351895 147.253333 116.021789 164.32 108.351895 147.253333 100.708632 123.173333 108.351895 123.173333 108.351895 123.173333 108.351895 123.173333 108.351895 123.173333 108.378526 123.173333 108.351895 104.533333 125.476"></polygon>
                <polygon id="Shape" points="123.173333 108.351895 141.813333 91.2544211 143.76 72.5856842 128.613333 83.5845263"></polygon>
                <polygon id="Shape" points="61.4133333 72.5856842 85.4933333 80.2289474 102.586667 72.5856842 85.4933333 64.9157895 61.4133333 72.5856842 61.4133333 72.5856842 61.4133333 72.5856842 66.8533333 97.3530526 82 108.351895 80.0533333 89.6831579"></polygon>
                <polygon id="Shape" points="184.906667 215.730421 179.466667 190.963053 164.32 179.937579 166.266667 198.606316"></polygon>
                <polygon id="Shape" points="117.706667 155.170211 102.586667 144.144737 104.533333 162.813474 123.173333 179.937579 99.0666667 172.294316 82 179.937579 99.0666667 187.580842 123.173333 179.937579 123.146667 179.937579 123.173333 179.937579 123.173333 179.937579 123.173333 179.937579"></polygon>
                <polygon id="Shape" points="123.173333 179.937579 128.613333 204.704947 143.76 215.730421 141.813333 197.061684 123.173333 179.937579 123.173333 179.937579 104.533333 197.061684 102.586667 215.730421 117.706667 204.704947"></polygon>
                <polygon id="Shape" points="123.173333 179.937579 123.173333 179.937579 123.173333 179.937579 147.253333 187.580842 164.346667 179.937579 147.253333 172.294316"></polygon>
                <polygon id="Shape" points="141.813333 162.813474 143.76 144.144737 128.613333 155.170211 123.173333 179.937579 123.173333 179.937579 123.173333 179.937579 123.173333 179.937579"></polygon>
                <polygon id="Shape" points="102.586667 144.144737 85.4933333 136.501474 61.4133333 144.144737 85.4933333 151.814632"></polygon>
                <polygon id="Shape" points="184.906667 215.730421 160.826667 208.087158 143.76 215.730421"></polygon>
                <polygon id="Shape" points="40.8266667 36.7928421 42.7733333 55.4615789 61.4133333 72.5856842 61.4133333 72.5590526 61.4133333 72.5856842 55.9733333 47.7916842"></polygon>
                <polygon id="Shape" points="40.8266667 108.351895 42.7733333 127.047263 61.4133333 144.144737 55.9733333 119.377368"></polygon>
                <polygon id="Shape" points="61.4133333 144.144737 37.3333333 136.501474 20.24 144.144737 37.3333333 151.814632"></polygon>
                <polygon id="Shape" points="61.4133333 72.5856842 61.4133333 72.5856842 61.4133333 72.5856842 37.3333333 64.9157895 20.24 72.5856842 37.3333333 80.2289474"></polygon>
                <polygon id="Shape" points="61.4133333 72.5856842 42.7733333 89.6831579 40.8266667 108.351895 55.9733333 97.3530526 61.4133333 72.5856842 61.4133333 72.5856842"></polygon>
                <polygon id="Shape" points="61.4133333 144.171368 66.8533333 168.912105 82 179.937579 80.0533333 161.268842 61.4133333 144.144737 61.4133333 144.171368 61.4133333 144.144737 61.4133333 144.144737 61.4133333 144.144737 61.4133333 144.171368 61.4133333 144.144737 42.7733333 161.268842 40.8266667 179.937579 55.9733333 168.912105"></polygon>
                <polygon id="Shape" points="0 181.508842 5.12 204.704947 20.24 215.730421 18.2933333 197.061684 0 180.257158"></polygon>
                <polygon id="Shape" points="0 179.831053 0 180.044105 23.76 187.580842 40.8266667 179.937579 23.76 172.294316"></polygon>
                <polygon id="Shape" points="5.12 155.170211 0 178.392947 0 179.618 18.2933333 162.813474 20.24 144.144737"></polygon>
            </g>
            <g id="ryrtytreeРесурс-4" transform="translate(0.000000, 215.000000)">
                <polygon id="Shape" points="23.0266667 18.8134737 41.6666667 35.9375789 17.56 28.2943158 0.493333333 35.9375789 17.56 43.5808421 41.6666667 35.9375789 41.6666667 35.9375789 41.6666667 35.9375789 41.6666667 35.9375789 41.6666667 35.9375789 36.2266667 11.1702105 21.08 0.144736842"></polygon>
                <polygon id="Shape" points="41.6666667 35.9375789 23.0266667 53.0616842 21.08 71.7304211 36.2266667 60.7049474 41.6666667 35.9642105 41.6666667 35.9375789 41.6666667 35.9375789"></polygon>
            </g>
            <g id="ryrtytreeРесурс-4" transform="translate(185.000000, 0.000000)">
                <polygon id="Shape" points="62.4933333 35.9375789 47.3733333 46.9630526 41.9066667 71.7304211 41.9066667 71.7304211 41.9066667 71.7304211 60.5466667 54.6063158"></polygon>
                <polygon id="Shape" points="85.0266667 18.8134737 103.666667 35.9375789 79.56 28.2943158 62.4933333 35.9375789 79.56 43.5808421 103.666667 35.9375789 103.666667 35.9375789 103.666667 35.9375789 103.666667 35.9375789 103.666667 35.9375789 98.2266667 11.1702105 83.08 0.144736842"></polygon>
                <polygon id="Shape" points="103.666667 35.9375789 85.0266667 53.0616842 83.08 71.7304211 98.2266667 60.7049474 103.666667 35.9642105 103.666667 35.9375789 103.666667 35.9375789"></polygon>
                <polygon id="Shape" points="41.9066667 71.7304211 41.9066667 71.7304211 41.9066667 71.7304211 41.9066667 71.7304211 41.9066667 71.7304211 23.2666667 88.8545263 21.32 107.523263 36.4666667 96.4977895 41.9066667 71.7304211 47.3466667 96.4977895 62.4933333 107.523263 60.5466667 88.8545263 41.9066667 71.7304211 66.0133333 79.3736842 83.08 71.7304211 66.0133333 64.0871579"></polygon>
                <polygon id="Shape" points="41.9066667 71.7304211 36.4666667 46.9630526 21.32 35.9375789 23.2666667 54.6063158"></polygon>
                <polygon id="Shape" points="0.76 71.7304211 17.8266667 79.3736842 41.9066667 71.7304211 17.8266667 64.0871579"></polygon>
            </g>
        </g>
    </g>
</svg>