<?xml version="1.0" encoding="UTF-8"?>
<svg width="191px" height="175px" viewBox="0 0 191 175" version="1.1" xmlns="http://www.w3.org/2000/svg" xmlns:xlink="http://www.w3.org/1999/xlink">
    <!-- Generator: Sketch 43.1 (39012) - http://www.bohemiancoding.com/sketch -->
    <title>material-foil</title>
    <desc>Created with Sketch.</desc>
    <defs></defs>
    <g id="Page-1" stroke="none" stroke-width="1" fill="none" fill-rule="evenodd">
        <g id="material-foil" transform="translate(1.000000, 1.000000)" stroke="#006A5F" stroke-width="2">
            <g id="Group-5" transform="translate(4.529412, 4.529412)">
                <path d="M41.9411765,43.9321323 C41.9411765,40.6234188 44.6242429,37.9411765 47.9321323,37.9411765 L66.8782344,37.9411765 C74.0602107,37.9411765 79.8823529,43.7656171 79.8823529,50.9452951 L79.8823529,62.8782344 C79.8823529,70.0602107 74.0579123,75.8823529 66.8782344,75.8823529 L54.9452951,75.8823529 C47.7633187,75.8823529 41.9411765,70.0579123 41.9411765,62.8782344 L41.9411765,43.9321323 Z" id="Rectangle"></path>
                <path d="M41.9411765,119.814485 C41.9411765,116.505772 44.6242429,113.823529 47.9321323,113.823529 L66.8782344,113.823529 C74.0602107,113.823529 79.8823529,119.64797 79.8823529,126.827648 L79.8823529,138.760587 C79.8823529,145.942564 74.0579123,151.764706 66.8782344,151.764706 L54.9452951,151.764706 C47.7633187,151.764706 41.9411765,145.940265 41.9411765,138.760587 L41.9411765,119.814485 Z" id="Rectangle"></path>
                <path d="M125.823529,119.814485 C125.823529,116.505772 128.506596,113.823529 131.814485,113.823529 L150.760587,113.823529 C157.942564,113.823529 163.764706,119.64797 163.764706,126.827648 L163.764706,138.760587 C163.764706,145.942564 157.940265,151.764706 150.760587,151.764706 L138.827648,151.764706 C131.645672,151.764706 125.823529,145.940265 125.823529,138.760587 L125.823529,119.814485 Z" id="Rectangle"></path>
                <path d="M125.823529,43.9321323 C125.823529,40.6234188 128.506596,37.9411765 131.814485,37.9411765 L150.760587,37.9411765 C157.942564,37.9411765 163.764706,43.7656171 163.764706,50.9452951 L163.764706,62.8782344 C163.764706,70.0602107 157.940265,75.8823529 150.760587,75.8823529 L138.827648,75.8823529 C131.645672,75.8823529 125.823529,70.0579123 125.823529,62.8782344 L125.823529,43.9321323 Z" id="Rectangle"></path>
                <path d="M83.8823529,81.8733088 C83.8823529,78.5645952 86.5654194,75.8823529 89.8733088,75.8823529 L108.819411,75.8823529 C116.001387,75.8823529 121.823529,81.7067935 121.823529,88.8864715 L121.823529,100.819411 C121.823529,108.001387 115.999089,113.823529 108.819411,113.823529 L96.8864715,113.823529 C89.7044951,113.823529 83.8823529,107.999089 83.8823529,100.819411 L83.8823529,81.8733088 Z" id="Rectangle"></path>
                <path d="M185.470588,113.823529 L175.982691,113.823529 C171.444023,113.823529 167.764706,110.142456 167.764706,105.602545 L167.764706,79.6764948 C167.764706,77.5810481 169.46242,75.8823529 171.563062,75.8823529 L185.470588,75.8823529" id="Rectangle"></path>
                <path d="M185.470588,37.9411765 L175.982691,37.9411765 C171.444023,37.9411765 167.764706,34.2601035 167.764706,29.7201922 L167.764706,3.79414186 C167.764706,1.69869517 169.46242,0 171.563062,0 L185.470588,0" id="Rectangle"></path>
                <path d="M83.8823529,5.99095584 C83.8823529,2.68224229 86.5654194,0 89.8733088,0 L108.819411,0 C116.001387,0 121.823529,5.82444059 121.823529,13.0041186 L121.823529,24.9370579 C121.823529,32.1190343 115.999089,37.9411765 108.819411,37.9411765 L96.8864715,37.9411765 C89.7044951,37.9411765 83.8823529,32.1167359 83.8823529,24.9370579 L83.8823529,5.99095584 Z" id="Rectangle"></path>
                <path d="M83.8823529,169.470588 L83.8823529,155.563062 C83.8823529,153.465288 85.5863147,151.764706 87.6764948,151.764706 L113.602545,151.764706 C118.142869,151.764706 121.823529,155.443554 121.823529,159.981412 L121.823529,169.467833" id="Rectangle"></path>
                <path d="M167.764706,169.470588 L167.764706,155.563062 C167.764706,153.465288 169.46242,151.764706 171.563062,151.764706 L185.470588,151.764706" id="Rectangle"></path>
                <path d="M0,81.8733088 C0,78.5645952 2.68306647,75.8823529 5.99095584,75.8823529 L24.9370579,75.8823529 C32.1190343,75.8823529 37.9411765,81.7067935 37.9411765,88.8864715 L37.9411765,100.819411 C37.9411765,108.001387 32.1167359,113.823529 24.9370579,113.823529 L13.0041186,113.823529 C5.82214221,113.823529 0,107.999089 0,100.819411 L0,81.8733088 Z" id="Rectangle"></path>
            </g>
            <g id="Group-5">
                <rect id="Rectangle" x="41.9411765" y="37.9411765" width="37.9411765" height="37.9411765" rx="10"></rect>
                <rect id="Rectangle" x="41.9411765" y="113.823529" width="37.9411765" height="37.9411765" rx="10"></rect>
                <rect id="Rectangle" x="125.823529" y="113.823529" width="37.9411765" height="37.9411765" rx="10"></rect>
                <rect id="Rectangle" x="125.823529" y="37.9411765" width="37.9411765" height="37.9411765" rx="10"></rect>
                <rect id="Rectangle" x="83.8823529" y="75.8823529" width="37.9411765" height="37.9411765" rx="10"></rect>
                <path d="M190,113.823529 L174.084044,113.823529 C170.59397,113.823529 167.764706,110.987291 167.764706,107.49439 L167.764706,82.211492 C167.764706,78.716005 170.599643,75.8823529 174.084044,75.8823529 L190,75.8823529" id="Rectangle"></path>
                <path d="M190,37.9411765 L174.084044,37.9411765 C170.59397,37.9411765 167.764706,35.1049382 167.764706,31.6120374 L167.764706,6.32913908 C167.764706,2.83365209 170.599643,0 174.084044,0 L190,0" id="Rectangle"></path>
                <rect id="Rectangle" x="83.8823529" y="0" width="37.9411765" height="37.9411765" rx="10"></rect>
                <path d="M83.8823529,174 L83.8823529,158.084044 C83.8823529,154.59397 86.7185912,151.764706 90.211492,151.764706 L115.49439,151.764706 C118.989877,151.764706 121.823529,154.599643 121.823529,158.084044 L121.823529,174" id="Rectangle"></path>
                <path d="M167.764706,174 L167.764706,158.084044 C167.764706,154.59397 170.599643,151.764706 174.084044,151.764706 L190,151.764706" id="Rectangle"></path>
                <rect id="Rectangle" x="0" y="75.8823529" width="37.9411765" height="37.9411765" rx="10"></rect>
            </g>
        </g>
    </g>
</svg>