<?xml version="1.0" encoding="UTF-8"?>
<svg width="232px" height="180px" viewBox="0 0 232 180" version="1.1" xmlns="http://www.w3.org/2000/svg" xmlns:xlink="http://www.w3.org/1999/xlink">
    <!-- Generator: Sketch 43.1 (39012) - http://www.bohemiancoding.com/sketch -->
    <title>material-lacquer</title>
    <desc>Created with Sketch.</desc>
    <defs></defs>
    <g id="Page-1" stroke="none" stroke-width="1" fill="none" fill-rule="evenodd">
        <g id="material-lacquer" fill-rule="nonzero" fill="#00769A">
            <g id="23423Ресурс-2" transform="translate(115.995639, 0.000000)">
                <path d="M42.9313836,62.9111771 L42.9313836,23.8186459 L76.8791292,4.3062266 L110.80996,23.8186459 L110.80996,62.9111771 L76.8791292,82.3559036 L42.9313836,62.9111771 Z M39.2608999,21.787865 L39.2608999,64.9419579 L76.8791292,86.6036202 L114.480444,64.9419579 L114.480444,21.7201723 L114.480444,21.7201723 L76.8791292,0.0923563569 L39.2608999,21.787865 Z" id="Shape"></path>
                <path d="M46.1113419,25.680195 L46.1113419,25.680195 L46.1113419,61.0496279 L76.8791292,78.7004981 L107.630002,61.0157816 L107.630002,25.680195 L107.630002,25.680195 L76.8791292,7.96163212 L46.1113419,25.680195 Z M103.976433,27.7955917 L103.976433,58.9003849 L76.9129586,74.4697047 L49.8494843,58.9003849 L49.8494843,27.7617453 L76.9129586,12.1924255 L76.9129586,12.1924255 L103.976433,27.7617453 L103.976433,27.7955917 Z" id="Shape"></path>
                <path d="M52.9617838,29.5725249 L52.9617838,57.0726821 L76.8791292,70.8142992 L100.796475,57.0726821 L100.796475,29.5725249 L76.8791292,15.8309079 L52.9617838,29.5725249 Z M97.125991,54.9572854 L76.8283852,66.6004289 L56.5307795,54.9742086 L56.5307795,31.6879216 L76.8283852,20.0617013 L97.125991,31.7048448 L97.125991,54.9572854 Z" id="Shape"></path>
                <path d="M66.6626677,37.5264165 L66.6626677,49.2034064 L76.8114706,55.0757476 L86.9602734,49.2034064 L86.9602734,37.5264165 L76.8114706,31.6540753 L66.6626677,37.5264165 Z M83.4420218,39.6418132 L83.4420218,47.1726255 L76.8960439,50.9464933 L70.3500661,47.1726255 L70.3500661,39.5571974 L76.8791292,35.8340992 L83.4251071,39.5910437 L83.4420218,39.6418132 Z" id="Shape"></path>
                <polygon id="Shape" points="78.4014497 132.431575 115.020229 153.720927 115.020229 149.507057 82.0719334 130.333101 82.0719334 91.3082625 115.020229 72.1343067 115.020229 67.9204365 78.4014497 89.1928658"></polygon>
                <polygon id="Shape" points="92.1023335 124.562299 115.020229 137.965452 115.020229 133.751582 95.7728173 122.463825 95.7728173 99.1775382 115.020229 87.8728582 115.020229 83.658988 92.1023335 97.0790647"></polygon>
                <polygon id="Shape" points="98.9527755 120.619199 115.020229 130.096177 115.020229 125.882306 102.623259 118.520726 102.623259 103.120638 115.020229 95.7590572 115.020229 91.5451869 98.9527755 101.005241"></polygon>
                <polygon id="Shape" points="105.803217 116.693023 115.020229 122.226901 115.020229 118.013031 109.473701 114.577626 109.473701 107.046814 115.020229 103.628333 115.020229 99.4144627 105.803217 104.94834"></polygon>
                <path d="M75.3568088,89.1928658 L75.3568088,89.1928658 L37.7385795,67.581973 L0.0526914873,89.1928658 L0.0526914873,132.431575 L37.6709208,154.05939 L75.2891501,132.431575 L75.3568088,89.1928658 Z M71.6863251,130.316178 L37.7385795,149.84552 L3.79083388,130.333101 L3.79083388,91.3082625 L37.7385795,71.7958432 L71.6863251,91.3082625 L71.6863251,130.316178 Z" id="Shape"></path>
                <path d="M6.97079211,93.1359652 L6.97079211,93.1359652 L6.97079211,128.505398 L37.7385795,146.173192 L68.5063669,128.488475 L68.5063669,93.1359652 L68.5063669,93.1359652 L37.7385795,75.4512487 L6.97079211,93.1359652 Z M64.8358832,126.390002 L37.7724088,141.959321 L10.7089345,126.390002 L10.7089345,95.2344388 L37.7724088,79.665119 L37.7724088,79.665119 L64.8358832,95.2344388 L64.8358832,126.390002 Z" id="Shape"></path>
                <path d="M20.671676,101.005241 L20.671676,120.619199 L37.7385795,130.43464 L54.805483,120.619199 L54.805483,101.005241 L37.7385795,91.1898003 L20.671676,101.005241 Z M51.1180846,118.520726 L51.1180846,118.520726 L37.7216648,126.22077 L24.325245,118.520726 L24.325245,118.520726 L24.325245,103.120638 L24.325245,103.120638 L37.7216648,95.4205937 L51.1180846,103.120638 L51.1180846,118.520726 Z" id="Shape"></path>
                <path d="M27.5052033,104.94834 L27.5052033,116.693023 L37.6540061,122.565364 L47.802809,116.693023 L47.802809,104.94834 L37.6540061,99.0759992 L27.5052033,104.94834 Z M44.2676427,114.577626 L37.7216648,118.351494 L31.175687,114.577626 L31.175687,107.046814 L37.7216648,103.272946 L44.2676427,107.046814 L44.2676427,114.577626 Z" id="Shape"></path>
            </g>
            <g id="23423Ресурс-2" transform="translate(114.990472, 135.294008)">
                <path d="M115.899329,43.9400557 L115.899329,21.627816 L78.2810995,0 L40.5952115,21.6108928 L40.5952115,43.9400557 L115.899329,43.9400557 Z M44.3333539,23.6924432 L78.2810995,4.21387025 L112.228845,23.6924432 L112.228845,43.9400557 L44.3333539,43.9400557 L44.3333539,23.6924432 Z" id="Shape"></path>
                <path d="M109.048887,43.9400557 L109.048887,25.5539923 L78.2810995,7.86927576 L47.5133121,25.5539923 L47.5133121,43.9400557 L109.048887,43.9400557 Z M51.1837958,27.669389 L78.2472702,12.1000692 L105.310744,27.669389 L105.310744,43.9400557 L51.1837958,43.9400557 L51.1837958,27.669389 Z" id="Shape"></path>
                <path d="M102.198445,43.9400557 L102.198445,29.4970917 L78.2810995,15.7554747 L54.3637541,29.4970917 L54.3637541,43.9400557 L102.198445,43.9400557 Z M58.0342378,31.5955653 L78.3318435,19.9524218 L98.6294493,31.5955653 L98.6294493,43.9400557 L58.0342378,43.9400557 L58.0342378,31.5955653 Z" id="Shape"></path>
                <path d="M88.4975611,43.9400557 L88.4975611,37.3663675 L78.3487582,31.4940262 L68.1999553,37.3663675 L68.1999553,43.9400557 L88.4975611,43.9400557 Z M71.7351216,39.4479178 L78.2810995,35.6740501 L84.8270773,39.4479178 L84.8270773,43.9400557 L71.7351216,43.9400557 L71.7351216,39.4479178 Z" id="Shape"></path>
                <polygon id="Shape" points="0 0 0 4.21387025 33.9477456 23.7262895 33.9477456 43.9400557 37.6182293 43.9400557 37.6182293 21.627816"></polygon>
                <polygon id="Shape" points="0 7.86927576 0 12.083146 27.0973037 27.669389 27.0973037 43.9400557 30.7677874 43.9400557 30.7677874 25.5539923"></polygon>
                <polygon id="Shape" points="0 15.7385515 0 19.9524218 20.2468617 31.5955653 20.2468617 43.9400557 23.9173454 43.9400557 23.9173454 29.4970917"></polygon>
                <polygon id="Shape" points="0 23.6247505 0 27.8386207 13.3964198 35.5386647 13.3964198 43.9400557 17.0669035 43.9400557 17.0669035 33.423268"></polygon>
            </g>
            <g id="23423Ресурс-2" transform="translate(0.000000, 135.294008)">
                <polygon id="Shape" points="78.4014497 43.9400557 82.0719334 43.9400557 82.0719334 23.7262895 115.427665 4.55233372 115.427665 0.338463474 78.4014497 21.627816"></polygon>
                <polygon id="Shape" points="85.2518916 43.9400557 88.9223753 43.9400557 88.9223753 27.669389 115.427665 12.4216095 115.427665 8.20773923 85.2518916 25.5539923"></polygon>
                <polygon id="Shape" points="92.1023335 43.9400557 95.7728173 43.9400557 95.7728173 31.5955653 115.427665 20.2908852 115.427665 16.0939382 92.1023335 29.4970917"></polygon>
                <polygon id="Shape" points="102.623259 43.9400557 102.623259 35.5386647 115.427665 28.1770842 115.427665 23.9632139 98.9527755 33.423268 98.9527755 43.9400557"></polygon>
                <path d="M75.3568088,43.9400557 L75.3568088,21.627816 L37.7385795,0 L0.0526914873,21.6108928 L0.0526914873,43.9400557 L75.3568088,43.9400557 Z M3.79083388,23.6924432 L37.7385795,4.21387025 L71.6863251,23.6924432 L71.6863251,43.9400557 L3.79083388,43.9400557 L3.79083388,23.6924432 Z" id="Shape"></path>
                <path d="M68.5063669,43.9400557 L68.5063669,25.5539923 L37.7385795,7.86927576 L6.97079211,25.5539923 L6.97079211,43.9400557 L68.5063669,43.9400557 Z M10.6412758,27.669389 L37.7047501,12.1000692 L64.7682245,27.669389 L64.7682245,43.9400557 L10.6412758,43.9400557 L10.6412758,27.669389 Z" id="Shape"></path>
                <path d="M54.805483,43.9400557 L54.805483,33.423268 L37.7385795,23.6924432 L20.671676,33.5078839 L20.671676,43.9400557 L54.805483,43.9400557 Z M24.3590744,43.9400557 L24.3590744,35.5386647 L37.7554942,27.8386207 L51.1349993,35.5386647 L51.1349993,43.9400557 L24.3590744,43.9400557 Z" id="Shape"></path>
                <path d="M47.955041,43.9400557 L47.955041,37.3663675 L37.8062382,31.4940262 L27.6574353,37.3663675 L27.6574353,43.9400557 L47.955041,43.9400557 Z M31.1926016,39.4479178 L37.7385795,35.6740501 L44.2845573,39.4479178 L44.2845573,43.9400557 L31.1926016,43.9400557 L31.1926016,39.4479178 Z" id="Shape"></path>
            </g>
        </g>
    </g>
</svg>