<?xml version="1.0" encoding="UTF-8"?>
<svg width="222px" height="168px" viewBox="0 0 222 168" version="1.1" xmlns="http://www.w3.org/2000/svg" xmlns:xlink="http://www.w3.org/1999/xlink">
    <!-- Generator: Sketch 43.1 (39012) - http://www.bohemiancoding.com/sketch -->
    <title>material-paints-720</title>
    <desc>Created with Sketch.</desc>
    <defs></defs>
    <g id="Page-1" stroke="none" stroke-width="1" fill="none" fill-rule="evenodd" opacity="0.300000012">
        <g id="material-paints-720" fill-rule="nonzero" fill="#00769A">
            <g id="2342342Ресурс-1" transform="translate(48.000000, 0.000000)">
                <g id="Group-4" transform="translate(0.000000, 81.000000)">
                    <path d="M9.7688172,18.4285714 C4.85823258,18.4012561 0.896952237,14.3981801 0.91511466,9.48145317 C0.933277083,4.56472619 4.92402342,0.591098113 9.8346755,0.600152683 C14.7453276,0.609207253 18.7214296,4.59752511 18.7215054,9.51428571 C18.7149553,11.8850714 17.7680464,14.1561496 16.0890897,15.8279044 C14.410133,17.4996592 12.1366614,18.4351478 9.7688172,18.4285714" id="Shape"></path>
                    <path d="M42.5376344,18.4285714 C37.6270498,18.4012561 33.6657694,14.3981801 33.6839319,9.48145317 C33.7020943,4.56472619 37.6928406,0.591098113 42.6034927,0.600152683 C47.5141448,0.609207253 51.4902468,4.59752511 51.4903226,9.51428571 C51.4837725,11.8850714 50.5368636,14.1561496 48.8579069,15.8279044 C47.1789502,17.4996592 44.9054786,18.4351478 42.5376344,18.4285714" id="Shape"></path>
                    <path d="M75.3064516,18.4285714 C70.395867,18.4012561 66.4345866,14.3981801 66.4527491,9.48145317 C66.4709115,4.56472619 70.4616578,0.591098113 75.3723099,0.600152683 C80.282962,0.609207253 84.259064,4.59752511 84.2591398,9.51428571 C84.2525897,11.8850714 83.3056808,14.1561496 81.6267241,15.8279044 C79.9477675,17.4996592 77.6742958,18.4351478 75.3064516,18.4285714" id="Shape"></path>
                    <path d="M108.075269,18.4285714 C103.164684,18.4012561 99.2034039,14.3981801 99.2215663,9.48145317 C99.2397287,4.56472619 103.230475,0.591098113 108.141127,0.600152683 C113.051779,0.609207253 117.027881,4.59752511 117.027957,9.51428571 C117.021407,11.8850714 116.074498,14.1561496 114.395541,15.8279044 C112.716585,17.4996592 110.443113,18.4351478 108.075269,18.4285714" id="Shape"></path>
                    <path d="M173.679993,18.4285714 C168.769408,18.4012561 164.741038,14.3981801 164.759201,9.48145317 L164.759201,9.48145317 C164.777363,4.56472619 168.768109,0.591098113 173.678762,0.600152683" id="Shape"></path>
                </g>
                <g id="Group-2" transform="translate(51.000000, 0.000000)">
                    <g id="Group-4" transform="translate(48.000000, 26.000000)">
                        <path d="M9.07526882,18.4285714 C4.16468419,18.4012561 0.20340385,14.3981801 0.221566273,9.48145317 C0.239728696,4.56472619 4.23047504,0.591098113 9.14112712,0.600152683 C14.0517792,0.609207253 18.0278812,4.59752511 18.027957,9.51428571 C18.0214069,11.8850714 17.074498,14.1561496 15.3955413,15.8279044 C13.7165847,17.4996592 11.443113,18.4351478 9.07526882,18.4285714" id="Shape"></path>
                        <path d="M41.844086,18.4285714 C36.9335014,18.4012561 32.9722211,14.3981801 32.9903835,9.48145317 C33.0085459,4.56472619 36.9992922,0.591098113 41.9099443,0.600152683 C46.8205964,0.609207253 50.7966984,4.59752511 50.7967742,9.51428571 C50.7902242,11.8850714 49.8433152,14.1561496 48.1643586,15.8279044 C46.4854019,17.4996592 44.2119302,18.4351478 41.844086,18.4285714" id="Shape"></path>
                        <path d="M74.6799927,18.4285714 C69.7694081,18.4012561 65.7410383,14.3981801 65.7592007,9.48145317 L65.7592007,9.48145317 C65.7773631,4.56472619 69.7681094,0.591098113 74.6787615,0.600152683" id="Shape"></path>
                    </g>
                    <path d="M107.774194,0.253333333 C112.687992,0.280685319 116.650564,4.28880198 116.627828,9.20872792 C116.605091,14.1286539 112.605644,18.0998839 107.691803,18.0817062 C102.777962,18.0635284 98.8079317,14.062817 98.8215054,9.14285714 C98.8280554,6.7720715 99.7749643,4.5009933 101.453921,2.82923848 C103.132878,1.15748365 105.406349,0.221995059 107.774194,0.228571429" id="Shape"></path>
                    <path d="M9.46774194,52.8971429 C14.3783266,52.9244582 18.3396069,56.9275341 18.3214445,61.8442611 C18.3032821,66.7609881 14.3125357,70.7346162 9.40188364,70.7255616 C4.49123155,70.716507 0.515129546,66.7281892 0.515053763,61.8114286 C0.521603804,59.4406429 1.46851271,57.1695647 3.14746941,55.4978099 C4.8264261,53.8260551 7.09989776,52.8905665 9.46774194,52.8971429" id="Shape"></path>
                    <path d="M42.2365591,52.8971429 C47.1471438,52.9244582 51.1084241,56.9275341 51.0902617,61.8442611 C51.0720993,66.7609881 47.0813529,70.7346162 42.1707008,70.7255616 C37.2600488,70.716507 33.2839468,66.7281892 33.283871,61.8114286 C33.290421,59.4406429 34.2373299,57.1695647 35.9162866,55.4978099 C37.5952433,53.8260551 39.868715,52.8905665 42.2365591,52.8971429" id="Shape"></path>
                    <path d="M75.0053763,52.8971429 C79.915961,52.9244582 83.8772413,56.9275341 83.8590789,61.8442611 C83.8409165,66.7609881 79.8501701,70.7346162 74.939518,70.7255616 C70.028866,70.716507 66.052764,66.7281892 66.0526882,61.8114286 C66.0592382,59.4406429 67.0061471,57.1695647 68.6851038,55.4978099 C70.3640605,53.8260551 72.6375322,52.8905665 75.0053763,52.8971429" id="Shape"></path>
                    <path d="M107.774194,52.8971429 C112.684778,52.9244582 116.646059,56.9275341 116.627896,61.8442611 C116.609734,66.7609881 112.618987,70.7346162 107.708335,70.7255616 C102.797683,70.716507 98.8215812,66.7281892 98.8215054,61.8114286 C98.8280554,59.4406429 99.7749643,57.1695647 101.453921,55.4978099 C103.132878,53.8260551 105.406349,52.8905665 107.774194,52.8971429" id="Shape"></path>
                </g>
                <g id="Group" transform="translate(0.000000, 105.000000)">
                    <path d="M9.7688172,44.6914286 C4.85823258,44.6641132 0.896952237,40.6610373 0.91511466,35.7443103 C0.933277083,30.8275833 4.92402342,26.8539553 9.8346755,26.8630098 C14.7453276,26.8720644 18.7214296,30.8603823 18.7215054,35.7771429 C18.7149553,38.1479285 17.7680464,40.4190067 16.0890897,42.0907615 C14.410133,43.7625164 12.1366614,44.6980049 9.7688172,44.6914286" id="Shape"></path>
                    <path d="M42.5376344,44.6914286 C37.6270498,44.6641132 33.6657694,40.6610373 33.6839319,35.7443103 C33.7020943,30.8275833 37.6928406,26.8539553 42.6034927,26.8630098 C47.5141448,26.8720644 51.4902468,30.8603823 51.4903226,35.7771429 C51.4837725,38.1479285 50.5368636,40.4190067 48.8579069,42.0907615 C47.1789502,43.7625164 44.9054786,44.6980049 42.5376344,44.6914286" id="Shape"></path>
                    <path d="M75.3064516,44.6914286 C70.395867,44.6641132 66.4345866,40.6610373 66.4527491,35.7443103 C66.4709115,30.8275833 70.4616578,26.8539553 75.3723099,26.8630098 C80.282962,26.8720644 84.259064,30.8603823 84.2591398,35.7771429 C84.2525897,38.1479285 83.3056808,40.4190067 81.6267241,42.0907615 C79.9477675,43.7625164 77.6742958,44.6980049 75.3064516,44.6914286" id="Shape"></path>
                    <path d="M108.075269,44.6914286 C103.164684,44.6641132 99.2034039,40.6610373 99.2215663,35.7443103 C99.2397287,30.8275833 103.230475,26.8539553 108.141127,26.8630098 C113.051779,26.8720644 117.027881,30.8603823 117.027957,35.7771429 C117.021407,38.1479285 116.074498,40.4190067 114.395541,42.0907615 C112.716585,43.7625164 110.443113,44.6980049 108.075269,44.6914286" id="Shape"></path>
                    <path d="M140.844086,44.6914286 C135.933501,44.6641132 131.972221,40.6610373 131.990383,35.7443103 C132.008546,30.8275833 135.999292,26.8539553 140.909944,26.8630098 C145.820596,26.8720644 149.796698,30.8603823 149.796774,35.7771429 C149.790224,38.1479285 148.843315,40.4190067 147.164359,42.0907615 C145.485402,43.7625164 143.21193,44.6980049 140.844086,44.6914286" id="Shape"></path>
                    <path d="M173.612903,44.6914286 C168.702319,44.6641132 164.741038,40.6610373 164.759201,35.7443103 C164.777363,30.8275833 168.768109,26.8539553 173.678762,26.8630098" id="Shape"></path>
                    <path d="M18.7462366,62.0990476 C18.7527866,59.728262 19.6996955,57.4571838 21.3786522,55.785429 C23.0576089,54.1136741 25.3310806,53.1781855 27.6989247,53.1847619 C32.6095094,53.2120772 36.5707897,57.1832486 36.5526273,62.0999756 L36.5526273,62.0999756" id="Shape"></path>
                    <path d="M51.5150538,62.0990476 C51.5216038,59.728262 52.4685127,57.4571838 54.1474694,55.785429 C55.8264261,54.1136741 58.0998978,53.1781855 60.4677419,53.1847619 C65.3783266,53.2120772 69.3396069,57.1832486 69.3214445,62.0999756 L69.3214445,62.0999756" id="Shape"></path>
                    <path d="M117.052688,62.0990476 C117.059238,59.728262 118.006147,57.4571838 119.685104,55.785429 C121.364061,54.1136741 123.637532,53.1781855 126.005376,53.1847619 C130.915961,53.2120772 134.877241,57.1832486 134.859079,62.0999756 L134.859079,62.0999756" id="Shape"></path>
                    <path d="M149.821505,62.0990476 C149.828055,59.728262 150.774964,57.4571838 152.453921,55.785429 C154.132878,54.1136741 156.406349,53.1781855 158.774194,53.1847619 C163.684778,53.2120772 167.646059,57.1832486 167.627896,62.0999756 L167.627896,62.0999756" id="Shape"></path>
                    <path d="M27.6989247,18.3695238 C22.7883401,18.3422085 18.8270598,14.3391325 18.8452222,9.42240555 C18.8633846,4.50567857 22.854131,0.532050494 27.764783,0.541105064 C32.6754351,0.550159634 36.6515371,4.53847749 36.6516129,9.4552381 C36.6450629,11.8260237 35.698154,14.0971019 34.0191973,15.7688568 C32.3402406,17.4406116 30.0667689,18.3761002 27.6989247,18.3695238" id="Shape"></path>
                    <path d="M93.2365591,18.3695238 C88.3259745,18.3422085 84.3646942,14.3391325 84.3828566,9.42240555 C84.401019,4.50567857 88.3917654,0.532050494 93.3024174,0.541105064 C98.2130695,0.550159634 102.189172,4.53847749 102.189247,9.4552381 C102.182697,11.8260237 101.235788,14.0971019 99.5568317,15.7688568 C97.877875,17.4406116 95.6044033,18.3761002 93.2365591,18.3695238" id="Shape"></path>
                    <path d="M126.005376,18.3695238 C121.094792,18.3422085 117.133511,14.3391325 117.151674,9.42240555 C117.169836,4.50567857 121.160583,0.532050494 126.071235,0.541105064 C130.981887,0.550159634 134.957989,4.53847749 134.958065,9.4552381 C134.951514,11.8260237 134.004606,14.0971019 132.325649,15.7688568 C130.646692,17.4406116 128.373221,18.3761002 126.005376,18.3695238" id="Shape"></path>
                    <path d="M158.774194,18.3695238 C153.863609,18.3422085 149.902329,14.3391325 149.920491,9.42240555 C149.938653,4.50567857 153.9294,0.532050494 158.840052,0.541105064 C163.750704,0.550159634 167.726806,4.53847749 167.726882,9.4552381 C167.720332,11.8260237 166.773423,14.0971019 165.094466,15.7688568 C163.415509,17.4406116 161.142038,18.3761002 158.774194,18.3695238" id="Shape"></path>
                </g>
            </g>
            <g id="2342342Ресурс-1" transform="translate(0.000000, 131.000000)">
                <g id="Group">
                    <path d="M24.6129032,18.6914286 C19.7023186,18.6641132 15.7410383,14.6610373 15.7592007,9.74431031 C15.7773631,4.82758333 19.7681094,0.853955256 24.6787615,0.863009826 C29.5894136,0.872064396 33.5655156,4.86038225 33.5655914,9.77714286 C33.5590414,12.1479285 32.6121324,14.4190067 30.9331758,16.0907615 C29.2542191,17.7625164 26.9807474,18.6980049 24.6129032,18.6914286" id="Shape"></path>
                    <path d="M0.821505376,36.0990476 C0.828055417,33.728262 1.77496433,31.4571838 3.45392102,29.785429 C5.13287771,28.1136741 7.40634937,27.1781855 9.77419355,27.1847619 C14.6847782,27.2120772 18.6460585,31.1832486 18.6278961,36.0999756 L18.6278961,36.0999756" id="Shape"></path>
                    <path d="M33.5903226,36.0990476 C33.5702921,32.4690857 35.7387989,29.1853869 39.0825536,27.782342 L39.0825536,27.782342 C42.4263082,26.3792971 46.2851036,27.1339301 48.8558204,29.6936199 C50.6099216,31.4401969 51.52799,33.716102 51.4949691,36.0999756" id="Shape"></path>
                </g>
            </g>
        </g>
    </g>
</svg>