<?xml version="1.0" encoding="UTF-8"?>
<svg width="372px" height="215px" viewBox="0 0 372 215" version="1.1" xmlns="http://www.w3.org/2000/svg" xmlns:xlink="http://www.w3.org/1999/xlink">
    <!-- Generator: Sketch 43.1 (39012) - http://www.bohemiancoding.com/sketch -->
    <title>tech-narrow-print</title>
    <desc>Created with Sketch.</desc>
    <defs></defs>
    <g id="Page-1" stroke="none" stroke-width="1" fill="none" fill-rule="evenodd">
        <g id="tech-narrow-print" fill="#006A5F">
            <path d="M282.191609,51.7591842 L286.627764,50.5126613 C301.29274,46.5897803 315.701078,42.6668993 330.292729,38.8173432 C332.358106,38.3085803 334.238522,37.2286115 335.71877,35.7010359 C346.314215,24.9956036 357.019647,14.3634963 367.651755,3.69472647 C368.604978,2.70484061 369.863464,1.53164256 371,0.028482553 C371.008297,22.4117964 371,205.484792 371,205.484792 C369.826802,204.384918 368.714965,203.50502 367.761742,202.551796 C357.154076,192.066339 346.570852,181.422011 336.01207,170.618812 C334.347651,168.920871 332.238351,167.726448 329.926105,167.172543 C315.261129,163.322987 300.596153,159.326781 285.931178,155.367237 C284.75798,155.037275 283.584782,154.633988 282.264934,154.194039 L288.534211,130.693416 C290.77062,122.33438 293.080353,113.975343 295.170112,105.579645 C295.56907,103.904377 295.56907,102.158834 295.170112,100.483566 C291.283894,85.5619531 287.251026,70.6403404 283.25482,55.7187276 C282.888195,54.5088671 282.631558,53.2990066 282.191609,51.7591842 Z M286.371127,54.2522301 C286.847739,56.1586769 287.214363,57.588512 287.61765,59.0550096 C291.283894,72.8767492 294.950138,86.7351512 298.616382,100.520228 C299.103186,102.196515 299.103186,103.976683 298.616382,105.65297 C294.950138,119.584697 291.283894,133.553086 287.397675,147.484813 C287.031051,148.877986 286.701089,150.307821 286.334465,151.884306 L290.660632,153.167491 C304.372385,156.833735 318.047474,160.499979 331.759227,164.166223 C333.937692,164.707215 335.919786,165.85073 337.478567,167.465842 C347.572959,177.633559 357.704013,187.764613 367.871729,197.859004 C368.824953,198.812228 369.276865,199.692126 371,201.305274 C371.00034,178.891751 371.021265,17.6641835 371,5.49118599 L367.835067,8.60749332 C357.789559,18.6530016 347.707388,28.6618475 337.735204,38.7440183 C336.17398,40.356 334.192843,41.4989637 332.015864,42.0436378 C318.524086,45.7098817 305.068971,49.3761257 291.687181,52.8223949 L286.371127,54.2522301 Z" id="Shape"></path>
            <path d="M179.536779,111.225661 C180.247755,112.415569 181.057158,113.543829 181.9565,114.598605 C192.588608,125.304037 203.29404,135.936145 213.889485,146.641577 C215.449492,148.255119 217.431105,149.398357 219.608825,149.941196 C234.053826,153.75409 248.498827,157.603646 262.943828,161.489865 L267.453308,162.809712 C267.086684,164.349535 266.830047,165.706045 266.500085,166.98923 C262.564983,181.800856 258.593219,196.600261 254.584792,211.387444 C254.355862,212.199565 254.237716,213.164167 254.230354,214 C220.805287,214.014385 134.287885,214.024037 103.221529,214 C103.244074,212.999471 103.11655,212.102369 102.838957,211.130807 C98.8549716,196.465832 94.9198697,181.800856 91.0336512,167.13588 C90.6670268,165.816032 90.4103897,164.496185 90.0071029,162.883037 C91.6202502,162.406426 93.0134229,161.929814 94.443258,161.563189 C108.888259,157.701413 123.33326,153.851856 137.778261,150.014521 C140.099937,149.387012 142.196975,148.11608 143.827564,146.348277 C154.349684,135.71617 164.945129,125.19405 175.503911,114.598605 C176.421919,113.561639 177.278823,112.472146 178.070282,111.335648 L179.536779,111.225661 Z M94.0399712,165.229433 L95.2864941,170.032213 C98.9527381,183.743965 102.618982,197.455717 106.285226,211.16747 C106.536914,212.037888 106.666645,213.102864 106.67442,214 C140.46444,214.031057 211.611969,214.00561 250.718571,214 C250.73502,213.138247 250.862783,212.33419 251.101861,211.497432 C254.768104,197.675692 258.434348,183.853952 262.100592,170.032213 C262.467217,168.602378 262.797179,167.172543 263.163803,165.596058 L259.240922,164.459522 C245.419182,160.793278 231.597443,157.127034 217.739041,153.46079 C215.55301,152.932763 213.55885,151.802316 211.983038,150.197833 C201.900867,140.005675 191.745372,129.886842 181.626538,119.768009 C180.673315,118.814785 179.683429,117.934887 178.546893,116.871676 L175.357261,119.987983 C165.311753,130.033492 155.278465,140.079 145.257399,150.124508 C143.699852,151.7412 141.717273,152.884996 139.538058,153.424128 C129.932499,155.917174 120.363603,158.520207 110.758043,161.086578 L94.0399712,165.229433 Z" id="Shape"></path>
            <path d="M267.78327,59.9715706 C268.443194,62.3179667 268.993131,64.3710633 269.543067,66.3874974 C272.58605,77.6795287 275.629032,88.9348975 278.562027,100.226929 C278.978246,101.912529 278.978246,103.67407 278.562027,105.35967 C275.225746,118.228186 271.706151,131.023378 268.259882,143.928556 C268.007554,144.689503 267.713817,145.436086 267.379984,146.164965 L246.88568,140.738924 C240.469753,139.015789 234.053826,137.07268 227.601237,135.56952 C225.53849,135.074792 223.657537,134.007223 222.175196,132.489875 C213.339548,123.54424 204.430576,114.67193 195.558265,105.79962 C194.678367,104.919721 193.871793,104.00316 192.47862,102.536662 C194.018443,101.29014 195.48494,100.300254 196.731463,99.0537307 C205.114941,90.7435778 213.461756,82.3845417 221.771909,73.9766223 C223.384733,72.2052474 225.471253,70.932979 227.784549,70.3103784 C240.066466,67.1207462 252.311721,63.7844642 264.446988,60.4848447 C265.546862,60.4115198 266.390098,60.2648701 267.78327,59.9715706 Z M265.180237,141.802135 C265.583524,140.702262 265.950148,139.785701 266.206785,138.86914 C269.176443,127.870408 272.182763,116.871676 275.005771,105.872944 C275.45151,104.066919 275.45151,102.179604 275.005771,100.373579 C272.182763,89.3748468 269.213106,78.376115 266.28011,67.6340204 C265.986811,66.5708096 265.583524,65.5442613 265.2169,64.4443882 C264.520313,64.4443882 264.043702,64.4443882 263.56709,64.7376877 C251.798447,67.853995 240.029804,70.9703023 228.297823,74.196597 C226.900083,74.6808846 225.64161,75.4988917 224.631579,76.5796555 C216.309206,84.7920419 208.096819,93.0410907 199.847771,101.326802 C199.261172,101.913401 198.78456,102.609987 198.234623,103.269911 C198.711235,103.85651 199.004535,104.29646 199.371159,104.626421 C207.876845,113.16877 216.382531,121.711118 225.034866,130.290129 C226.227198,131.361889 227.66118,132.129196 229.214384,132.526538 C240.213116,135.56952 251.211848,138.465853 262.21058,141.398848 C263.053816,141.362186 263.860389,141.545498 265.143575,141.765472 L265.180237,141.802135 Z" id="Shape"></path>
            <path d="M89.8237907,146.23829 C89.347179,144.73513 88.9072297,143.598594 88.5772678,142.572046 C85.3143107,130.436779 82.0513536,118.338174 78.8983838,106.166244 C78.4095334,104.498546 78.3340347,102.736909 78.6784092,101.033502 C82.0513536,88.0183365 85.5709478,75.0764955 89.0905419,62.097992 C89.309243,61.4717021 89.5663683,60.8594989 89.8604531,60.2648701 C90.9603263,60.4481823 91.9502122,60.594832 92.8667732,60.8148067 C105.368665,64.1510886 117.870557,67.4873706 130.335786,70.9336399 C131.780679,71.287059 133.115727,71.9923673 134.222005,72.9867365 C143.974213,82.5922955 153.616435,92.3078419 163.295319,102.023388 C163.648406,102.419995 163.97889,102.836161 164.285205,103.269911 C163.441969,104.186472 162.70872,105.029708 161.938809,105.79962 C152.956511,114.781917 144.010876,123.800877 134.991916,132.673187 C133.780345,133.91941 132.282646,134.850753 130.629085,135.386208 C117.210633,138.942465 103.755518,142.498721 89.8237907,146.23829 Z M92.3168366,64.1877511 C91.9502122,65.2876243 91.5835878,66.0575355 91.3636131,66.9007716 C88.3206307,78.1561404 85.2409858,89.4115092 82.3446531,100.740203 C81.976609,102.564497 82.0520491,104.4505 82.5646278,106.239569 C85.3143107,116.908339 88.2473058,127.577108 91.1069761,138.245878 C91.436938,139.419076 91.8402249,140.592274 92.1701868,141.655485 C92.6456604,141.702066 93.1245483,141.702066 93.6000219,141.655485 C105.478652,138.465853 117.357283,135.349545 129.19925,132.049926 C130.588374,131.58411 131.845587,130.792066 132.865494,129.740192 C141.077881,121.637793 149.216942,113.425407 157.392666,105.249683 C158.089252,104.553097 158.639189,103.783185 159.225788,103.049937 C158.968929,102.665363 158.687252,102.297959 158.382552,101.950063 C149.766879,93.3343902 141.187868,84.6820546 132.535532,76.286356 C131.348734,75.1989416 129.91381,74.4185443 128.356014,74.0132848 C119.777003,71.6302262 111.16133,69.357155 102.692307,67.0840838 L92.3168366,64.1877511 Z" id="Shape"></path>
            <path d="M270.893717,214 C270.880391,213.28959 270.943259,212.785981 271.08289,212.084031 C274.492497,198.958877 278.048753,185.870387 281.568348,172.781896 C281.759959,172.263015 281.992902,171.760349 282.264934,171.278736 C283.291482,171.49871 284.281368,171.64536 285.197929,171.901997 C297.699821,175.238279 310.201712,178.537899 322.666942,181.947506 C324.110756,182.303762 325.445147,183.008723 326.55316,184.000602 C336.562006,193.862798 346.497527,203.881167 356.61636,214 C340.638748,214.018455 280.820347,214.042669 270.893717,214 Z M352.26001,214 C352.023569,213.643126 351.063429,213.254175 350.787033,212.927267 C342.171359,204.311594 333.629011,195.659258 324.940013,187.263559 C323.751488,186.178566 322.317196,185.398512 320.760495,184.990488 C309.761763,181.947506 298.763031,179.051173 287.7643,176.118178 C286.811076,175.861541 285.857853,175.788216 284.721317,175.568241 C284.391355,176.411477 284.061393,177.071401 283.878081,177.767988 C280.798436,189.170006 277.718791,200.535362 274.785796,211.937381 C274.615843,212.654863 274.523705,213.267733 274.509382,214 C278.049041,214.06486 341.953339,214.009257 352.26001,214 Z" id="Shape"></path>
            <path d="M0.844050867,214 L22.8415144,191.846364 C25.6331458,188.456871 28.8350814,185.427347 32.3737485,182.827404 C36.3936119,181.078538 40.6190725,179.846626 44.9489652,179.16116 L72.2624823,171.828672 C73.2157058,171.572035 74.1689292,171.388723 75.3421272,171.168749 C75.6720892,172.121972 76.0387136,172.891883 76.2586882,173.698457 C79.6682951,186.310336 83.0779019,198.922215 86.3775214,211.534094 C86.5662049,212.294057 86.6556251,213.222779 86.6457821,214 C42.0781797,214 15.7979907,213.967952 0.844050867,214 Z M5.83014259,214 C16.6879462,214.020163 63.453725,213.994453 82.8589619,214 C82.8623244,213.121532 82.739391,212.27334 82.4913029,211.424107 C79.5949702,200.425375 76.6253126,189.426643 73.655655,178.427911 C73.399018,177.511351 72.9957311,176.59479 72.6657692,175.714891 C72.2268115,175.673118 71.784879,175.673118 71.3459214,175.714891 C59.3573038,178.904523 47.3320237,182.130818 35.3800686,185.393775 C34.4559957,185.685779 33.6056861,186.173456 32.8870227,186.82361 C23.7947378,195.769245 14.9590899,204.907715 5.83014259,214 Z" id="Shape"></path>
            <path d="M371,30.4583071 C371.005366,75.2313477 370.949313,150.172688 371,175.5811 C370.046777,174.737863 369.154915,173.918431 368.348341,173.14852 C361.015853,165.816032 353.940002,158.776844 346.790827,151.554344 C345.239126,149.922649 343.255612,148.765599 341.071486,148.218062 C331.20929,145.688353 321.420419,142.975333 311.741535,140.335637 C310.678324,140.042338 309.651776,139.675713 308.331928,139.272426 C308.588565,137.989241 308.771877,136.92603 309.065177,135.86282 C311.704872,125.927299 314.307906,115.955115 317.057589,106.019594 C317.614701,104.09148 317.614701,102.045056 317.057589,100.116941 C314.344568,90.1814204 311.704872,80.2458994 309.065177,70.273716 C308.771877,69.2105052 308.551903,68.1106321 308.258603,66.7907843 C309.651776,66.350835 310.788312,65.9475482 311.924847,65.6175862 C321.603731,63.014553 331.319277,60.4115198 341.034824,57.8818115 C343.227943,57.3509649 345.224499,56.2064425 346.790827,54.582192 C353.830015,47.2497042 360.979191,40.3571656 368.091704,33.2446524 C369.008265,32.4014163 369.79014,31.5948427 371,30.4583071 Z M316.17769,137.989241 C325.159988,140.408962 334.105623,142.828683 343.08792,145.321729 C345.030055,145.79716 346.797276,146.814266 348.183999,148.254724 C354.783239,154.96395 361.492465,161.599852 368.165029,168.272416 C369.008265,169.115652 369.533502,169.34629 371,170.666138 C371.056748,135.025225 370.973161,45.1834726 371,35.4411332 C370.144502,36.7172156 368.578863,37.9813736 367.57843,39.1473051 C361.199165,45.563232 354.746576,51.905834 348.440637,58.3950857 C346.959529,59.9140336 345.078083,60.9818813 343.014596,61.4747306 C333.665674,63.931114 324.353414,66.4608223 315.004492,68.8072184 C314.145095,69.080296 313.300688,69.3984785 312.474784,69.7604418 C312.804746,71.1536145 313.098045,72.363475 313.391345,73.4266857 C315.737741,82.298996 318.047474,91.1713063 320.503858,99.9702917 C321.131195,102.125311 321.131195,104.414511 320.503858,106.569531 C318.047474,115.405179 315.737741,124.277489 313.391345,133.113137 C313.134708,134.176347 312.878071,135.496195 312.548109,136.779381 C313.977944,137.255992 315.151142,137.659279 316.17769,137.989241 Z" id="Shape"></path>
            <path d="M241.532964,177.841312 C241.01969,179.894409 240.653065,181.507556 240.176454,183.267353 C237.793395,192.103001 235.520324,200.975312 232.843966,209.810959 C232.4633,211.079113 232.258166,212.690174 232.228564,214 C213.172399,214.015429 157.551837,214.029569 124.809523,214 C124.839389,212.916136 124.701705,211.962457 124.396471,210.910833 C121.68345,201.121961 119.11708,191.259765 116.514046,181.580881 C116.184084,180.407683 115.96411,179.197823 115.634148,177.914637 L133.745393,173.001871 C138.694822,171.682023 143.680914,170.325512 148.667006,169.042327 C150.739253,168.550803 152.624226,167.468217 154.093047,165.92602 C161.132235,158.593532 168.281411,151.700993 175.357261,144.551818 C176.257186,143.518587 177.08991,142.428697 177.850307,141.288861 C179.316805,142.608708 180.233366,143.37862 181.076602,144.221856 C188.189115,151.334369 195.338291,158.373557 202.340816,165.559395 C204.070354,167.369605 206.285296,168.64256 208.720081,169.225639 C218.215653,171.682023 227.637899,174.248393 237.096809,176.814764 C238.636631,176.924751 239.846492,177.328038 241.532964,177.841312 Z M228.53622,214 C228.540635,213.028009 228.681145,211.779684 228.957747,210.837508 C231.414131,201.891873 233.797189,192.872913 236.290235,183.890615 C236.620197,182.717417 236.766847,181.544219 237.023484,180.224371 L233.35724,179.16116 C224.374942,176.741439 215.429307,174.285056 206.410347,171.828672 C204.338554,171.315259 202.456218,170.221469 200.984306,168.675703 C194.568379,162.113126 188.042465,155.660537 181.553213,149.207947 C180.59999,148.254724 179.610104,147.411488 177.88697,145.761678 C177.11573,147.049446 176.245424,148.27523 175.283936,149.427922 C168.831347,155.953836 162.305433,162.406426 155.852844,168.93234 C154.540948,170.280506 152.876866,171.233225 151.050064,171.682023 C141.811129,174.101744 132.718845,176.59479 123.369923,179.014511 C122.306712,179.30781 121.316826,179.711097 120.106965,180.151046 C120.47359,181.654206 120.730227,182.864067 121.060189,184.073927 C123.443247,193.056225 125.899631,202.038522 128.172702,211.02082 C128.392515,211.943841 128.491218,213.05782 128.468811,214 C149.817425,213.999591 208.981654,214.047104 228.53622,214 Z" id="Shape"></path>
            <path d="M253.998193,122.33438 C251.028536,121.601131 248.425503,120.721232 245.749144,120.317945 C238.128175,119.3201 231.203414,115.370616 226.464701,109.319214 C224.584245,107.160767 222.589388,105.104718 220.488724,103.159924 L234.237139,89.4848341 C234.614175,89.1491657 235.067111,88.9101158 235.556986,88.7882478 L253.888206,83.8388185 C255.208054,88.5682731 256.271264,93.0777531 257.55445,97.4772458 C258.817034,101.160502 258.817034,105.159346 257.55445,108.842602 C256.527902,113.02212 255.318041,117.568262 253.998193,122.33438 Z M251.54181,87.8350243 L236.876834,91.8678926 C236.515806,91.9823184 236.188454,92.1837657 235.923611,92.4544917 L225.401491,102.939949 C227.601237,105.139696 229.690996,106.972818 231.414131,109.062577 C234.428022,112.797979 238.731005,115.269905 243.476073,115.991778 C246.152431,116.468389 248.755464,117.238301 251.651797,117.971549 C253.008307,112.985458 254.25483,108.402653 255.318041,103.819848 C255.440638,103.338702 255.440638,102.834496 255.318041,102.35335 C254.181505,97.6972205 252.861658,93.0044283 251.54181,87.8350243 Z" id="Shape"></path>
            <path d="M137.081675,102.976612 C132.278895,107.779391 127.879403,112.215546 123.406585,116.615039 C122.956348,117.053816 122.400844,117.369443 121.793438,117.5316 L103.79218,122.371042 C103.364152,121.581147 102.996479,120.760011 102.692307,119.914659 C101.372459,115.075217 100.052611,110.235775 98.8427507,105.249683 C98.4897969,104.059767 98.4269399,102.802627 98.6594385,101.583439 C100.015949,96.0840731 101.519109,90.5847073 102.985606,85.1953287 C103.1851,84.6618441 103.430433,84.1466441 103.718855,83.6555063 C109.841482,85.305316 115.854123,86.8818009 122.050075,88.5682731 C122.763337,88.8116802 123.405561,89.227237 123.919859,89.7781336 L137.081675,102.976612 Z M132.49887,102.7933 C130.46995,101.237259 128.558337,99.5339629 126.779529,97.6972205 C123.41403,93.4344197 118.549639,90.6154329 113.177764,89.8147961 C110.758043,89.4481717 108.411647,88.7149229 105.845277,88.0916614 C104.525429,92.9677658 103.315568,97.4405834 102.179033,101.913401 C102.023808,102.514584 102.023808,103.14534 102.179033,103.746523 C103.388893,108.439315 104.708741,113.132107 106.065251,118.228186 C111.124668,116.871676 115.81746,115.625153 120.510252,114.305305 C121.098701,114.09211 121.626952,113.739942 122.050075,113.278757 L132.49887,102.7933 Z" id="Shape"></path>
            <path d="M329.229518,214 C329.229518,214 301.036211,214.026451 291.147639,214 C291.026701,211.583891 291.37764,209.959742 292.200455,207.647876 C293.593628,203.50502 294.546851,199.215514 295.866699,194.63271 C302.282626,196.355844 308.441915,198.005654 314.564543,199.728789 C315.256206,200.008808 315.871796,200.448515 316.361002,201.011974 L329.229518,214 Z M324.390076,214 L314.454555,204.238269 C313.94998,203.684459 313.321954,203.257401 312.621433,202.991746 C307.928641,201.671898 303.235849,200.425375 298.213095,199.068865 C296.856585,204.128281 295.573399,209.270545 294.363539,214 C304.704523,214.0291 313.440728,213.900962 324.390076,214 Z" id="Shape"></path>
            <path d="M61.7036999,194.706034 L66.6531292,214 C49.4778633,214.05497 28.1942305,214 28.1942305,214 C32.7770354,209.417195 37.1032032,205.00818 41.4660335,200.718675 C42.1172996,200.141182 42.8963443,199.726529 43.7391047,199.508814 C49.6050949,197.822342 55.4344228,196.392507 61.7036999,194.706034 Z M62.9135604,214 C61.6670374,209.270545 60.3838521,203.981632 59.0640043,198.958877 C54.0412501,200.315388 49.3117954,201.561911 44.6190032,202.881758 C44.033095,203.099955 43.5059425,203.45139 43.0791808,203.908307 L32.8870227,214 C44.6768499,214.096501 52.5005478,214.003946 62.9135604,214 Z" id="Shape"></path>
            <path d="M331.942539,80.5025365 C338.321803,78.7794019 344.224456,77.0196048 350.273758,75.6264321 C353.197571,74.9585269 355.846308,73.4102315 357.862883,71.190277 C361.235828,67.524033 364.755422,64.2244135 368.238354,60.7781442 C369.118252,59.8982457 369.863464,58.7197794 371,57.6565686 C370.997175,67.0217591 371,131.679832 371,148.363357 C369.826802,147.410134 369.484877,146.714902 368.824953,146.018315 C364.792084,142.022109 360.795879,138.062566 356.836335,133.993035 C355.391688,132.431608 353.515975,131.334253 351.446957,130.840065 C346.09424,129.55688 340.778187,128.017058 335.425471,126.55056 C334.36226,126.257261 333.335712,125.853974 331.979201,125.450687 C333.299049,120.427933 334.325597,115.551828 335.902082,110.785711 C337.693964,105.821954 337.693964,100.387907 335.902082,95.4241492 C334.325597,90.731357 333.519024,85.8185902 331.942539,80.5025365 Z M358.926094,74.9298458 C357.349278,76.7443476 355.2486,78.0252491 352.913454,78.5960897 C348.257324,79.6593004 343.674519,81.0158107 339.091715,82.2623336 C338.175154,82.5189707 337.295255,82.9589199 336.268707,83.3622068 C337.661879,88.7149229 338.908402,93.8476644 340.411562,98.8704185 C341.343997,101.729306 341.343997,104.810517 340.411562,107.669404 C339.055052,111.995572 338.028504,116.395064 336.745318,120.757895 C336.576882,121.630751 336.454504,122.511869 336.378694,123.39759 C341.694748,124.827425 346.717502,126.330585 351.850243,127.503784 C354.783022,128.148893 357.438256,129.700986 359.439368,131.939939 C362.409026,135.166233 365.63532,138.209216 368.751628,141.288861 C369.448214,141.948785 370.010114,142.70081 371,143.507383 C371.038165,130.030528 371.036826,78.0889289 371,62.4962719 C366.710495,66.8591021 362.738988,70.8969774 358.926094,74.9298458 Z" id="Shape"></path>
            <path d="M139.758033,191.699714 C140.821244,191.33309 141.737805,190.966466 142.654366,190.709829 C148.227056,189.206669 153.653097,187.666846 159.372438,186.237011 C161.202989,185.797625 162.86954,184.843493 164.175217,183.487328 C168.794685,178.721211 173.524139,174.028419 178.436906,169.152314 C179.353467,169.885563 180.160041,170.4355 180.856627,171.095424 C184.96282,175.164954 189.069014,179.234485 193.101882,183.377341 C194.480908,184.827617 196.251204,185.846493 198.197961,186.310336 C203.807314,187.703509 209.196693,189.279993 214.952696,190.783153 C215.795932,191.003128 216.565843,191.33309 217.739041,191.736377 C216.639168,195.952557 215.869257,200.132075 214.402759,204.091619 C213.162214,207.290602 212.547157,210.626942 212.557588,214 C196.868709,214.010338 159.47045,213.999591 145.039197,214 C145.079901,213.055733 144.993764,212.350918 144.780787,211.424107 C143.497602,206.071391 141.957779,200.718675 140.564606,195.402621 C140.344632,194.156098 140.087995,193.12955 139.758033,191.699714 Z M208.646756,214 C209.108236,209.893925 210.055879,205.847689 211.469764,201.965197 C212.129688,199.325502 212.826274,196.722469 213.559523,193.826136 C209.196693,192.652938 205.273812,191.33309 201.240943,190.563179 C196.038122,189.774636 191.290354,187.147104 187.859153,183.157366 C185.146133,179.931072 181.919838,177.144726 178.730206,173.955094 C175.577236,177.071401 172.534253,179.674434 170.004545,182.717417 C166.415711,187.107782 161.341502,190.029692 155.742856,190.929803 C151.856638,191.62639 148.043744,192.9829 143.900888,194.119435 C145.367386,199.655464 146.613909,204.86153 148.153731,209.994272 C148.587974,211.359895 148.796209,212.583927 148.778435,214 C164.774334,214.001864 197.230998,214.064252 208.646756,214 Z" id="Shape"></path>
            <path d="M371,121.087857 C367.556704,115.919549 361.889523,112.610545 355.699799,112.105559 C356.678103,109.140443 357.341681,106.080613 357.679571,102.976612 C357.360297,100.016487 356.708482,97.1017656 355.736462,94.2876136 C358.686893,93.6658476 361.562762,92.7318045 364.315473,91.5012683 C366.76809,89.7522556 368.99366,87.7356208 371,85.4886282 C371,85.4886282 371.036855,111.081134 371,121.087857 Z M371,90.4835238 C368.372596,94.0503912 364.164757,96.1541414 359.76933,96.7073346 C361.494728,100.797899 361.494728,105.411961 359.76933,109.502526 C364.361259,109.896125 368.429266,112.349904 371,116.17509 C371,116.17509 371,100.766837 371,90.4835238 Z" id="Shape"></path>
            <path d="M178.253594,196.13587 C180.476155,198.548079 182.932322,200.734068 185.586082,202.661784 C188.362343,203.879705 191.263799,204.789484 194.238417,205.374804 C192.900128,208.117338 192.235421,211.025646 192.244296,214 C188.355947,214 170.259718,214 165.284666,214 C165.267329,210.969253 164.565856,208.192063 163.185331,205.411467 C169.307959,203.981632 174.917312,202.185172 178.253594,196.13587 Z M188.6119,214 C188.523189,211.691838 188.88232,209.414441 189.692275,207.207926 C184.596196,207.501226 181.773188,204.311594 178.693543,201.305274 C176.100374,204.892134 172.09817,207.200072 167.694811,207.647876 C168.473317,209.61302 168.874151,211.923513 168.897314,214 C176.207147,214 182.432491,214 188.6119,214 Z" id="Shape"></path>
        </g>
    </g>
</svg>