<?xml version="1.0" encoding="UTF-8"?>
<svg width="22px" height="16px" viewBox="0 0 22 16" version="1.1" xmlns="http://www.w3.org/2000/svg" xmlns:xlink="http://www.w3.org/1999/xlink">
    <!-- Generator: Sketch 43.1 (39012) - http://www.bohemiancoding.com/sketch -->
    <title>en</title>
    <desc>Created with Sketch.</desc>
    <defs>
        <rect id="path-1" x="0" y="0" width="22" height="16"></rect>
    </defs>
    <g id="Page-1" stroke="none" stroke-width="1" fill="none" fill-rule="evenodd">
        <g id="en">
            <mask id="mask-2" fill="white">
                <use xlink:href="#path-1"></use>
            </mask>
            <use id="Mask" fill="#06389B" xlink:href="#path-1"></use>
            <path d="M-1,-1 L6.81479622,6.05553961" id="Line" stroke="#D0011B" stroke-width="2" stroke-linecap="square" mask="url(#mask-2)"></path>
            <path d="M1,-2 L8.98183287,6.19871389" id="Line" stroke="#FFFFFF" stroke-width="2" stroke-linecap="square" mask="url(#mask-2)"></path>
            <path d="M13.9636657,-1 L22.4636657,6.19871389" id="Line" stroke="#D0011B" stroke-width="2" stroke-linecap="square" mask="url(#mask-2)" transform="translate(17.981833, 2.500000) scale(-1, 1) translate(-17.981833, -2.500000) "></path>
            <path d="M15.9636657,0 L24.4636657,6.19871389" id="Line" stroke="#FFFFFF" stroke-width="2" stroke-linecap="square" mask="url(#mask-2)" transform="translate(19.981833, 3.000000) scale(-1, 1) translate(-19.981833, -3.000000) "></path>
            <path d="M-1,9.39742778 L8.98183287,17.8974278" id="Line" stroke="#D0011B" stroke-width="2" stroke-linecap="square" mask="url(#mask-2)" transform="translate(4.000000, 13.698714) scale(1, -1) translate(-4.000000, -13.698714) "></path>
            <path d="M-2,9.39742778 L6.98183287,16.8974278" id="Line" stroke="#FFFFFF" stroke-width="2" stroke-linecap="square" mask="url(#mask-2)" transform="translate(2.500000, 13.198714) scale(1, -1) translate(-2.500000, -13.198714) "></path>
            <path d="M14.9636657,9.39742778 L23.4636657,16.8974278" id="Line" stroke="#D0011B" stroke-width="2" stroke-linecap="square" mask="url(#mask-2)" transform="translate(18.981833, 13.198714) scale(-1, -1) translate(-18.981833, -13.198714) "></path>
            <path d="M12.9636657,9.39742778 L22.4636657,17.8974278" id="Line" stroke="#FFFFFF" stroke-width="2" stroke-linecap="square" mask="url(#mask-2)" transform="translate(17.481833, 13.698714) scale(-1, -1) translate(-17.481833, -13.698714) "></path>
            <rect id="Rectangle-11" fill="#FFFFFF" mask="url(#mask-2)" x="0" y="6" width="22" height="4"></rect>
            <rect id="Rectangle-10" fill="#FFFFFF" mask="url(#mask-2)" x="9" y="0" width="4" height="16"></rect>
            <rect id="Rectangle-13" fill="#CF0F0E" mask="url(#mask-2)" x="0" y="7" width="22" height="2"></rect>
            <rect id="Rectangle-12" fill="#CF0F0E" mask="url(#mask-2)" x="10" y="0" width="2" height="16"></rect>
        </g>
    </g>
</svg>