<?xml version="1.0" encoding="UTF-8"?>
<svg width="16px" height="9px" viewBox="0 0 16 9" version="1.1" xmlns="http://www.w3.org/2000/svg" xmlns:xlink="http://www.w3.org/1999/xlink">
    <!-- Generator: Sketch 43.1 (39012) - http://www.bohemiancoding.com/sketch -->
    <title>vk</title>
    <desc>Created with Sketch.</desc>
    <defs></defs>
    <g id="Page-1" stroke="none" stroke-width="1" fill="none" fill-rule="evenodd">
        <path d="M8.48451109,8.52153837 C8.48451109,8.52153837 8.75526611,8.4916951 8.89370717,8.34274287 C9.02095041,8.20583358 9.01688327,7.94891739 9.01688327,7.94891739 C9.01688327,7.94891739 8.99934705,6.74589043 9.557601,6.56873235 C10.1081432,6.39410963 10.8149269,7.73140488 11.5640193,8.24565982 C12.1305131,8.63467868 12.5609956,8.54953294 12.5609956,8.54953294 L14.5641919,8.52153837 C14.5641919,8.52153837 15.6120339,8.45688676 15.1151567,7.63300133 C15.0744853,7.56570873 14.8257034,7.02356486 13.6256872,5.90969795 C12.3695234,4.74385622 12.5379133,4.93247623 14.0509405,2.91586372 C14.9723844,1.68774728 15.3406978,0.938021049 15.2256032,0.61692863 C15.115949,0.310995535 14.4381635,0.391810044 14.4381635,0.391810044 L12.182752,0.405754508 C12.182752,0.405754508 12.0154185,0.382989114 11.8915029,0.45714831 C11.7702811,0.529670089 11.6924774,0.699116458 11.6924774,0.699116458 C11.6924774,0.699116458 11.3353617,1.64940001 10.8594541,2.45770356 C9.85513573,4.16304816 9.4534929,4.25331744 9.28932852,4.147255 C8.90738753,3.90042741 9.00283317,3.15587753 9.00283317,2.62678019 C9.00283317,0.974044248 9.2535166,0.284955304 8.51467128,0.106582365 C8.26953393,0.0474240317 8.08894256,0.00828445581 7.46191704,0.001893243 C6.65709961,-0.00629384778 5.97609211,0.00437578021 5.59040091,0.193312707 C5.33380164,0.318971346 5.1358325,0.598917031 5.25647324,0.615027113 C5.40558394,0.63488741 5.74310336,0.70614151 5.92205732,0.949641436 C6.1532502,1.26418418 6.14516874,1.97028115 6.14516874,1.97028115 C6.14516874,1.97028115 6.27801089,3.91579802 5.83501005,4.15739642 C5.5310313,4.3231454 5.11396505,3.98478086 4.21856141,2.43757916 C3.75987305,1.64506877 3.41342706,0.768944419 3.41342706,0.768944419 C3.41342706,0.768944419 3.34671548,0.605255424 3.22755369,0.517627142 C3.08303833,0.411459062 2.8811077,0.37781276 2.8811077,0.37781276 L0.737780153,0.391810044 C0.737780153,0.391810044 0.416106715,0.400789434 0.297895688,0.540709456 C0.192731187,0.665258876 0.289497318,0.922544806 0.289497318,0.922544806 C0.289497318,0.922544806 1.96737555,4.84822843 3.86741445,6.82654648 C5.60978583,8.64059452 7.58794542,8.52153837 7.58794542,8.52153837 L8.48451109,8.52153837 Z" id="vk" fill="#fff"></path>
    </g>
</svg>