<?xml version="1.0" encoding="UTF-8"?>
<svg width="11px" height="11px" viewBox="0 0 11 11" version="1.1" xmlns="http://www.w3.org/2000/svg" xmlns:xlink="http://www.w3.org/1999/xlink">
    <!-- Generator: Sketch 43.1 (39012) - http://www.bohemiancoding.com/sketch -->
    <title>in</title>
    <desc>Created with Sketch.</desc>
    <defs></defs>
    <g id="Page-1" stroke="none" stroke-width="1" fill="none" fill-rule="evenodd">
        <g id="in" fill="#0071A1">
            <path d="M1.309,0 C2.03133333,0 2.61828205,0.586948718 2.61828205,1.31041026 C2.61828205,2.03302564 2.03133333,2.61997436 1.309,2.61997436 C0.58525641,2.61997436 0,2.03302564 0,1.31041026 C0,0.586948718 0.58525641,0 1.309,0 L1.309,0 Z M0.179384615,10.8815385 L2.43889744,10.8815385 L2.43889744,3.61307692 L0.179384615,3.61307692 L0.179384615,10.8815385 Z" id="Fill-12"></path>
            <path d="M3.85592308,3.61307692 L6.02264103,3.61307692 L6.02264103,4.60702564 L6.05366667,4.60702564 C6.35517949,4.03530769 7.09217949,3.43284615 8.19105128,3.43284615 C10.4784872,3.43284615 10.9007179,4.93787179 10.9007179,6.89502564 L10.9007179,10.8815385 L8.64261538,10.8815385 L8.64261538,7.34658974 C8.64261538,6.50353846 8.62823077,5.41933333 7.46871795,5.41933333 C6.29312821,5.41933333 6.11402564,6.33825641 6.11402564,7.28623077 L6.11402564,10.8815385 L3.85592308,10.8815385 L3.85592308,3.61307692" id="Fill-13"></path>
        </g>
    </g>
</svg>