<?xml version="1.0" encoding="UTF-8"?>
<svg width="199px" height="171px" viewBox="0 0 199 171" version="1.1" xmlns="http://www.w3.org/2000/svg" xmlns:xlink="http://www.w3.org/1999/xlink">
    <!-- Generator: Sketch 43.1 (39012) - http://www.bohemiancoding.com/sketch -->
    <title>material-cardboards</title>
    <desc>Created with Sketch.</desc>
    <defs>
        <rect id="path-1" x="0" y="0" width="349" height="202"></rect>
    </defs>
    <g id="Page-1" stroke="none" stroke-width="1" fill="none" fill-rule="evenodd">
        <g id="material-cardboards" transform="translate(-119.000000, -31.000000)">
            <mask id="mask-2" fill="white">
                <use xlink:href="#path-1"></use>
            </mask>
            <g id="Mask"></g>
            <g id="tech-offset" mask="url(#mask-2)" fill-rule="nonzero" fill="#FC9705">
                <g transform="translate(91.000000, 31.000000)" id="Shape">
                    <path d="M149.673548,0.483122363 L149.673548,57.4915612 L152.871075,57.4915612 L152.871075,0.483122363 M156.093011,0.483122363 L156.093011,57.4915612 L159.314946,57.4915612 L159.314946,0.483122363 M162.536882,0.483122363 L162.536882,57.4915612 L165.734409,57.4915612 L165.734409,0.483122363 M169.176022,0.483122363 L169.176022,57.4915612 L175.156129,57.4915612 L175.156129,28.9873418 L178.182796,28.9873418 L178.182796,57.4915612 L181.380323,57.4915612 L181.380323,28.9873418 L184.602258,28.9873418 L184.602258,57.4915612 L187.946237,57.4915612 L187.946237,28.9873418 L191.168172,28.9873418 L191.168172,57.4915612 L194.390108,57.4915612 L194.390108,28.9873418 L197.709677,28.9873418 L197.709677,57.4915612 L226.023656,57.4915612 L226.023656,54.7488871 L200.565484,54.7488871 L200.565484,51.222592 L226.12129,51.222592 L226.12129,48.039131 L200.565484,48.039131 L200.565484,44.9536227 L226.12129,44.9536227 L226.12129,41.7701618 L200.565484,41.7701618 L200.565484,38.5622127 L226.12129,38.5622127 L226.12129,35.3787518 L200.565484,35.3787518 L200.565484,32.1708027 L226.12129,32.1708027 L226.12129,26.2446677 L171.860968,26.2446677 L171.860968,22.8163252 L226.12129,22.8163252 L226.12129,19.6328643 L171.860968,19.6328643 L171.860968,16.4494033 L226.12129,16.4494033 L226.12129,13.2659424 L171.860968,13.2659424 L171.860968,10.0579933 L226.12129,10.0579933 L226.12129,6.87453239 L171.860968,6.87453239 L171.860968,3.66658329 L226.12129,3.66658329 L226.12129,0.483122363 L223.070215,0.483122363 L219.872688,0.483122363 L216.650753,0.483122363 L213.453226,0.483122363 L210.206882,0.483122363 L207.009355,0.483122363 L203.787419,0.483122363 L171.860968,0.483122363"></path>
                    <path d="M28.3627957,108.14106 L85.7962366,108.14106 L85.7962366,111.562563 L28.3627957,111.562563 L28.3627957,108.14106 Z M28.3627957,101.762401 L85.7962366,101.762401 L85.7962366,104.96395 L28.3627957,104.96395 L28.3627957,101.762401 Z M28.3627957,95.3837427 L85.7962366,95.3837427 L85.7962366,98.5608525 L28.3627957,98.5608525 L28.3627957,95.3837427 Z M28.3627957,91.9866793 L28.3627957,89.0295233 L85.7962366,89.0295233 L85.7962366,92.2310723 L28.3627957,92.2310723 L28.3627957,91.9866793 Z M28.3627957,85.8524136 L28.3627957,145.875348 L28.3627957,171.243347 L31.5603226,171.243347 L31.5603226,142.747117 L31.5603226,114.299765 L34.7822581,114.299765 L34.7822581,142.747117 L37.9797849,142.747117 L37.9797849,114.299765 L41.2017204,114.299765 L41.2017204,142.747117 L44.4236559,142.747117 L44.4236559,114.299765 L47.6455914,114.299765 L47.6455914,142.747117 L50.8431183,142.747117 L50.8431183,114.299765 L54.2847312,114.299765 L54.2847312,171.243347 L60.2892473,171.243347 L60.2892473,142.747117 L63.4623656,142.747117 L63.4623656,171.243347 L66.6598925,171.243347 L66.6598925,142.747117 L69.881828,142.747117 L69.881828,171.243347 L73.2258065,171.243347 L73.2258065,142.747117 L76.4477419,142.747117 L76.4477419,171.243347 L79.572043,171.243347 L79.572043,142.747117 L82.9892473,142.747117 L82.9892473,171.243347 L114.476344,171.243347 L114.476344,168.457266 L85.7962366,168.457266 L85.7962366,165.035763 L114.525161,165.035763 L114.525161,161.858654 L85.7962366,161.858654 L85.7962366,158.657105 L114.525161,158.657105 L114.525161,155.479995 L85.7962366,155.479995 L85.7962366,152.302885 L114.525161,152.302885 L114.525161,149.125776 L85.7962366,149.125776 L85.7962366,145.924226 L114.525161,145.924226 L114.525161,140.009915 L57.0673118,140.009915 L57.0673118,136.588412 L114.525161,136.588412 L114.525161,133.411302 L57.0673118,133.411302 L57.0673118,130.209753 L114.525161,130.209753 L114.525161,127.032643 L57.0673118,127.032643 L57.0673118,123.855534 L114.525161,123.855534 L114.525161,120.678424 L57.0673118,120.678424 L57.0673118,117.476875 L114.525161,117.476875 L114.476344,114.299765 L111.742581,114.299765 L88.9937634,114.299765 L88.9937634,85.8524136 L28.3627957,85.8524136 Z"></path>
                    <polygon points="47.6455914 165.035763 47.6455914 171.194468 50.8675269 171.194468 50.8675269 165.035763 50.8675269 142.747117 47.6455914 142.747117"></polygon>
                    <polygon points="41.226129 165.035763 41.226129 171.194468 44.4236559 171.194468 44.4236559 165.035763 44.4236559 142.747117 41.226129 142.747117"></polygon>
                    <polygon points="34.7822581 165.035763 34.7822581 171.194468 37.9797849 171.194468 37.9797849 165.035763 37.9797849 142.747117 34.7822581 142.747117"></polygon>
                    <polygon points="223.070215 63.563767 223.070215 57.405062 219.872688 57.405062 219.872688 63.563767 219.872688 85.8524136 223.070215 85.8524136"></polygon>
                    <polygon points="216.650753 63.563767 216.650753 57.405062 213.453226 57.405062 213.453226 63.563767 213.453226 85.8524136 216.650753 85.8524136"></polygon>
                    <polygon points="210.206882 63.563767 210.206882 57.405062 207.009355 57.405062 207.009355 63.563767 207.009355 85.8524136 210.206882 85.8524136"></polygon>
                    <path d="M143.132043,108.14106 L200.565484,108.14106 L200.565484,111.562563 L143.132043,111.562563 L143.132043,108.14106 Z M143.132043,101.762401 L200.565484,101.762401 L200.565484,104.96395 L143.132043,104.96395 L143.132043,101.762401 Z M143.132043,95.3837427 L200.565484,95.3837427 L200.565484,98.5608525 L143.132043,98.5608525 L143.132043,95.3837427 Z M143.132043,91.9866793 L143.132043,89.0295233 L200.565484,89.0295233 L200.565484,92.2310723 L143.132043,92.2310723 L143.132043,91.9866793 Z M117.625054,136.588412 L117.625054,85.8524136 L120.846989,85.8524136 L120.846989,142.747117 L117.625054,142.747117 L117.625054,136.588412 Z M124.044516,136.588412 L124.044516,85.8524136 L127.266452,85.8524136 L127.266452,142.747117 L124.044516,142.747117 L124.044516,136.588412 Z M130.488387,136.588412 L130.488387,85.8524136 L133.710323,85.8524136 L133.710323,142.747117 L130.488387,142.747117 L130.488387,136.588412 Z M136.932258,136.588412 L136.932258,85.8524136 L140.373871,85.8524136 L140.373871,142.747117 L136.932258,142.747117 L136.932258,136.588412 Z M165.636774,57.405062 L114.37871,57.405062 L114.37871,60.5821717 L171.860968,60.5821717 L171.860968,63.7104028 L114.427527,63.7104028 L114.427527,66.8875125 L171.860968,66.8875125 L171.860968,70.0890616 L114.427527,70.0890616 L114.427527,73.2661713 L171.860968,73.2661713 L171.860968,76.4677203 L114.427527,76.4677203 L114.427527,79.64483 L171.860968,79.64483 L171.860968,83.0663328 L114.427527,83.0663328 L114.427527,145.875348 L143.132043,145.875348 L143.132043,149.076897 L114.427527,149.076897 L114.427527,152.254007 L143.132043,152.254007 L143.132043,155.455556 L114.427527,155.455556 L114.427527,158.632665 L143.132043,158.632665 L143.132043,161.834214 L114.427527,161.834214 L114.427527,165.011324 L143.132043,165.011324 L143.132043,168.432827 L114.427527,168.432827 L114.427527,171.243347 L146.451613,171.243347 L146.451613,142.747117 L146.451613,142.747117 L146.451613,114.299765 L149.673548,114.299765 L149.673548,142.747117 L152.871075,142.747117 L152.871075,114.299765 L156.093011,114.299765 L156.093011,142.747117 L159.314946,142.747117 L159.314946,114.299765 L162.536882,114.299765 L162.536882,142.747117 L165.734409,142.747117 L165.734409,114.299765 L169.176022,114.299765 L169.176022,171.243347 L175.156129,171.243347 L175.156129,142.747117 L178.182796,142.747117 L178.182796,171.243347 L181.380323,171.243347 L181.380323,142.747117 L184.602258,142.747117 L184.602258,171.243347 L187.946237,171.243347 L187.946237,142.747117 L191.168172,142.747117 L191.168172,171.243347 L194.390108,171.243347 L194.390108,142.747117 L197.709677,142.747117 L197.709677,171.243347 L226.023656,171.243347 L226.023656,168.457266 L200.565484,168.457266 L200.565484,165.035763 L226.12129,165.035763 L226.12129,161.858654 L200.565484,161.858654 L200.565484,158.657105 L226.12129,158.657105 L226.12129,155.479995 L200.565484,155.479995 L200.565484,152.302885 L226.12129,152.302885 L226.12129,149.125776 L200.565484,149.125776 L200.565484,145.924226 L226.12129,145.924226 L226.12129,140.009915 L171.860968,140.009915 L171.860968,136.588412 L226.12129,136.588412 L226.12129,133.411302 L171.860968,133.411302 L171.860968,130.209753 L226.12129,130.209753 L226.12129,127.032643 L171.860968,127.032643 L171.860968,123.855534 L226.12129,123.855534 L226.12129,120.678424 L171.860968,120.678424 L171.860968,117.476875 L226.12129,117.476875 L226.12129,114.299765 L223.070215,114.299765 L223.070215,85.8524136 L219.872688,85.8524136 L219.872688,114.299765 L216.650753,114.299765 L216.650753,85.8524136 L213.453226,85.8524136 L213.453226,114.299765 L210.206882,114.299765 L210.206882,85.8524136 L207.009355,85.8524136 L207.009355,114.299765 L203.787419,114.299765 L203.787419,85.8524136 L203.787419,85.8524136 L203.787419,57.405062 L197.709677,57.405062 L197.709677,85.8524136 L194.365699,85.8524136 L194.365699,57.405062 L191.143763,57.405062 L191.143763,85.8524136 L187.946237,85.8524136 L187.946237,57.405062 L184.724301,57.405062 L184.724301,85.8524136 L181.502366,85.8524136 L181.502366,57.405062 L178.182796,57.405062 L178.182796,85.8524136 L175.058495,85.8524136 L175.058495,57.405062 L165.636774,57.405062 L165.636774,57.405062 Z"></path>
                    <polygon points="162.439247 165.035763 162.439247 171.194468 165.636774 171.194468 165.636774 165.035763 165.636774 142.747117 162.439247 142.747117"></polygon>
                    <polygon points="155.995376 165.035763 155.995376 171.194468 159.217312 171.194468 159.217312 165.035763 159.217312 142.747117 155.995376 142.747117"></polygon>
                    <polygon points="149.575914 165.035763 149.575914 171.194468 152.773441 171.194468 152.773441 165.035763 152.773441 142.747117 149.575914 142.747117"></polygon>
                </g>
            </g>
        </g>
    </g>
</svg>