<?xml version="1.0" encoding="UTF-8"?>
<svg width="201px" height="142px" viewBox="0 0 201 142" version="1.1" xmlns="http://www.w3.org/2000/svg" xmlns:xlink="http://www.w3.org/1999/xlink">
    <!-- Generator: Sketch 43.1 (39012) - http://www.bohemiancoding.com/sketch -->
    <title>material-sticker</title>
    <desc>Created with Sketch.</desc>
    <defs></defs>
    <g id="Page-1" stroke="none" stroke-width="1" fill="none" fill-rule="evenodd">
        <g id="material-sticker" fill-rule="nonzero" fill="#790000">
            <path d="M124.6011,140.977062 C133.876397,141.029253 142.84793,137.66749 149.81239,131.530029 L102.773143,131.530029 C102.777699,132.345109 102.464415,133.129761 101.900024,133.716842 C108.495096,138.511246 116.453055,141.056347 124.6011,140.977062" id="Shape" transform="translate(125.856207, 136.254445) scale(1, -1) translate(-125.856207, -136.254445) "></path>
            <path d="M198.358817,44.5618681 C199.015501,44.0358868 199.831826,43.7504187 200.672581,43.7527473 L200.672581,0.0164835165 C188.015589,11.8002459 186.99102,31.5256193 198.358817,44.5618681" id="Shape"></path>
            <path d="M198.358817,138.572967 C199.011687,138.037558 199.828871,137.744066 200.672581,137.741978 L200.672581,94.0057143 C188.015589,105.789477 186.99102,125.51485 198.358817,138.551099" id="Shape"></path>
            <path d="M150.119032,141.065934 L197.136452,141.065934 C197.132998,140.246843 197.454997,139.460035 198.031398,138.879121 C191.46368,134.069743 183.53084,131.494681 175.395806,131.531429 C166.085803,131.483119 157.085378,134.878117 150.119032,141.065934 Z" id="Shape"></path>
            <path d="M190.457097,70.5193407 C190.502262,79.4269121 194.195268,87.9253927 200.672581,94.0275824 L200.672581,50.2913187 C199.824349,50.298661 198.999507,50.0129103 198.336989,49.4821978 C193.267187,55.3165802 190.462397,62.7839109 190.435269,70.5193407" id="Shape"></path>
            <path d="M150.119032,47.032967 C163.656806,58.8962495 183.58431,59.8037123 198.140538,49.2197802 C197.568164,48.6361982 197.246876,47.8511266 197.245591,47.032967 C197.242138,46.2138755 197.564137,45.4270677 198.140538,44.8461538 C183.586784,34.2539565 163.653594,35.1616782 150.119032,47.032967" id="Shape"></path>
            <path d="M149.966237,47.032967 C137.309245,58.8167294 136.284676,78.5421029 147.652473,91.5783516 C149.000257,90.4802222 150.932216,90.4802222 152.28,91.5783516 C163.647798,78.5421029 162.623228,58.8167294 149.966237,47.032967" id="Shape"></path>
            <path d="M152.607419,91.8626374 C153.194055,92.4384789 153.524639,93.2266484 153.524639,94.0494505 C153.524639,94.8722527 153.194055,95.6604222 152.607419,96.2362637 C167.139117,106.769929 187.004325,105.863243 200.519785,94.0494505 C187.011343,82.2391759 167.154071,81.3324384 152.629247,91.8626374" id="Shape"></path>
            <path d="M152.28,96.4768132 C150.929266,97.5665907 149.003208,97.5665907 147.652473,96.4768132 C136.256124,109.519434 137.281385,129.277509 149.966237,141.065934 C162.623228,129.282172 163.647798,109.556798 152.28,96.5205495" id="Shape"></path>
            <path d="M124.602151,84.5149451 C115.297151,84.4504584 106.296003,87.8301546 99.3253763,94.0057143 C112.840837,105.819507 132.706045,106.726193 147.237742,96.1925275 C146.651106,95.6166859 146.320522,94.8285165 146.320522,94.0057143 C146.320522,93.1829121 146.651106,92.3947427 147.237742,91.8189011 C140.664667,87.0250922 132.732287,84.4655058 124.602151,84.5149451" id="Shape"></path>
            <path d="M89.0444086,117.513956 C89.0682503,125.256561 91.8731244,132.731879 96.946129,138.572967 C97.598099,138.035967 98.4158693,137.742265 99.2598925,137.741978 C100.10455,137.738589 100.923527,138.032725 101.573656,138.572967 C106.643458,132.738585 109.448248,125.271254 109.475376,117.535824 C109.425087,108.629336 105.732922,100.132792 99.2598925,94.0275824 C92.7868629,100.132792 89.0946976,108.629336 89.0444086,117.535824" id="Shape"></path>
            <path d="M73.9831183,131.531429 C64.6731147,131.483119 55.6726895,134.878117 48.7063441,141.065934 L95.7237634,141.065934 C95.7192068,140.250854 96.0324907,139.466203 96.5968817,138.879121 C90.0372997,134.070029 82.1114172,131.494741 73.9831183,131.531429" id="Shape"></path>
            <path d="M0.488387097,138.879121 C1.06275907,139.461381 1.38439818,140.247311 1.38333333,141.065934 L48.3789247,141.065934 C41.4061445,134.893965 32.4064187,131.514802 23.1021505,131.575165 C14.979227,131.528865 7.05474132,134.088373 0.488387097,138.879121" id="Shape"></path>
            <path d="M73.8303226,84.5149451 C65.6955277,84.4797348 57.7631555,87.0546457 51.1947312,91.8626374 C51.7869499,92.4354492 52.12143,93.2247514 52.12143,94.0494505 C52.12143,94.8741497 51.7869499,95.6634519 51.1947312,96.2362637 C65.7264285,106.769929 85.5916365,105.863243 99.1070968,94.0494505 C92.1353928,87.875687 83.1349565,84.496258 73.8303226,84.5586813" id="Shape"></path>
            <path d="M50.8673118,96.4768132 C50.2114949,97.0043627 49.3945989,97.2900304 48.5535484,97.2859341 C47.7122002,97.291822 46.8947221,97.0059506 46.2397849,96.4768132 C41.1699827,102.311196 38.3651931,109.778526 38.3380645,117.513956 C38.3764131,126.435665 42.0695563,134.950272 48.5535484,141.065934 C55.0287178,134.962233 58.7213032,126.464722 58.7690323,117.557692 C58.7419037,109.822263 55.9371141,102.354932 50.8673118,96.5205495" id="Shape"></path>
        </g>
    </g>
</svg>