<?xml version="1.0" encoding="UTF-8"?>
<svg width="264px" height="153px" viewBox="0 0 264 153" version="1.1" xmlns="http://www.w3.org/2000/svg" xmlns:xlink="http://www.w3.org/1999/xlink">
    <!-- Generator: Sketch 43.1 (39012) - http://www.bohemiancoding.com/sketch -->
    <title>material-envelopes</title>
    <desc>Created with Sketch.</desc>
    <defs></defs>
    <g id="Page-1" stroke="none" stroke-width="1" fill="none" fill-rule="evenodd">
        <g id="material-envelopes" fill="#C12762">
            <path d="M200.265013,36.8332799 L203.413252,35.9462194 C213.820654,33.1545878 224.045927,30.3629562 234.401292,27.6235047 C235.867043,27.2614548 237.201532,26.4929188 238.25203,25.4058534 C245.771378,17.7875691 253.368782,10.2214648 260.914148,2.62927046 C261.59063,1.92484006 262.483749,1.08995959 263.290323,0.0202689795 C263.296211,15.9488598 263.290323,146.228712 263.290323,146.228712 C262.45773,145.446012 261.668685,144.819851 260.992204,144.141511 C253.464183,136.679767 245.953508,129.104966 238.460178,121.417108 C237.278978,120.208806 235.782055,119.358821 234.141107,118.964647 C223.733705,116.225195 213.326302,113.381383 202.9189,110.563662 C202.086308,110.328852 201.253716,110.041862 200.31705,109.728781 L204.766214,93.0050819 C206.353343,87.0565585 207.992509,81.1080351 209.475564,75.1334217 C209.758695,73.9412542 209.758695,72.6990772 209.475564,71.5069096 C206.717602,60.8882736 203.855567,50.2696376 201.019549,39.6510015 C200.759364,38.790031 200.577235,37.9290605 200.265013,36.8332799 Z M203.231122,38.6074009 C203.569363,39.9640817 203.829548,40.9815923 204.115752,42.0251929 C206.717602,51.8611285 209.319453,61.7231541 211.921303,71.5329997 C212.266777,72.7258918 212.266777,73.9927096 211.921303,75.1856017 C209.319453,85.0998074 206.717602,95.040103 203.959641,104.954309 C203.699456,105.945729 203.465289,106.96324 203.205104,108.08511 L206.275288,108.998261 C216.006208,111.607262 225.711111,114.216264 235.442032,116.825265 C236.98804,117.210251 238.394687,118.024008 239.500919,119.173367 C246.66468,126.408998 253.854461,133.618538 261.070259,140.801989 C261.746741,141.480329 262.067453,142.10649 263.290323,143.25445 C263.290564,127.304362 263.305414,12.5703259 263.290323,3.90768119 L261.044241,6.12533245 C253.915171,13.2739965 246.760082,20.3965706 239.683048,27.5713247 C238.575082,28.7184558 237.169114,29.5318207 235.624161,29.919426 C226.049351,32.5284275 216.50056,35.137429 207.003806,37.5898904 L203.231122,38.6074009 Z" id="Shape"></path>
            <path d="M127.413198,79.151284 C127.917761,79.9980563 128.492177,80.8009573 129.13042,81.5515654 C136.675786,89.1698497 144.27319,96.735954 151.792538,104.354238 C152.899639,105.50248 154.305946,106.31604 155.851424,106.70234 C166.102715,109.415701 176.354007,112.155153 186.605298,114.920694 L189.805574,115.859935 C189.545389,116.955716 189.363259,117.921046 189.129093,118.834197 C186.33644,129.374563 183.517768,139.906232 180.673078,150.429205 C180.510612,151.007132 180.426766,151.69357 180.421541,152.288372 C156.700526,152.298609 95.3010796,152.305477 73.2539884,152.288372 C73.2699883,151.576368 73.1794872,150.937965 72.9824853,150.246574 C70.1551411,139.810569 67.3624882,129.374563 64.6045267,118.938557 C64.3443416,117.999316 64.1622121,117.060076 63.8760085,115.912115 C65.0208227,115.572945 66.0095259,115.233775 67.0242476,114.972874 C77.2755387,112.224726 87.5268297,109.485275 97.7781208,106.75452 C99.4257614,106.307967 100.913982,105.403536 102.071174,104.145518 C109.538485,96.5794139 117.057833,89.0915797 124.551163,81.5515654 C125.202652,80.8136317 125.810778,80.0383182 126.372458,79.229554 L127.413198,79.151284 Z M66.7380441,117.581876 L67.6226733,120.999668 C70.2245238,130.757333 72.8263743,140.514999 75.4282248,150.272664 C75.606842,150.892078 75.6989095,151.649945 75.7044272,152.288372 C99.6844414,152.310473 150.176236,152.292364 177.929308,152.288372 C177.940982,151.675125 178.031652,151.102935 178.20132,150.507475 C180.803171,140.671539 183.405021,130.835603 186.006872,120.999668 C186.267057,119.982157 186.501224,118.964647 186.761409,117.842776 L183.977429,117.033986 C174.168452,114.424984 164.359476,111.815983 154.524481,109.206981 C152.973104,108.831222 151.557893,108.026764 150.439575,106.88497 C143.284486,99.6319456 136.07736,92.4311016 128.896253,85.2302575 C128.219772,84.5519171 127.517272,83.9257567 126.710699,83.1691463 L124.447089,85.3867975 C117.318018,92.5354616 110.197621,99.6841257 103.085896,106.83279 C101.98054,107.983273 100.573549,108.797229 99.027009,109.180891 C92.2101607,110.955012 85.4193308,112.807403 78.6024825,114.633704 L66.7380441,117.581876 Z" id="Shape"></path>
            <path d="M190.03974,42.6774432 C190.508073,44.3472042 190.898351,45.808245 191.288629,47.2431958 C193.448164,55.2789204 195.6077,63.288555 197.689181,71.3242795 C197.984562,72.5237996 197.984562,73.7773615 197.689181,74.9768816 C195.321497,84.1344768 192.82372,93.239892 190.377981,102.423577 C190.19891,102.965088 189.99045,103.496378 189.753537,104.015068 L175.209192,100.153746 C170.655954,98.9275152 166.102715,97.5447445 161.523459,96.4750539 C160.059574,96.1229912 158.724704,95.36328 157.67272,94.2834926 C151.40226,87.917529 145.079763,81.6037454 138.783285,75.2899618 C138.158841,74.6638014 137.586434,74.0115511 136.597731,72.9679505 C137.690508,72.08089 138.731248,71.3764596 139.615877,70.4893991 C145.565442,64.5756624 151.488988,58.627139 157.386516,52.6438289 C158.531101,51.3832691 160.011857,50.4778874 161.653551,50.0348274 C170.36975,47.7649961 179.059931,45.3908048 187.672056,43.0427035 C188.452611,42.9905234 189.051037,42.8861634 190.03974,42.6774432 Z M188.192426,100.910356 C188.47863,100.127656 188.738815,99.4754056 188.920945,98.8231552 C191.028443,90.9961507 193.161961,83.1691463 195.165386,75.3421418 C195.481717,74.0569236 195.481717,72.7138578 195.165386,71.4286396 C193.161961,63.6016352 191.054462,55.7746307 188.972982,48.1302563 C188.764834,47.3736459 188.47863,46.6431255 188.218445,45.8604251 C187.724093,45.8604251 187.385853,45.8604251 187.047612,46.0691452 C178.695672,48.2867964 170.343732,50.5044477 162.01781,52.800369 C161.025865,53.1450016 160.132756,53.7271183 159.41596,54.49622 C153.509759,60.3403833 147.681614,66.2106366 141.82745,72.10698 C141.411154,72.5244202 141.072913,73.0201305 140.682636,73.4897508 C141.020876,73.907191 141.229024,74.2202712 141.48921,74.4550813 C147.525503,80.5340548 153.561796,86.6130282 159.702163,92.7180917 C160.548334,93.4807864 161.565999,94.026823 162.668273,94.3095826 C170.473824,96.4750539 178.279376,98.536165 186.084927,100.623366 C186.683353,100.597276 187.25576,100.727726 188.166408,100.884266 L188.192426,100.910356 Z" id="Shape"></path>
            <path d="M63.745916,104.067248 C63.4076754,102.997558 63.0954534,102.188767 62.8612868,101.458247 C60.5456398,92.8224518 58.2299929,84.2127469 55.9924014,75.5508619 C55.6454753,74.3640819 55.5918956,73.1104519 55.8362904,71.8982599 C58.2299929,62.6363046 60.7277694,53.4265294 63.2255459,44.1906641 C63.3807531,43.7449787 63.5632291,43.3093178 63.7719345,42.8861634 C64.5524896,43.0166134 65.2549893,43.1209735 65.9054519,43.2775136 C74.7777622,45.6517049 83.6500725,48.0258963 92.4963642,50.4783577 C93.5217721,50.7298606 94.4692255,51.2317777 95.2543258,51.9393985 C102.175248,58.7749824 109.018115,65.6888363 115.887,72.6026903 C116.137578,72.884927 116.372116,73.1810821 116.5895,73.4897508 C115.991074,74.1420011 115.470704,74.7420715 114.924316,75.2899618 C108.549782,81.6820154 102.201267,88.1001591 95.8007144,94.4139427 C94.9408902,95.3007895 93.8780066,95.9635588 92.7045123,96.3446038 C83.1817394,98.8753352 73.632948,101.406067 63.745916,104.067248 Z M65.5151743,45.677795 C65.2549893,46.4604954 64.9948042,47.0083857 64.8386932,47.6084561 C62.6791573,55.6180906 60.4936028,63.6277252 58.4381409,71.6895398 C58.1769483,72.9877583 58.2304865,74.3298905 58.594252,75.603042 C60.5456398,83.1952363 62.6271203,90.7874306 64.6565637,98.3796249 C64.8907302,99.2145054 65.1769338,100.049386 65.4111003,100.805996 C65.7485332,100.839144 66.0883891,100.839144 66.425822,100.805996 C74.8558177,98.536165 83.2858134,96.3185138 91.6897906,93.9704124 C92.6756206,93.6389248 93.5678358,93.0752844 94.2916411,92.3267415 C100.119786,86.5608482 105.895894,80.7166849 111.698021,74.8986116 C112.192373,74.4029013 112.58265,73.855011 112.998946,73.3332107 C112.816659,73.0595376 112.61676,72.7980821 112.400521,72.5505102 C106.286172,66.4193568 100.197842,60.2621133 94.0574746,54.2874999 C93.2152303,53.5136654 92.1968971,52.9583129 91.091365,52.6699189 C85.0030347,50.974068 78.888686,49.356487 72.8784113,47.7389061 L65.5151743,45.677795 Z" id="Shape"></path>
            <path d="M192.247154,152.288372 C192.237697,151.782825 192.282313,151.424443 192.381406,150.924915 C194.801127,141.58469 197.324922,132.270554 199.822698,122.956419 C199.958681,122.587169 200.123995,122.229457 200.31705,121.886728 C201.045568,122.043268 201.748068,122.147628 202.39853,122.330259 C211.270841,124.70445 220.143151,127.052551 228.989443,129.478923 C230.014085,129.732444 230.961072,130.234115 231.747404,130.939963 C238.850456,137.958177 245.901471,145.087528 253.082578,152.288372 C241.743628,152.301505 199.291859,152.318737 192.247154,152.288372 Z M249.990975,152.288372 C249.823178,152.03441 249.141788,151.757622 248.945636,151.524985 C242.831287,145.393832 236.768976,139.236588 230.60259,133.261975 C229.75912,132.489863 228.741236,131.934755 227.63648,131.644394 C219.830929,129.478923 212.025377,127.417811 204.219826,125.33061 C203.543344,125.14798 202.866863,125.0958 202.06029,124.93926 C201.826123,125.53933 201.591957,126.008951 201.461864,126.504661 C199.27631,134.618656 197.090755,142.70656 195.009275,150.820555 C194.888663,151.331135 194.823274,151.76727 194.81311,152.288372 C197.325126,152.334528 242.676563,152.29496 249.990975,152.288372 Z" id="Shape"></path>
            <path d="M0.599003841,152.288372 L16.210107,136.523227 C18.1912647,134.111169 20.4636062,131.955275 22.9749183,130.105083 C25.8277246,128.860541 28.8264385,127.983878 31.8992656,127.496082 L51.283052,122.278079 C51.9595331,122.095448 52.6360143,121.964998 53.4686064,121.808458 C53.702773,122.486799 53.962958,123.034689 54.1190691,123.608669 C56.53879,132.583634 58.958511,141.5586 61.3001765,150.533565 C61.4340809,151.074376 61.4975404,151.73528 61.4905551,152.288372 C29.861934,152.288372 11.2114772,152.265566 0.599003841,152.288372 Z M4.13752055,152.288372 C11.8430586,152.302721 45.0316758,152.284425 58.8031342,152.288372 C58.8055205,151.66323 58.7182775,151.059632 58.5422149,150.455295 C56.486753,142.62829 54.3792541,134.801286 52.2717552,126.974281 C52.0896256,126.322031 51.8034221,125.66978 51.5692555,125.04362 C51.2577372,125.013893 50.9441077,125.013893 50.6325894,125.04362 C42.1245382,127.313451 33.5904684,129.609373 25.1084357,131.931384 C24.4526421,132.139182 23.8491966,132.486227 23.3391774,132.948895 C16.8865881,139.314858 10.6161283,145.818048 4.13752055,152.288372 Z" id="Shape"></path>
            <path d="M263.290323,21.6749813 C263.294131,53.5367265 263.254351,106.867076 263.290323,124.94841 C262.613841,124.34834 261.980907,123.765209 261.4085,123.217319 C256.204799,117.999316 251.183228,112.990033 246.109619,107.8503 C245.008412,106.689141 243.600757,105.865752 242.050732,105.476109 C235.051754,103.675898 228.104813,101.745237 221.235928,99.8667558 C220.481391,99.6580357 219.752873,99.3971355 218.816207,99.1101454 C218.998337,98.1969948 219.128429,97.4403844 219.336577,96.683774 C221.20991,89.6133799 223.057223,82.5168959 225.008611,75.4465019 C225.403981,74.0744019 225.403981,72.6181095 225.008611,71.2460095 C223.083242,64.1756155 221.20991,57.1052215 219.336577,50.0087374 C219.128429,49.252127 218.972318,48.4694265 218.76417,47.530186 C219.752873,47.2171058 220.559447,46.9301157 221.366021,46.6953055 C228.234906,44.8429145 235.12981,42.9905234 242.024714,41.1903124 C243.581121,40.8125471 244.998032,39.998073 246.109619,38.8422111 C251.105172,33.6242081 256.178781,28.7192853 261.226371,23.6578224 C261.876833,23.0577521 262.431712,22.4837718 263.290323,21.6749813 Z M224.384167,98.1969948 C230.758701,99.9189358 237.107216,101.640877 243.48175,103.414998 C244.860039,103.753328 246.114196,104.477129 247.098322,105.502199 C251.781653,110.276672 256.54304,114.998964 261.278408,119.747347 C261.876833,120.347417 262.249582,120.511546 263.290323,121.450786 C263.330595,96.0877183 263.271276,32.1538201 263.290323,25.2208994 C262.683195,26.1289953 261.572096,27.0286054 260.862111,27.8583148 C256.334892,32.4240674 251.755635,36.93764 247.280452,41.5555726 C246.229343,42.6364983 244.894124,43.3964085 243.429713,43.7471339 C236.794994,45.4951649 230.186294,47.2953759 223.551575,48.9651368 C222.94168,49.1594665 222.342423,49.385894 221.756298,49.6434772 C221.990465,50.6348978 222.198613,51.4958683 222.406761,52.2524787 C224.071945,58.5662623 225.711111,64.8800459 227.454351,71.1416494 C227.899558,72.6752214 227.899558,74.3042802 227.454351,75.8378521 C225.711111,82.1255457 224.071945,88.4393293 222.406761,94.7270229 C222.224631,95.4836333 222.042502,96.4228738 221.808335,97.3360243 C222.823057,97.6751945 223.655649,97.9621847 224.384167,98.1969948 Z" id="Shape"></path>
            <path d="M171.410491,126.556841 C171.046231,128.017882 170.786046,129.165842 170.447806,130.418163 C168.756603,136.705857 167.143456,143.01964 165.244105,149.307334 C164.973955,150.209788 164.828376,151.356263 164.807368,152.288372 C151.283638,152.299352 111.810981,152.309415 88.5745,152.288372 C88.5956951,151.517064 88.4979839,150.8384 88.2813664,150.090034 C86.355997,143.124 84.5347016,136.105786 82.6873878,129.218022 C82.4532212,128.383142 82.2971102,127.522172 82.0629437,126.609021 L94.9160852,123.112959 C98.4285834,122.173718 101.9671,121.208388 105.505617,120.295237 C106.976244,119.945455 108.313967,119.175057 109.356356,118.077586 C114.351909,112.859583 119.425517,107.95466 124.447089,102.867107 C125.085745,102.131832 125.676711,101.356236 126.216347,100.545096 C127.257087,101.484337 127.90755,102.032227 128.505975,102.632297 C133.553565,107.69376 138.627174,112.703043 143.596708,117.816686 C144.824122,119.104882 146.396016,120.010752 148.123928,120.425687 C154.862721,122.173718 161.549477,124.00002 168.262251,125.826321 C169.355029,125.904591 170.213639,126.191581 171.410491,126.556841 Z M162.186995,152.288372 C162.190128,151.596676 162.289845,150.708333 162.486143,150.037854 C164.229383,143.671891 165.920586,137.253747 167.689844,130.861693 C167.924011,130.026813 168.028085,129.191932 168.210214,128.252692 L165.608364,127.496082 C159.23383,125.774141 152.885315,124.02611 146.484763,122.278079 C145.014458,121.912719 143.678607,121.134348 142.634024,120.034337 C138.080785,115.364225 133.449491,110.772382 128.844216,106.180539 C128.167735,105.502199 127.465235,104.902129 126.242365,103.728078 C125.695034,104.64449 125.077397,105.516791 124.395052,106.337079 C119.815795,110.981102 115.184501,115.572945 110.605244,120.216967 C109.674221,121.17636 108.493259,121.854342 107.19682,122.173718 C100.640156,123.895659 94.1875671,125.66978 87.5528482,127.391721 C86.7983116,127.600442 86.095812,127.887432 85.2372013,128.200512 C85.4973863,129.270203 85.6795159,130.131173 85.9136824,130.992143 C87.6048853,137.384197 89.3481251,143.776251 90.9612724,150.168304 C91.1172689,150.825152 91.1873161,151.617891 91.1714141,152.288372 C106.322044,152.288081 148.309561,152.321893 162.186995,152.288372 Z" id="Shape"></path>
            <path d="M180.256782,87.0565585 C178.149283,86.5347582 176.30197,85.9085978 174.402619,85.6216077 C168.994189,84.9115128 164.079842,82.1009501 160.716885,77.7946032 C159.382367,76.258592 157.966662,74.7954502 156.475869,73.4114807 L166.232808,63.6799052 C166.500382,63.4410342 166.821821,63.2709196 167.169474,63.1841949 L180.178727,59.6620429 C181.115393,63.0276548 181.86993,66.2367267 182.780577,69.3675284 C183.676605,71.9886362 183.676605,74.8343252 182.780577,77.455433 C182.052059,80.4296947 181.193448,83.6648566 180.256782,87.0565585 Z M178.513542,62.5058545 L168.10614,65.3757562 C167.849927,65.4571847 167.617613,65.6005402 167.429659,65.7931964 L159.962348,73.2549406 C161.523459,74.8203415 163.006513,76.1248423 164.229383,77.6119731 C166.368274,80.2701895 169.422004,82.0292811 172.789471,82.5429859 C174.688822,82.8821561 176.536136,83.4300464 178.591598,83.9518467 C179.554283,80.4036047 180.438912,77.1423529 181.193448,73.881101 C181.280453,73.5387042 181.280453,73.1798972 181.193448,72.8375004 C180.386875,69.5240685 179.450209,66.1845466 178.513542,62.5058545 Z" id="Shape"></path>
            <path d="M97.2837692,73.2810307 C93.875345,76.6988226 90.7531244,79.8557144 87.5788668,82.9865162 C87.2593438,83.2987618 86.8651155,83.5233708 86.4340525,83.6387666 L73.6589665,87.0826485 C73.355205,86.5205373 73.0942758,85.9361938 72.8784113,85.3346175 C71.9417451,81.8907356 71.0050789,78.4468536 70.1464683,74.8986116 C69.8959849,74.0518343 69.8513767,73.1572186 70.0163757,72.2896101 C70.9790604,68.3761079 72.0458191,64.4626056 73.0865594,60.6273735 C73.2281354,60.2477309 73.402243,59.8811002 73.6069295,59.5315928 C77.9520198,60.7056435 82.2190547,61.8275141 86.6161821,63.0276548 C87.122368,63.2008701 87.57814,63.4965919 87.9431258,63.8886253 L97.2837692,73.2810307 Z M94.031456,73.1505806 C92.5915773,72.0432589 91.2349486,70.8311457 89.9725692,69.5240685 C87.5841504,66.4905405 84.1320019,64.4844709 80.3197038,63.9147153 C78.6024825,63.6538152 76.9372981,63.1320149 75.1160028,62.6884846 C74.1793366,66.1584566 73.3207259,69.3414384 72.5141522,72.5244202 C72.4039928,72.9522385 72.4039928,73.4011027 72.5141522,73.828921 C73.3727629,77.1684429 74.3094291,80.5079648 75.2721138,84.1344768 C78.8626675,83.1691463 82.1930362,82.2820858 85.5234048,81.3428452 C85.9410137,81.1911294 86.3159017,80.9405171 86.6161821,80.6123248 L94.031456,73.1505806 Z" id="Shape"></path>
            <path d="M233.646755,152.288372 C233.646755,152.288372 213.638601,152.307195 206.620905,152.288372 C206.535078,150.569001 206.784131,149.413212 207.368065,147.768023 C208.356768,144.819851 209.033249,141.76732 209.969915,138.506068 C214.523154,139.732298 218.894263,140.906349 223.239353,142.13258 C223.730211,142.33185 224.167081,142.644757 224.51426,143.04573 L233.646755,152.288372 Z M230.212312,152.288372 L223.161297,145.341652 C222.803212,144.947545 222.357515,144.643639 221.860372,144.454591 C218.530003,143.515351 215.199635,142.62829 211.6351,141.66296 C210.672415,145.263382 209.761767,148.92276 208.903157,152.288372 C216.241919,152.30908 222.441807,152.217894 230.212312,152.288372 Z" id="Shape"></path>
            <path d="M43.7897225,138.558248 L47.3022207,152.288372 C35.1133223,152.32749 20.0088087,152.288372 20.0088087,152.288372 C23.2611219,149.02712 26.3313055,145.889542 29.4275076,142.83701 C29.8896965,142.426051 30.4425669,142.130972 31.0406549,141.97604 C35.2036158,140.775899 39.3405581,139.758388 43.7897225,138.558248 Z M44.6483332,152.288372 C43.763704,148.92276 42.8530563,145.159022 41.9163901,141.58469 C38.3518549,142.55002 34.9954677,143.437081 31.6650991,144.376321 C31.2492932,144.531596 30.875185,144.781687 30.5723218,145.106842 L23.3391774,152.288372 C31.7061515,152.357045 37.2584533,152.29118 44.6483332,152.288372 Z" id="Shape"></path>
            <path d="M235.572124,57.2878516 C240.099344,56.0616209 244.288324,54.8093001 248.581377,53.8178796 C250.656341,53.3425796 252.536089,52.2407694 253.967208,50.6609878 C256.36091,48.0519863 258.858687,45.703885 261.330445,43.2514236 C261.954889,42.6252632 262.483749,41.7866337 263.290323,41.0300233 C263.288318,47.6945541 263.290323,93.7070431 263.290323,105.579505 C262.45773,104.901165 262.215074,104.406418 261.746741,103.910708 C258.884705,101.066896 256.048688,98.2491749 253.238689,95.3531832 C252.213456,94.2420284 250.882305,93.4611194 249.413969,93.1094419 C245.615267,92.1962914 241.842584,91.1005108 238.043882,90.0569102 C237.289346,89.8481901 236.560828,89.5611999 235.598143,89.2742098 C236.534809,85.6998777 237.263327,82.2299057 238.382123,78.8382038 C239.653781,75.3058556 239.653781,71.4388358 238.382123,67.9064876 C237.263327,64.5669657 236.69092,61.0709037 235.572124,57.2878516 Z M254.721744,53.3221693 C253.602714,54.6134194 252.11191,55.5249447 250.454709,55.9311708 C247.150359,56.6877812 243.898046,57.6531118 240.645733,58.5401723 C239.99527,58.7228024 239.370826,59.0358826 238.642308,59.3228727 C239.631011,63.1320149 240.51564,66.784617 241.582399,70.358949 C242.244127,72.3934128 242.244127,74.5860888 241.582399,76.6205526 C240.619714,79.6991743 239.891196,82.8299761 238.980549,85.9346879 C238.861013,86.555837 238.774164,87.1828648 238.720364,87.8131689 C242.493047,88.8306795 246.057582,89.9003701 249.700173,90.7352506 C251.7815,91.1943287 253.665859,92.2988414 255.086003,93.8921424 C257.193502,96.1880637 259.483131,98.3535349 261.694704,100.545096 C262.189055,101.014716 262.587823,101.549879 263.290323,102.123859 C263.317407,92.5333526 263.316457,55.5702611 263.290323,44.4740912 C260.246157,47.5788029 257.427669,50.4522677 254.721744,53.3221693 Z" id="Shape"></path>
            <path d="M99.1831201,136.418867 C99.9376567,136.157966 100.588119,135.897066 101.238582,135.714436 C105.193395,134.644746 109.044134,133.548965 113.10302,132.531454 C114.402121,132.218775 115.584835,131.539788 116.511445,130.574703 C119.789776,127.183001 123.146163,123.843479 126.632643,120.373507 C127.283106,120.895308 127.855513,121.286658 128.349864,121.756278 C131.263937,124.65227 134.17801,127.548262 137.040045,130.496433 C138.018709,131.52849 139.275048,132.253551 140.656617,132.583634 C144.637449,133.575055 148.462169,134.696926 152.547074,135.766616 C153.1455,135.923156 153.691888,136.157966 154.524481,136.444957 C153.743926,139.445308 153.197537,142.41957 152.156797,145.237292 C151.27641,147.513777 150.839918,149.88801 150.84732,152.288372 C139.713277,152.295729 113.172578,152.288081 102.931043,152.288372 C102.95993,151.616406 102.8988,151.11484 102.747655,150.455295 C101.837008,146.646152 100.74423,142.83701 99.7555272,139.053958 C99.5994162,138.166898 99.4172866,137.436377 99.1831201,136.418867 Z M148.071891,152.288372 C148.399393,149.366375 149.071914,146.48696 150.075316,143.724071 C150.543649,141.84559 151.038001,139.993199 151.558371,137.932087 C148.462169,137.097207 145.678189,136.157966 142.816153,135.610076 C139.123829,135.048927 135.754445,133.179102 133.319399,130.339893 C131.39403,128.043972 129.104401,126.061131 126.840791,123.791299 C124.6032,126.008951 122.443664,127.861342 120.648387,130.026813 C118.101473,133.151119 114.500421,135.230432 110.527188,135.870976 C107.769227,136.366687 105.063302,137.332017 102.123211,138.140808 C103.163951,142.0804 104.048581,145.785182 105.141358,149.437784 C105.44953,150.4096 105.59731,151.280655 105.584696,152.288372 C116.936624,152.289699 139.970385,152.334096 148.071891,152.288372 Z" id="Shape"></path>
            <path d="M263.290323,86.169498 C260.846693,82.4915862 256.824823,80.1368062 252.432116,79.7774444 C253.126396,77.6673848 253.597322,75.4899245 253.837115,73.2810307 C253.610534,71.1745233 253.147955,69.1003262 252.458134,67.0976971 C254.551988,66.6552311 256.592928,65.9905399 258.546464,65.114856 C260.287031,63.8702098 261.866468,62.4351162 263.290323,60.8360936 C263.290323,60.8360936 263.316478,79.0484352 263.290323,86.169498 Z M263.290323,64.3906006 C261.425713,66.928883 258.439505,68.4259704 255.32017,68.8196381 C256.544646,71.7305981 256.544646,75.0140933 255.32017,77.9250533 C258.578958,78.2051493 261.46593,79.9513267 263.290323,82.673436 L263.290323,64.3906006 Z" id="Shape"></path>
            <path d="M126.502551,139.575758 C128.079852,141.292354 129.822938,142.847965 131.706252,144.219781 C133.676501,145.086488 135.735599,145.733912 137.846619,146.150442 C136.896865,148.102106 136.425137,150.171739 136.431436,152.288372 C133.671963,152.288372 120.829477,152.288372 117.298795,152.288372 C117.286491,150.131608 116.788672,148.155282 115.808945,146.176532 C120.154035,145.159022 124.134867,143.880611 126.502551,139.575758 Z M133.853607,152.288372 C133.79065,150.64582 134.045517,149.02516 134.620324,147.454943 C131.003752,147.663663 129.000327,145.393832 126.814773,143.25445 C124.974459,145.806961 122.134185,147.449353 119.009221,147.768023 C119.561709,149.166475 119.846172,150.810686 119.86261,152.288372 C125.050233,152.288372 129.46822,152.288372 133.853607,152.288372 Z" id="Shape"></path>
        </g>
    </g>
</svg>