<?xml version="1.0" encoding="UTF-8"?>
<svg width="201px" height="180px" viewBox="0 0 201 180" version="1.1" xmlns="http://www.w3.org/2000/svg" xmlns:xlink="http://www.w3.org/1999/xlink">
    <!-- Generator: Sketch 43.1 (39012) - http://www.bohemiancoding.com/sketch -->
    <title>material-films</title>
    <desc>Created with Sketch.</desc>
    <defs></defs>
    <g id="Page-1" stroke="none" stroke-width="1" fill="none" fill-rule="evenodd">
        <g id="material-films" fill-rule="nonzero" fill="#00769A">
            <path d="M138.813722,38.2971178 L150.902256,31.058584 L150.902256,0.338345865 L100.488722,0.338345865 L100.488722,29.7476801 L75.1887756,45.112782 L77.5784436,45.112782 L88.9591128,38.2971178 L101.052632,31.058584 L113.141165,38.2971178 L124.521835,45.112782 L127.428068,45.112782 L138.813722,38.2971178 Z M150.154511,29.7651003 L138.065977,37.0036341 L126.725188,43.7944236 L126.725188,15.6860276 L150.154511,1.65670426 L150.154511,29.7651003 Z M125.234684,43.7944236 L113.88891,37.0036341 L101.800376,29.7651003 L101.800376,1.65670426 L125.229699,15.6860276 L125.234684,43.7944236 Z M102.508241,0.338345865 L149.446647,0.338345865 L125.977444,14.3925439 L102.508241,0.338345865 Z" id="Shape"></path>
            <path d="M199.962406,0.338345865 L150.902256,0.338345865 L150.902256,31.058584 L162.990789,38.2971178 L174.371459,45.112782 L177.277692,45.112782 L188.658361,38.2971178 L199.962406,31.058584 L199.962406,0.338345865 Z M175.079323,43.7944236 L163.738534,37.0036341 L151.65,29.7651003 L151.65,1.65670426 L175.079323,15.6860276 L175.079323,43.7944236 Z M152.357865,0.338345865 L199.296271,0.338345865 L175.827068,14.3925439 L152.357865,0.338345865 Z M200.004135,29.7651003 L187.915602,37.0036341 L176.574812,43.7944236 L176.574812,15.6860276 L200.004135,1.65670426 L200.004135,29.7651003 Z" id="Shape"></path>
            <path d="M150.902256,179.411281 L150.902256,148.715852 L127.433053,134.661654 L150.902256,120.607456 L150.902256,59.1669799 L127.433053,45.112782 L124.52682,45.112782 L101.052632,59.1669799 L77.5834286,45.112782 L75.705469,45.112782 L75.705469,74.3090961 L50.5216682,89.5233766 L50.5216682,119.479947 L25.710917,134.149482 L25.710917,163.951228 L0.508682425,179.411281 L150.902256,179.411281 Z M150.154511,150.009336 L150.154511,178.117732 L138.813722,171.326942 L126.725188,164.088409 L126.725188,135.980013 L150.154511,150.009336 Z M150.154511,119.313972 L138.065977,126.552506 L126.725188,133.343296 L126.725188,105.2349 L150.154511,91.2055764 L150.154511,119.313972 Z M126.725188,46.4311404 L150.154511,60.4604637 L150.154511,88.5688596 L138.813722,81.7780702 L126.725188,74.5395363 L126.725188,46.4311404 Z M138.065977,83.0715539 L149.446647,89.887218 L125.977444,103.941416 L102.508241,89.887218 L113.88891,83.0715539 L125.977444,75.8330201 L138.065977,83.0715539 Z M101.800376,60.4604637 L125.229699,46.4311404 L125.229699,74.5395363 L113.141165,81.7780702 L101.800376,88.5688596 L101.800376,60.4604637 Z M101.800376,91.2055764 L125.229699,105.2349 L125.229699,133.343296 L113.88891,126.552506 L101.800376,119.313972 L101.800376,91.2055764 Z M76.8755639,46.4311404 L100.304887,60.4604637 L100.304887,88.5688596 L88.9640977,81.7780702 L76.8755639,74.5395363 L76.8755639,46.4311404 Z M88.2163534,83.0715539 L99.5970226,89.887218 L76.1278195,103.941416 L52.6586165,89.887218 L64.0392857,83.0715539 L76.1278195,75.8330201 L88.2163534,83.0715539 Z M100.304887,91.2055764 L100.304887,119.313972 L88.2163534,126.552506 L76.8755639,133.343296 L76.8755639,105.2349 L100.304887,91.2055764 Z M51.9507519,91.2055764 L75.3800752,105.2349 L75.3800752,133.343296 L64.0392857,126.552506 L51.9507519,119.313972 L51.9507519,91.2055764 Z M2.80899248,179.43609 L14.1896617,172.620426 L26.2781955,165.381892 L38.3667293,172.620426 L49.7473985,179.43609 L2.80899248,179.43609 Z M50.4552632,178.117732 L39.1144737,171.326942 L27.0259398,164.088409 L27.0259398,135.980013 L50.4552632,150.009336 L50.4552632,178.117732 Z M27.7338045,134.661654 L51.2030075,120.607456 L74.6771955,134.661654 L51.2030075,148.715852 L27.7338045,134.661654 Z M75.3850602,135.980013 L75.3850602,164.088409 L63.2915414,171.326942 L51.9507519,178.117732 L51.9507519,150.009336 L75.3850602,135.980013 Z M52.6586165,179.43609 L64.0392857,172.620426 L76.1278195,165.381892 L88.2163534,172.620426 L99.5970226,179.43609 L52.6586165,179.43609 Z M100.304887,178.117732 L88.9640977,171.326942 L76.8755639,164.088409 L76.8755639,135.980013 L100.304887,150.009336 L100.304887,178.117732 Z M77.5834286,134.661654 L101.052632,120.607456 L124.52682,134.661654 L101.052632,148.715852 L77.5834286,134.661654 Z M125.234684,135.980013 L125.234684,164.088409 L113.141165,171.326942 L101.800376,178.117732 L101.800376,150.009336 L125.234684,135.980013 Z M102.508241,179.43609 L113.88891,172.620426 L125.977444,165.381892 L138.065977,172.620426 L149.446647,179.43609 L102.508241,179.43609 Z" id="Shape"></path>
            <path d="M199.971054,58.6993936 L177.282677,45.112782 L174.376444,45.112782 L150.902256,59.1669799 L150.902256,120.607456 L174.376444,134.661654 L150.902256,148.715852 L150.902256,179.438376 L199.971054,179.438376 L199.971054,58.6993936 Z M176.574812,46.4311404 L200.004135,60.4604637 L200.004135,88.5688596 L188.663346,81.7780702 L176.574812,74.5395363 L176.574812,46.4311404 Z M187.915602,83.0715539 L199.296271,89.887218 L175.827068,103.941416 L152.357865,89.887218 L163.738534,83.0715539 L175.827068,75.8330201 L187.915602,83.0715539 Z M200.004135,91.2055764 L200.004135,119.313972 L187.915602,126.552506 L176.574812,133.343296 L176.574812,105.2349 L200.004135,91.2055764 Z M151.65,60.4604637 L175.079323,46.4311404 L175.079323,74.5395363 L162.990789,81.7780702 L151.65,88.5688596 L151.65,60.4604637 Z M163.738534,126.552506 L151.65,119.313972 L151.65,91.2055764 L175.079323,105.2349 L175.079323,133.343296 L163.738534,126.552506 Z M151.65,150.009336 L175.079323,135.980013 L175.079323,164.088409 L162.990789,171.326942 L151.65,178.117732 L151.65,150.009336 Z M152.357865,179.43609 L163.738534,172.620426 L175.827068,165.381892 L187.915602,172.620426 L199.296271,179.43609 L152.357865,179.43609 Z M200.004135,178.117732 L188.663346,171.326942 L176.574812,164.088409 L176.574812,135.980013 L200.004135,150.009336 L200.004135,178.117732 Z M177.282677,134.661654 L200.003047,121.166967 L200.003047,148.310556 L177.282677,134.661654 Z" id="Shape"></path>
        </g>
    </g>
</svg>