<?xml version="1.0" encoding="UTF-8"?>
<svg width="275px" height="179px" viewBox="0 0 275 179" version="1.1" xmlns="http://www.w3.org/2000/svg" xmlns:xlink="http://www.w3.org/1999/xlink">
    <!-- Generator: Sketch 43.1 (39012) - http://www.bohemiancoding.com/sketch -->
    <title>material-glue</title>
    <desc>Created with Sketch.</desc>
    <defs></defs>
    <g id="Page-1" stroke="none" stroke-width="1" fill="none" fill-rule="evenodd">
        <g id="material-glue" fill-rule="nonzero" fill="#006A5F">
            <path d="M231.874861,160.34972 C228.252686,158.320375 224.256758,157.042316 220.127064,156.592301 L218.63053,156.592301 L217.133995,156.592301 L216.734919,156.592301 L215.238385,156.592301 L213.74185,156.592301 C205.947484,157.406021 198.753383,161.141356 193.613459,167.0434 C195.942217,168.791675 198.135076,170.713192 200.173269,172.791505 C200.946479,173.562895 201.669804,174.359169 202.393129,175.279861 C205.185172,171.93183 209.055137,169.654009 213.342774,168.835017 L214.889193,168.611065 L216.41067,168.611065 L217.40836,168.611065 L218.929837,168.611065 L220.476256,168.835017 C224.763152,169.655965 228.6325,171.933422 231.425901,175.279861 C232.149226,174.483587 232.872551,173.687313 233.620818,172.791505 C235.628141,170.725766 237.78751,168.812691 240.080859,167.068284 C237.731362,164.367287 234.929439,162.093975 231.800034,160.34972" id="Shape"></path>
            <path d="M116.01814,160.34972 C112.357833,158.305042 108.318024,157.02652 104.145632,156.592301 L102.649097,156.592301 L101.152563,156.592301 L100.753487,156.592301 L99.2320099,156.592301 L97.7354753,156.592301 C89.9411095,157.406021 82.747008,161.141356 77.6070848,167.0434 C79.9509637,168.783197 82.1604215,170.696329 84.2167793,172.766621 C84.9650466,173.538012 85.7133139,174.334286 86.436639,175.254978 C89.2192623,171.865017 93.1007209,169.550421 97.4112261,168.710599 L98.9576452,168.486647 L100.479122,168.486647 L101.476812,168.486647 L102.998289,168.486647 L104.544708,168.710599 C108.786532,169.558256 112.607943,171.833411 115.369641,175.155444 C116.084652,174.34258 116.816292,173.554601 117.564559,172.791505 C119.621302,170.721623 121.830728,168.808519 124.174253,167.068284 C121.834694,164.366996 119.040886,162.093419 115.918371,160.34972" id="Shape"></path>
            <path d="M133.627364,178.272358 C133.627364,178.272358 138.922427,175.39931 141.80842,174.184984 C142.681398,173.811731 143.579319,173.488245 144.47724,173.164758 C147.375283,172.129276 150.377736,171.411718 153.431505,171.024771 L154.92804,170.825703 L156.474459,170.825703 L158.968683,170.825703 L161.462908,170.825703 L163.009327,170.825703 L164.505861,171.024771 C167.55963,171.411718 170.562083,172.129276 173.460127,173.164758 C174.358047,173.488245 175.255968,173.811731 176.128947,174.184984 C178.991096,175.430265 184.235176,178.272358 184.235176,178.272358 L200.547403,178.272358 L199.025926,175.926834 C196.732586,173.519334 194.228426,171.320856 191.543253,169.357572 C190.695217,168.735483 189.822238,168.138277 189.049029,167.565955 C186.55845,165.937951 183.939181,164.514889 181.217164,163.310865 C180.069821,162.813193 178.897536,162.315522 177.700308,161.892501 C174.98748,160.913883 172.202082,160.148453 169.369599,159.603213 L167.748353,159.254843 L166.226876,159.254843 C161.361072,158.587589 156.426641,158.587589 151.560837,159.254843 L149.964533,159.478795 L148.418114,159.752514 C145.585908,160.298936 142.800602,161.064342 140.087405,162.041803 C138.890177,162.464823 137.717892,162.962495 136.570548,163.460166 C133.847844,164.662798 131.228463,166.08592 128.738684,167.715256 C127.857391,168.295873 127.025983,168.893079 126.24446,169.506873 C123.561019,171.472307 121.057043,173.670622 118.761787,176.076136 L117.24031,178.272358 L133.627364,178.272358 Z" id="Shape"></path>
            <path d="M265.921023,159.478795 L264.374604,159.752514 C261.541934,160.296959 258.756475,161.062406 256.043895,162.041803 C254.846667,162.464823 253.674382,162.962495 252.527039,163.460166 C249.806468,164.667115 247.18743,166.09005 244.695174,167.715256 C243.822196,168.287579 242.949217,168.884784 242.20095,169.506873 C239.515193,171.469432 237.01097,173.667964 234.718277,176.076136 L233.1968,178.272358 L249.608796,178.272358 C249.608796,178.272358 254.73495,175.463964 257.54043,174.184984 C258.413408,173.811731 259.311329,173.488245 260.20925,173.164758 C263.107293,172.129276 266.109746,171.411718 269.163515,171.024771 L270.66005,170.825703 L272.206469,170.825703 L274.700693,170.825703 L274.700693,158.881589 C272.300669,158.851041 269.901184,158.97572 267.517327,159.254843 L265.921023,159.478795 Z" id="Shape"></path>
            <path d="M231.874861,3.90672037 C228.250797,1.88606525 224.254969,0.616502329 220.127064,0.174184984 L218.63053,0.174184984 L217.133995,0.174184984 L216.734919,0.174184984 L215.138616,0 L213.642081,0 C205.846984,0.811294564 198.652041,4.54706568 193.51369,10.4510991 C195.883357,12.241791 198.109922,14.2135314 200.173269,16.348505 C200.946479,17.1198956 201.669804,17.9161698 202.393129,18.712444 C205.189079,15.3736573 209.05858,13.1049042 213.342774,12.2924832 C213.841619,12.2924832 214.365406,12.1182982 214.889193,12.0685311 C215.41298,12.0187639 215.911825,12.0685311 216.41067,12.0685311 L217.40836,12.0685311 L218.929837,12.0685311 C219.428681,12.0685311 219.952469,12.1929489 220.476256,12.2924832 C224.759714,13.1068567 228.628599,15.3752488 231.425901,18.712444 C232.149226,17.9161698 232.872551,17.1198956 233.620818,16.348505 C235.626906,14.2814798 237.786376,12.3683155 240.080859,10.6252841 C237.731715,7.92392355 234.929724,5.65055644 231.800034,3.90672037" id="Shape"></path>
            <path d="M274.526097,26.0779805 L273.029563,26.0779805 L271.533028,26.0779805 C267.358541,26.5185167 263.318358,27.8056245 259.66052,29.860283 L258.538119,30.5321394 C255.866255,32.1645563 253.460574,34.1953444 251.404638,36.5539632 C253.752063,38.2984313 255.961787,40.2201123 258.014332,42.3020677 C258.712715,42.9988076 259.386156,43.7204311 260.034654,44.4420546 L260.234192,44.6660067 L260.234192,44.6660067 C263.017608,41.3806133 266.848114,39.1492113 271.084068,38.3455801 C271.582913,38.3455801 272.1067,38.1713952 272.630487,38.121628 C273.154274,38.0718609 273.653119,38.121628 274.151964,38.121628 L274.650809,38.121628 L274.650809,26.1775148 L274.451271,26.1775148" id="Shape"></path>
            <path d="M232.997262,56.7345378 L231.874861,56.0626814 C228.257875,54.0127785 224.261078,52.71751 220.127064,52.2554953 L218.63053,52.2554953 L217.133995,52.2554953 L216.734919,52.2554953 L215.138616,52.2554953 L213.642081,52.2554953 C209.476667,52.6854356 205.444159,53.9643333 201.794515,56.0129143 L200.672114,56.6847707 C197.992327,58.3163914 195.578302,60.3471221 193.51369,62.7065944 C195.880581,64.4643946 198.107128,66.4028412 200.173269,68.504466 C200.871652,69.201206 201.545093,69.9228295 202.193591,70.644453 L202.393129,70.8684051 L202.393129,70.8684051 C205.176545,67.5830117 209.007051,65.3516097 213.243005,64.5479785 L214.789424,64.2991428 L216.310901,64.2991428 L217.308591,64.2991428 L218.830068,64.2991428 L220.376487,64.5479785 C224.611002,65.3554407 228.44031,67.5861445 231.226363,70.8684051 L231.226363,70.8684051 L231.400958,70.644453 C232.049457,69.8979459 232.747839,69.201206 233.42128,68.504466 C235.488193,66.4188519 237.714785,64.4970058 240.080859,62.7563615 C238.023548,60.3991328 235.618095,58.3685368 232.947377,56.7345378" id="Shape"></path>
            <path d="M175.081372,82.8125183 L173.958972,82.1157784 C170.297877,80.0772087 166.257623,78.8070148 162.086464,78.383243 L160.589929,78.383243 L159.093394,78.383243 L158.694318,78.383243 L157.197784,78.383243 L155.701249,78.383243 C151.530374,78.8083928 147.490395,80.0785008 143.828741,82.1157784 L142.70634,82.8125183 C140.037439,84.449021 137.632344,86.4793145 135.572859,88.8343421 C137.908198,90.5750567 140.109296,92.4881695 142.157611,94.557563 C142.855994,95.2543029 143.529434,95.9759264 144.177933,96.6975499 L144.352528,96.9215021 L144.352528,96.9215021 C147.142146,93.5876267 151.002045,91.3193361 155.277231,90.5015412 C155.776076,90.5015412 156.299863,90.3273562 156.82365,90.2775891 L158.345127,90.2775891 L159.317875,90.2775891 L160.839351,90.2775891 L162.385771,90.5015412 C166.620286,91.3090034 170.449593,93.5397072 173.235646,96.8219678 L173.235646,96.8219678 L173.435184,96.5980157 C174.083683,95.8680976 174.757123,95.1547686 175.455506,94.4580287 C177.512121,92.3880104 179.721557,90.4748974 182.065201,88.7348078 C180.00954,86.3759097 177.603813,84.3450829 174.931719,82.712984" id="Shape"></path>
            <path d="M273.029563,78.3085923 L271.533028,78.3085923 C267.356878,78.7575057 263.316728,80.0530705 259.66052,82.1157784 L258.538119,82.8125183 C255.867173,84.446202 253.461674,86.4768362 251.404638,88.8343421 C253.747056,90.5759501 255.956383,92.4889677 258.014332,94.557563 C258.712715,95.2543029 259.386156,95.9759264 260.034654,96.6975499 L260.234192,96.9215021 L260.234192,96.9215021 C263.017608,93.6361086 266.848114,91.4047066 271.084068,90.6010755 L272.630487,90.3771234 L274.151964,90.3771234 L274.650809,90.3771234 L274.650809,78.4330101 L274.451271,78.4330101 L272.954736,78.4330101" id="Shape"></path>
            <path d="M232.997262,108.890499 L231.874861,108.218642 C228.250279,106.203509 224.253889,104.942232 220.127064,104.510991 L218.63053,104.510991 L217.133995,104.510991 L216.734919,104.510991 L215.238385,104.510991 L213.74185,104.510991 C209.576871,104.943014 205.544778,106.22178 201.894284,108.26841 L200.771883,108.940266 C198.093691,110.574095 195.679984,112.604559 193.613459,114.96209 C195.940029,116.685891 198.132861,118.582429 200.173269,120.635544 C200.871652,121.332283 201.545093,122.053907 202.193591,122.77553 L202.393129,122.999483 L202.393129,122.999483 C205.180494,119.718782 209.009207,117.488425 213.243005,116.679056 L214.789424,116.455104 L216.310901,116.455104 L217.308591,116.455104 L218.830068,116.455104 L220.376487,116.679056 C224.610285,117.488425 228.438997,119.718782 231.226363,122.999483 L231.226363,122.999483 L231.400958,122.77553 C232.049457,122.029023 232.747839,121.332283 233.42128,120.635544 C235.490625,118.560123 237.717064,116.646729 240.080859,114.912323 C238.021374,112.557295 235.616279,110.527001 232.947377,108.890499" id="Shape"></path>
            <path d="M117.165483,108.890499 L116.043082,108.218642 C112.380638,106.187464 108.340212,104.925684 104.170574,104.510991 L102.67404,104.510991 L101.177505,104.510991 L100.778429,104.510991 L99.2569522,104.510991 L97.7604176,104.510991 C93.5957284,104.944397 89.5639097,106.223076 85.9128519,108.26841 L84.7904509,108.940266 C82.1115772,110.573152 79.6977344,112.60373 77.632027,114.96209 C79.9748516,116.703195 82.1842143,118.616244 84.2417216,120.685311 C84.9401044,121.382051 85.613545,122.103674 86.2620433,122.825298 L86.4615812,123.04925 L86.4615812,123.04925 C89.2476343,119.766989 93.0769421,117.536285 97.3114572,116.728823 L98.8578763,116.504871 L100.379353,116.504871 L101.377043,116.504871 L102.89852,116.504871 L104.444939,116.728823 C108.685459,117.482484 112.540226,119.659957 115.369641,122.899948 L115.369641,122.899948 L115.544237,122.675996 C116.192736,121.929489 116.891118,121.232749 117.564559,120.536009 C119.619487,118.464194 121.829064,116.550959 124.174253,114.812788 C122.115309,112.457213 119.710125,110.426844 117.040772,108.790965" id="Shape"></path>
            <path d="M175.081372,134.943596 L173.958972,134.371274 C170.300916,132.321416 166.260009,131.042547 162.086464,130.613855 L160.589929,130.613855 L159.093394,130.613855 L158.694318,130.613855 L157.197784,130.613855 L155.701249,130.613855 C151.527268,131.040456 147.485944,132.319457 143.828741,134.371274 L142.70634,135.04313 C140.035466,136.6869 137.630231,138.725702 135.572859,141.089837 C137.911147,142.826904 140.112514,144.74025 142.157611,146.813058 C142.855994,147.509798 143.529434,148.231422 144.177933,148.953045 L144.352528,149.176997 L144.352528,149.176997 C147.126478,145.806128 150.988244,143.501556 155.277231,142.657502 L156.82365,142.43355 L158.345127,142.43355 L159.317875,142.43355 L160.839351,142.43355 L162.385771,142.657502 C166.620286,143.464964 170.449593,145.695668 173.235646,148.977929 L173.235646,148.977929 L173.435184,148.753977 C174.083683,148.00747 174.757123,147.31073 175.455506,146.61399 C177.510039,144.541754 179.71965,142.62849 182.065201,140.890769 C180.009744,138.524703 177.604193,136.485634 174.931719,134.844062" id="Shape"></path>
            <path d="M273.029563,130.43967 L271.533028,130.43967 C267.346401,130.920705 263.304475,132.259197 259.66052,134.371274 C259.261444,134.570342 258.912253,134.819178 258.538119,135.04313 C255.86854,136.678698 253.463311,138.709104 251.404638,141.064954 C253.750901,142.810859 255.960519,144.732447 258.014332,146.813058 C258.712715,147.509798 259.386156,148.231422 260.034654,148.953045 L260.234192,149.176997 L260.234192,149.176997 C263.017608,145.891604 266.848114,143.660202 271.084068,142.856571 L272.630487,142.632619 L274.151964,142.632619 L274.650809,142.632619 L274.650809,130.688505 L274.451271,130.688505 L272.954736,130.688505" id="Shape"></path>
            <path d="M267.517327,2.68742547 L265.921023,2.9113776 L264.374604,3.18509686 C261.541934,3.72954154 258.756475,4.4949889 256.043895,5.47438523 C254.846667,5.8974059 253.674382,6.39507729 252.527039,6.89274867 C249.805508,8.0977566 247.186317,9.52077584 244.695174,11.147839 C243.822196,11.7201611 242.949217,12.3173668 242.20095,12.939456 C239.513418,14.8998098 237.009003,17.0985098 234.718277,19.5087183 C234.19449,20.0561568 233.670702,20.6284789 233.1968,21.200801 C231.723033,22.89747 230.356867,24.6842671 229.106272,26.5507683 C231.317613,27.0207556 233.499605,27.6189764 235.64114,28.3423853 C237.403725,28.939591 239.12474,29.6197419 240.804184,30.382838 L241.078549,30.5072558 C242.873812,28.2196289 244.896082,26.1187476 247.114572,24.2365964 C247.937666,23.5398565 248.785702,22.8928837 249.608796,22.2707944 C252.079785,20.4573378 254.738923,18.913994 257.54043,17.6673341 C258.413408,17.2940806 259.311329,16.9705942 260.20925,16.6471078 C263.107575,15.6125699 266.109923,14.8950362 269.163515,14.5071208 L270.66005,14.3329359 L272.206469,14.3329359 L274.700693,14.3329359 L274.700693,2.18975409 C272.247977,2.19269901 269.798193,2.35895897 267.367673,2.68742547" id="Shape"></path>
            <path d="M194.486438,32.9707292 C191.765103,34.2145574 189.146358,35.6706153 186.654573,37.3253538 C185.781595,37.8976759 184.908616,38.4948816 184.160349,39.1418544 L184.160349,39.1418544 L183.960811,39.2662722 C181.383674,41.1936589 178.980096,43.341799 176.777445,45.6862331 C176.253658,46.2336716 175.729871,46.8059937 175.255968,47.3783158 C173.787246,49.0790717 172.42132,50.8655546 171.16544,52.7282831 C173.377669,53.2049318 175.559756,53.8114876 177.700308,54.5447837 L179.620861,55.2415236 L181.591298,56.0129143 L182.863352,56.5852364 L183.137717,56.7096542 C183.811158,55.8636129 184.484598,55.0673387 185.232866,54.2212973 C186.474752,52.8639829 187.799195,51.5842072 189.198682,50.3892276 C190.021776,49.6924877 190.894755,49.0455149 191.692907,48.4234257 L191.692907,48.4234257 L191.84256,48.4234257 C194.020928,46.8640284 196.342639,45.5142716 198.776504,44.3922875 L199.774194,43.9194996 C200.547403,43.5711297 201.345555,43.2974104 202.268418,43.0236912 L202.567725,43.0236912 C205.466106,41.9893414 208.468434,41.2718127 211.52199,40.8837042 L213.018525,40.6846357 L214.564944,40.6846357 L217.059168,40.6846357 L219.553393,40.6846357 L221.099812,40.6846357 L222.596346,40.8837042 C225.649481,41.2741123 228.651562,41.9915821 231.550612,43.0236912 L231.849919,43.0236912 C232.648071,43.322294 233.446222,43.5960132 234.344143,43.9194996 L235.341833,44.3922875 C237.782596,45.5161678 240.112412,46.8657816 242.300719,48.4234257 L242.300719,48.4234257 L242.300719,48.4234257 C243.173697,49.0455149 244.046676,49.6924877 244.794943,50.3892276 C246.197384,51.5809673 247.522025,52.8609341 248.76076,54.2212973 C249.484085,55.0175715 250.182468,55.8138457 250.855908,56.7096542 L251.130273,56.5852364 L252.402327,56.0129143 L254.372765,55.2415236 L256.293317,54.5447837 C258.332959,53.7863732 260.414976,53.1466207 262.528878,52.6287489 C261.289029,50.7610378 259.931079,48.9740907 258.463293,47.2787815 C257.964448,46.7064594 257.465603,46.1341373 256.941816,45.5866988 C254.748783,43.2416472 252.353428,41.0933972 249.783392,39.1667379 L249.558912,39.0174365 C248.710875,38.3953473 247.837897,37.7981416 247.064687,37.200936 C244.570961,35.578185 241.952124,34.1553583 239.232823,32.9458456 C238.08548,32.4481742 236.913194,31.9505029 235.715966,31.5274822 C233.012313,30.5467816 230.235037,29.7812912 227.410199,29.2381938 L225.86378,28.9644746 L225.614358,28.9644746 L224.142765,28.765406 L223.843459,28.765406 L222.097501,28.5663374 C220.351544,28.3921525 218.605587,28.3175018 216.834688,28.3175018 C215.063789,28.3175018 213.29289,28.3175018 211.546932,28.5663374 L209.800975,28.765406 L209.501669,28.765406 L208.030076,28.9644746 L207.905365,28.9644746 L206.358946,29.2381938 C203.525805,29.7806246 200.740188,30.5461152 198.028237,31.5274822 C196.831009,31.9505029 195.658723,32.4481742 194.51138,32.9458456" id="Shape"></path>
            <path d="M154.92804,66.4888969 L156.474459,66.4888969 L158.968683,66.4888969 L161.462908,66.4888969 L163.009327,66.4888969 L164.505861,66.6630819 C167.55963,67.0500283 170.562083,67.7675868 173.460127,68.8030689 L173.759434,68.8030689 C174.557585,69.1016717 175.355737,69.3753909 176.253658,69.7237609 L177.251348,70.1965487 C179.68357,71.3216749 182.004993,72.6712638 184.185291,74.2276869 L184.185291,74.2276869 L184.185291,74.2276869 C185.05827,74.8497762 185.906306,75.496749 186.679516,76.1934889 C188.08008,77.3872886 189.404593,78.6671331 190.645332,80.0255586 C191.368657,80.8218328 192.06704,81.618107 192.715539,82.5139155 L192.989903,82.3894976 L194.261958,81.8171755 L196.232395,81.0457849 L198.152948,80.349045 C200.294647,79.6261737 202.476608,79.0279615 204.687816,78.557428 C203.433691,76.6934451 202.067687,74.9068595 200.597288,73.2074606 L199.075811,71.5153779 C196.88188,69.1712391 194.486608,67.0230639 191.917387,65.095417 L191.692907,64.9212321 C190.84487,64.2991428 189.971892,63.7019372 189.198682,63.1296151 C186.709191,61.4997991 184.08977,60.0766548 181.366818,58.8745247 L179.670745,58.1529012 L177.72525,57.6303463 L177.401001,57.6303463 L175.031488,56.8589556 C173.178703,56.2947076 171.297043,55.8295523 169.394541,55.4654758 L167.748353,55.0673387 L167.748353,55.0673387 L166.226876,54.7438523 L165.927569,54.7438523 L164.181612,54.5447837 C162.435655,54.3705987 160.689698,54.295948 158.918799,54.295948 C157.147899,54.295948 155.377,54.295948 153.655985,54.5447837 L151.910028,54.7438523 L151.585779,54.7438523 L150.114187,54.9429208 L150.114187,54.9429208 L148.567768,55.2166401 C146.620627,55.6162202 144.697136,56.1229603 142.806109,56.7345378 L140.436596,57.5059284 L140.112347,57.5059284 L138.291563,58.2275519 L136.595491,58.9491754 C133.871939,60.1500918 131.25242,61.5732893 128.763626,63.2042658 C127.890648,63.7765879 127.017669,64.3737935 126.269402,64.9958828 L126.269402,64.9958828 L126.019979,65.1700678 C123.450984,67.0888262 121.055662,69.2287211 118.861556,71.565145 L117.340079,73.2572277 C115.869632,74.9565883 114.503626,76.7431769 113.249551,78.6071951 C115.460986,79.0767972 117.643001,79.6750241 119.784419,80.3988121 L121.704971,81.095552 L123.675409,81.8669427 L124.922521,82.4392648 L125.196885,82.5636826 C125.870326,81.7176413 126.543767,80.9213671 127.267092,80.0753257 C128.505037,78.7141997 129.829728,77.4341839 131.232908,76.243256 C132.056002,75.5465161 132.904039,74.8995433 133.727133,74.2774541 L133.727133,74.2774541 L133.926671,74.1281527 C136.100419,72.5822784 138.413347,71.2411036 140.835672,70.121898 L141.833362,69.6491102 C142.606571,69.3256238 143.404723,69.027021 144.202875,68.7533017 L144.502182,68.7533017 C147.400225,67.7178197 150.402678,67.0002611 153.456447,66.6133148 L154.952982,66.4391298" id="Shape"></path>
            <path d="M267.716865,54.7438523 L267.517327,54.7438523 L266.045735,54.9429208 L266.045735,54.9429208 L264.499315,55.2166401 C262.596389,55.5787843 260.714625,56.0439653 258.862368,56.6101199 L256.492855,57.3815106 L256.168606,57.3815106 L254.347822,58.0782505 L252.65175,58.799874 C249.929733,60.0038983 247.310464,61.4269601 244.819885,63.0549644 C243.946907,63.6272865 243.073928,64.2244921 242.325661,64.8465814 L242.325661,64.8465814 L242.151065,64.9958828 C239.431962,66.9825518 236.902104,69.2149181 234.593566,71.6646793 C234.069778,72.2121178 233.570934,72.7844399 233.072089,73.356762 C231.601262,75.0558146 230.235238,76.8424268 228.981561,78.7067294 C231.184689,79.1870562 233.358262,79.7935604 235.491486,80.52323 L237.412039,81.2199699 L239.382476,81.9913605 L240.654531,82.5636826 L240.928895,82.6881005 C241.577394,81.8420591 242.275777,81.0457849 242.999102,80.1997436 C244.238564,78.840083 245.563158,77.5601609 246.964918,76.3676739 C247.788012,75.670934 248.636049,75.0239612 249.459143,74.4018719 L249.459143,74.4018719 L249.608796,74.4018719 C251.788538,72.8445899 254.110043,71.4949527 256.54274,70.3707337 L257.54043,69.8979459 C258.313639,69.5495759 259.111791,69.2758567 260.034654,68.9772538 L260.333961,68.9772538 C263.232004,67.9417718 266.234457,67.2242133 269.288226,66.8372669 L270.784761,66.6630819 L272.33118,66.6630819 L274.825404,66.6630819 L274.825404,54.7189687 C273.054505,54.7189687 271.283606,54.7189687 269.562591,54.9678044 L267.816634,55.1668729" id="Shape"></path>
            <path d="M179.49615,107.273067 L181.466587,108.044457 L182.738641,108.61678 L183.013006,108.741197 C183.678132,107.895156 184.376515,107.065704 185.108154,106.252841 C186.346497,104.892098 187.671162,103.612107 189.073971,102.420771 C189.897065,101.724031 190.770044,101.077058 191.568195,100.454969 L191.568195,100.454969 L191.717849,100.454969 C193.89783,98.8980558 196.219299,97.5484394 198.651793,96.4238307 L199.649482,95.9510429 C200.422692,95.6275565 201.220844,95.3289536 202.143707,95.0552344 L202.443014,95.0552344 C205.341675,94.0218221 208.343899,93.304318 211.397279,92.9152474 L212.893814,92.7161789 L214.440233,92.7161789 L216.934457,92.7161789 L219.428681,92.7161789 L220.975101,92.7161789 L222.471635,92.9152474 C225.525085,93.3039339 228.527351,94.0214477 231.425901,95.0552344 L231.725207,95.0552344 C232.523359,95.3538372 233.321511,95.6275565 234.219432,95.9510429 L235.217122,96.4238307 C237.650503,97.5467405 239.972128,98.8964476 242.151065,100.454969 L242.151065,100.454969 L242.151065,100.454969 C243.024044,101.077058 243.897022,101.724031 244.64529,102.420771 C246.049941,103.610081 247.374734,104.890196 248.611106,106.252841 C249.334431,107.049115 250.032814,107.845389 250.706255,108.741197 L250.980619,108.61678 L252.252674,108.044457 L254.223111,107.273067 L256.143664,106.576327 C258.234957,105.854546 260.367055,105.256304 262.528878,104.78471 C261.285933,102.950847 259.92803,101.197206 258.463293,99.5342768 C257.964448,98.9370712 257.465603,98.3896326 256.941816,97.8173105 C254.747706,95.4733533 252.352451,93.325193 249.783392,91.3973497 L249.558912,91.2480483 C248.710875,90.625959 247.837897,90.0287534 247.064687,89.4564313 C244.575196,87.8266153 241.955775,86.403471 239.232823,85.201341 L237.53675,84.4797175 L235.715966,83.7829775 L235.391717,83.7829775 L232.897493,83.0115869 C231.045171,82.4456686 229.16342,81.9804909 227.260546,81.618107 L225.714127,81.3443877 L225.714127,81.3443877 L224.242534,81.1453192 L223.943228,81.1453192 L222.19727,80.9462506 C220.451313,80.7720656 218.705356,80.6974149 216.934457,80.6974149 C215.163558,80.6974149 213.392659,80.6974149 211.671644,80.9462506 L209.925687,81.1453192 L209.62638,81.1453192 L208.154787,81.3443877 L208.030076,81.3443877 L206.483657,81.618107 C204.581196,81.9823681 202.699545,82.447521 200.84671,83.0115869 L198.477197,83.7829775 L198.152948,83.7829775 L196.332164,84.4797175 L194.636091,85.201341 C191.914075,86.4053652 189.294806,87.828427 186.804227,89.4564313 C185.906306,90.0287534 185.05827,90.625959 184.310003,91.2480483 L184.310003,91.2480483 L184.135407,91.3973497 C181.557704,93.3240481 179.154068,95.47224 176.952041,97.8173105 C176.428254,98.3896326 175.929409,98.9370712 175.430564,99.5342768 C173.960023,101.233561 172.594012,103.020155 171.340036,104.884244 C173.551151,105.355157 175.733089,105.953364 177.874904,106.675861 L179.795456,107.372601" id="Shape"></path>
            <path d="M141.085095,97.7426598 C138.892344,95.4048534 136.496894,93.264845 133.926671,91.3475826 L133.70219,91.1733976 L133.70219,91.1733976 C132.854154,90.5513083 132.006118,89.9541027 131.207966,89.3817806 C128.718822,87.7513859 126.099353,86.3282151 123.376102,85.1266903 L121.680029,84.4050667 L119.859245,83.6834432 L119.534996,83.6834432 L117.165483,82.9120526 C115.312473,82.3486192 113.430856,81.8834747 111.528536,81.5185727 L109.982117,81.2448535 L109.857406,81.2448535 L108.385813,81.0457849 L108.061564,81.0457849 L106.315607,80.8467164 C104.56965,80.6725314 102.823693,80.5978807 101.052794,80.5978807 C99.2818944,80.5978807 97.5109951,80.5978807 95.7650381,80.8467164 L94.019081,81.0457849 L93.6948319,81.0457849 L92.2232395,81.2448535 L92.0985283,81.2448535 L90.5521092,81.5185727 C88.6504136,81.8863027 86.7689439,82.3514109 84.9151621,82.9120526 L82.545649,83.6834432 L82.2213998,83.6834432 L80.4006161,84.4050667 L78.7045435,85.1266903 C75.9814919,86.3286189 73.3620546,87.751772 70.872679,89.3817806 C69.9997005,89.9541027 69.126722,90.5513083 68.3784547,91.1733976 L67.9793788,91.322699 C65.4109647,93.2513244 63.0157757,95.3994257 60.8209549,97.7426598 C60.2971678,98.3149819 59.7983229,98.8624205 59.2994781,99.4596261 C57.8241286,101.15501 56.4578849,102.941909 55.2089501,104.809593 C57.4212711,105.275562 59.6034997,105.873848 61.7438179,106.60121 L63.6643707,107.29795 L65.6348079,108.069341 L66.9068623,108.641663 L67.181227,108.766081 C67.8463535,107.936629 68.5364222,107.107176 69.2514332,106.277724 C70.4885231,104.915772 71.8132695,103.635703 73.2172499,102.445654 C74.040344,101.748914 74.9133225,101.101942 75.7114743,100.479852 L75.7114743,100.479852 L75.7114743,100.479852 C77.9816069,98.8706801 80.404254,97.4871857 82.9447249,96.34918 L83.9424146,95.8763922 C84.7156242,95.5280222 85.513776,95.2543029 86.436639,94.9557001 L86.7359459,94.9557001 C89.5436755,93.9167568 92.4528913,93.1744834 95.4158467,92.7410624 L96.9123813,92.5668774 L98.4588004,92.5668774 L100.953025,92.5668774 L103.447249,92.5668774 L104.993668,92.5668774 L106.490203,92.7410624 C109.543302,93.1316606 112.545363,93.8491257 115.444468,94.8810494 L115.743775,94.8810494 C116.541927,95.1796522 117.340079,95.4533715 118.237999,95.8017414 L119.235689,96.2745293 C121.658615,97.3925834 123.971648,98.7338189 126.144691,100.280784 L126.344229,100.430085 L126.344229,100.430085 C127.217207,101.052175 128.065243,101.724031 128.838453,102.395887 C130.242433,103.585936 131.56718,104.866005 132.80427,106.227957 C133.527595,107.024231 134.225978,107.820505 134.899418,108.716314 L135.173783,108.591896 L136.445837,108.019574 L138.416274,107.248183 L140.336827,106.551443 C142.468408,105.823188 144.642393,105.224879 146.846753,104.759826 C145.544556,102.937809 144.137093,101.193005 142.631514,99.5342768 L141.110037,97.8421941" id="Shape"></path>
            <path d="M141.085095,149.405261 C138.892344,147.067455 136.496894,144.927447 133.926671,143.010184 L133.70219,142.835999 L133.70219,142.835999 C132.854154,142.21391 132.006118,141.616704 131.207966,141.044382 C128.718822,139.413988 126.099353,137.990817 123.376102,136.789292 L121.680029,136.067668 L119.859245,135.346045 L119.534996,135.346045 L117.165483,134.574654 C115.312473,134.011221 113.430856,133.546076 111.528536,133.181174 L109.982117,132.907455 L109.857406,132.907455 L108.385813,132.708387 L108.061564,132.708387 L106.315607,132.509318 C104.56965,132.335133 102.823693,132.260482 101.052794,132.260482 C99.2818944,132.260482 97.5109951,132.260482 95.7650381,132.509318 L94.019081,132.708387 L93.6948319,132.708387 L92.2232395,132.907455 L92.0985283,132.907455 L90.5521092,133.181174 C88.6504136,133.548904 86.7689439,134.014013 84.9151621,134.574654 L82.545649,135.346045 L82.2213998,135.346045 L80.4006161,136.067668 L78.7045435,136.789292 C75.9814919,137.991221 73.3620546,139.414374 70.872679,141.044382 C69.9997005,141.616704 69.126722,142.21391 68.3784547,142.835999 L67.9793788,142.985301 C65.4109647,144.913926 63.0157757,147.062027 60.8209549,149.405261 C60.2971678,149.977584 59.7983229,150.525022 59.2994781,151.122228 C57.8241286,152.817612 56.4578849,154.60451 55.2089501,156.472195 C57.4212711,156.938164 59.6034997,157.53645 61.7438179,158.263812 L63.6643707,158.960552 L65.6348079,159.731943 L66.9068623,160.304265 L67.181227,160.428683 C67.8463535,159.59923 68.5364222,158.769778 69.2514332,157.940326 C70.4885231,156.578374 71.8132695,155.298304 73.2172499,154.108256 C74.040344,153.411516 74.9133225,152.764543 75.7114743,152.142454 L75.7114743,152.142454 L75.7114743,152.142454 C77.9816069,150.533282 80.404254,149.149787 82.9447249,148.011782 L83.9424146,147.538994 C84.7156242,147.190624 85.513776,146.916905 86.436639,146.618302 L86.7359459,146.618302 C89.5436755,145.579358 92.4528913,144.837085 95.4158467,144.403664 L96.9123813,144.229479 L98.4588004,144.229479 L100.953025,144.229479 L103.447249,144.229479 L104.993668,144.229479 L106.490203,144.403664 C109.543302,144.794262 112.545363,145.511727 115.444468,146.543651 L115.743775,146.543651 C116.541927,146.842254 117.340079,147.115973 118.237999,147.464343 L119.235689,147.937131 C121.658615,149.055185 123.971648,150.39642 126.144691,151.943386 L126.344229,152.092687 L126.344229,152.092687 C127.217207,152.714776 128.065243,153.386633 128.838453,154.058489 C130.242433,155.248537 131.56718,156.528607 132.80427,157.890559 C133.527595,158.686833 134.225978,159.483107 134.899418,160.378915 L135.173783,160.254498 L136.445837,159.682176 L138.416274,158.910785 L140.336827,158.214045 C142.468408,157.48579 144.642393,156.887481 146.846753,156.422428 C145.544556,154.600411 144.137093,152.855606 142.631514,151.196878 L141.110037,149.504796" id="Shape"></path>
            <path d="M82.7296569,175.600383 C80.5369062,173.262577 78.1414563,171.122569 75.571233,169.205306 L75.3467528,169.031121 C74.4987165,168.409032 73.6506802,167.811826 72.8525285,167.239504 C70.3633847,165.60911 67.7439149,164.185939 65.020664,162.984414 L63.3245914,162.26279 L61.5038076,161.541167 L61.1795585,161.541167 L58.8100453,160.769776 C56.957035,160.206343 55.0754182,159.741198 53.1730983,159.376296 L51.6266792,159.102577 L50.0303756,158.903508 L49.7061265,158.903508 L47.9601694,158.70444 C46.2142124,158.530255 44.4682553,158.455604 42.697356,158.455604 C40.9264567,158.455604 39.1555575,158.455604 37.4096004,158.70444 L35.6636434,158.903508 L35.3393942,158.903508 L33.8678018,159.102577 L32.1966715,159.376296 C30.294976,159.744026 28.4135062,160.209134 26.5597245,160.769776 L24.1902113,161.541167 L23.8659622,161.541167 L22.0451784,162.26279 L20.3491058,162.984414 C17.6260543,164.186343 15.006617,165.609496 12.5172414,167.239504 C11.6442629,167.811826 10.7712843,168.409032 10.023017,169.031121 L9.62394113,169.180423 C7.05552703,171.109048 4.66033807,173.257149 2.46551724,175.600383 C1.94173013,176.172706 1.44288526,176.720144 0.944040387,177.31735 C0.708185313,177.58838 0.244873743,178.272358 0.244873743,178.272358 C0.244873743,178.272358 16.5578848,178.894447 17.3560366,178.272358 L17.3560366,178.337576 C19.6261693,176.728404 22.0488164,175.344909 24.5892872,174.206904 L25.586977,173.734116 C26.3601865,173.385746 27.1583383,173.112026 28.0812013,172.813424 L28.3805083,172.813424 C31.1882378,171.77448 34.0974537,171.032207 37.060409,170.598786 L38.5569436,170.424601 L40.1033627,170.424601 L42.5975871,170.424601 L45.0918114,170.424601 L46.6382305,170.424601 L48.1347651,170.598786 C51.1878644,170.989384 54.1899258,171.706849 57.0890305,172.738773 L57.3883375,172.738773 C58.1864893,173.037376 58.9846411,173.311095 59.8825618,173.659465 L60.8802516,174.132253 C63.3031773,175.250307 65.6162099,176.591542 67.789253,178.138507 L67.988791,178.272358 L85.1965801,178.272358 C85.1965801,178.272358 84.5871194,177.734683 84.276076,177.392 L82.7545991,175.699918" id="Shape"></path>
            <path d="M257.066527,149.405261 C254.873776,147.067455 252.478326,144.927447 249.908103,143.010184 L249.683623,142.835999 L249.683623,142.835999 C248.835587,142.21391 247.98755,141.616704 247.189398,141.044382 C244.700255,139.413988 242.080785,137.990817 239.357534,136.789292 L237.661461,136.067668 L235.840678,135.346045 L235.516429,135.346045 L233.146915,134.574654 C231.293905,134.011221 229.412288,133.546076 227.509968,133.181174 L225.963549,132.907455 L225.838838,132.907455 L224.367246,132.708387 L224.042996,132.708387 L222.297039,132.509318 C220.551082,132.335133 218.805125,132.260482 217.034226,132.260482 C215.263327,132.260482 213.492427,132.260482 211.74647,132.509318 L210.000513,132.708387 L209.676264,132.708387 L208.204672,132.907455 L208.079961,132.907455 L206.533542,133.181174 C204.631846,133.548904 202.750376,134.014013 200.896595,134.574654 L198.527081,135.346045 L198.202832,135.346045 L196.382048,136.067668 L194.685976,136.789292 C191.962924,137.991221 189.343487,139.414374 186.854111,141.044382 C185.981133,141.616704 185.108154,142.21391 184.359887,142.835999 L183.960811,142.985301 C181.392397,144.913926 178.997208,147.062027 176.802387,149.405261 C176.2786,149.977584 175.779755,150.525022 175.28091,151.122228 C173.805561,152.817612 172.439317,154.60451 171.190382,156.472195 C173.402703,156.938164 175.584932,157.53645 177.72525,158.263812 L179.645803,158.960552 L181.61624,159.731943 L182.888295,160.304265 L183.162659,160.428683 C183.827786,159.59923 184.517855,158.769778 185.232866,157.940326 C186.469955,156.578374 187.794702,155.298304 189.198682,154.108256 C190.021776,153.411516 190.894755,152.764543 191.692907,152.142454 L191.692907,152.142454 L191.692907,152.142454 C193.963039,150.533282 196.385686,149.149787 198.926157,148.011782 L199.923847,147.538994 C200.697057,147.190624 201.495208,146.916905 202.418071,146.618302 L202.717378,146.618302 C205.525108,145.579358 208.434324,144.837085 211.397279,144.403664 L212.893814,144.229479 L214.440233,144.229479 L216.934457,144.229479 L219.428681,144.229479 L220.975101,144.229479 L222.471635,144.403664 C225.524734,144.794262 228.526796,145.511727 231.425901,146.543651 L231.725207,146.543651 C232.523359,146.842254 233.321511,147.115973 234.219432,147.464343 L235.217122,147.937131 C237.640047,149.055185 239.95308,150.39642 242.126123,151.943386 L242.325661,152.092687 L242.325661,152.092687 C243.19864,152.714776 244.046676,153.386633 244.819885,154.058489 C246.223866,155.248537 247.548612,156.528607 248.785702,157.890559 C249.509027,158.686833 250.20741,159.483107 250.880851,160.378915 L251.155215,160.254498 L252.42727,159.682176 L254.397707,158.910785 L256.31826,158.214045 C258.449841,157.48579 260.623825,156.887481 262.828185,156.422428 C261.525988,154.600411 260.118525,152.855606 258.612946,151.196878 L257.091469,149.504796" id="Shape"></path>
            <path d="M173.584838,121.058564 C174.38299,121.357167 175.181141,121.630886 176.079062,121.954373 L177.076752,122.42716 C179.508638,123.55293 181.830002,124.902485 184.010696,126.458299 L184.010696,126.458299 L184.010696,126.458299 C184.883674,127.080388 185.756653,127.727361 186.50492,128.424101 C187.905484,129.6179 189.229998,130.897745 190.470737,132.25617 C191.194062,133.052445 191.892445,133.848719 192.540943,134.744527 L192.815308,134.620109 L194.087362,134.047787 L196.057799,133.276397 L197.978352,132.579657 C200.118818,131.846084 202.300921,131.239523 204.51322,130.763156 C203.262046,128.897067 201.895907,127.110305 200.422692,125.413189 L198.901215,123.721106 C196.708182,121.376054 194.312827,119.227804 191.742791,117.301145 L191.518311,117.151844 C190.670275,116.529755 189.797296,115.932549 189.024087,115.360227 C186.532943,113.733164 183.913753,112.310144 181.192222,111.105137 L179.49615,110.383513 L177.72525,109.786307 L177.401001,109.786307 L175.031488,108.990033 C173.17793,108.428579 171.296418,107.963461 169.394541,107.596553 L167.748353,107.2233 L167.748353,107.2233 L166.201934,106.999348 L165.877685,106.999348 L164.131728,106.800279 C162.385771,106.650978 160.639813,106.551443 158.843972,106.551443 C157.04813,106.551443 155.302173,106.551443 153.581159,106.800279 L151.835202,106.999348 L151.510952,106.999348 L150.03936,107.198416 L149.914649,107.198416 L148.36823,107.472135 C146.466049,107.83767 144.584466,108.302806 142.731283,108.865615 L140.361769,109.661889 L140.03752,109.661889 L138.216737,110.358629 L136.520664,111.080253 C133.79791,112.282785 131.178521,113.705911 128.6888,115.335343 C127.815821,115.907665 126.942842,116.504871 126.194575,117.102077 L126.194575,117.102077 L125.945153,117.276262 C123.386252,119.197926 120.999458,121.337656 118.811671,123.671339 L117.290194,125.363422 C115.819415,127.062513 114.453393,128.849122 113.199666,130.713389 C115.411469,131.191758 117.593456,131.798285 119.734534,132.52989 L121.655087,133.22663 L123.625524,133.99802 L124.897579,134.570342 L125.171943,134.69476 C125.820442,133.848719 126.518824,133.052445 127.242149,132.206403 C128.483672,130.848737 129.808137,129.568939 131.207966,128.374334 C132.03106,127.677594 132.879096,127.030621 133.70219,126.408532 L133.70219,126.408532 L133.901728,126.25923 C136.082572,124.774023 138.395241,123.491304 140.81073,122.42716 L141.80842,121.954373 C142.581629,121.606003 143.379781,121.332283 144.302644,121.058564 L144.601951,121.058564 C147.499994,120.023082 150.502447,119.305524 153.556216,118.918577 L155.052751,118.719509 L156.59917,118.719509 L159.093394,118.719509 C159.991315,118.719509 160.71464,118.719509 161.587619,118.843927 L163.134038,118.843927 L164.630572,119.042995 C167.684556,119.428771 170.687135,120.14636 173.584838,121.182982 L173.884145,121.182982" id="Shape"></path>
            <path d="M267.716865,106.999348 L267.517327,106.999348 L266.045735,107.198416 L266.045735,107.198416 L264.499315,107.472135 C262.597175,107.837849 260.7156,108.302983 258.862368,108.865615 L256.492855,109.661889 L256.168606,109.661889 L254.347822,110.358629 L252.65175,111.080253 C249.929292,112.283384 247.309951,113.706485 244.819885,115.335343 C243.946907,115.907665 243.073928,116.504871 242.325661,117.12696 L242.325661,117.12696 L242.151065,117.251378 C239.573767,119.178569 237.170172,121.326723 234.967699,123.671339 C234.443912,124.218777 233.945067,124.7911 233.446222,125.363422 C231.972907,127.060457 230.606763,128.847225 229.355694,130.713389 C231.559105,131.192583 233.732743,131.799106 235.86562,132.52989 L237.786173,133.22663 L239.75661,133.99802 L241.028664,134.570342 L241.303029,134.69476 C241.951527,133.848719 242.64991,133.052445 243.373235,132.206403 C244.613412,130.847433 245.937961,129.567555 247.339052,128.374334 C248.162146,127.677594 249.010182,127.030621 249.833276,126.408532 L249.833276,126.408532 L249.98293,126.408532 C252.162671,124.851249 254.484176,123.501612 256.916873,122.377393 L257.54043,121.929489 C258.313639,121.581119 259.111791,121.3074 260.034654,121.008797 L260.333961,121.008797 C263.232004,119.973315 266.234457,119.255756 269.288226,118.86881 L270.784761,118.694625 L272.33118,118.694625 L274.825404,118.694625 L274.825404,106.750512 C273.054505,106.750512 271.283606,106.750512 269.562591,106.999348 L267.816634,107.198416" id="Shape"></path>
        </g>
    </g>
</svg>