<?xml version="1.0" encoding="UTF-8"?>
<svg width="385px" height="352px" viewBox="0 0 385 352" version="1.1" xmlns="http://www.w3.org/2000/svg" xmlns:xlink="http://www.w3.org/1999/xlink">
    <!-- Generator: Sketch 43.1 (39012) - http://www.bohemiancoding.com/sketch -->
    <title>tech-digital-print</title>
    <desc>Created with Sketch.</desc>
    <defs></defs>
    <g id="Page-1" stroke="none" stroke-width="1" fill="none" fill-rule="evenodd">
        <g id="tech-digital-print" transform="translate(-1.000000, 0.000000)" fill-rule="nonzero" fill="#00769A">
            <g id="2342342Ресурс-1" transform="translate(212.000000, 0.000000)">
                <g id="Group-3">
                    <path d="M9.7688172,70.4971429 C4.85823258,70.4698275 0.896952237,66.4667516 0.91511466,61.5500246 C0.933277083,56.6332976 4.92402342,52.6596695 9.8346755,52.6687241 C14.7453276,52.6777787 18.7214296,56.6660965 18.7215054,61.5828571 C18.7149553,63.9536428 17.7680464,66.224721 16.0890897,67.8964758 C14.410133,69.5682306 12.1366614,70.5037192 9.7688172,70.4971429" id="Shape"></path>
                    <path d="M42.5376344,70.4971429 C37.6270498,70.4698275 33.6657694,66.4667516 33.6839319,61.5500246 C33.7020943,56.6332976 37.6928406,52.6596695 42.6034927,52.6687241 C47.5141448,52.6777787 51.4902468,56.6660965 51.4903226,61.5828571 C51.4837725,63.9536428 50.5368636,66.224721 48.8579069,67.8964758 C47.1789502,69.5682306 44.9054786,70.5037192 42.5376344,70.4971429" id="Shape"></path>
                    <path d="M75.3064516,70.4971429 C70.395867,70.4698275 66.4345866,66.4667516 66.4527491,61.5500246 C66.4709115,56.6332976 70.4616578,52.6596695 75.3723099,52.6687241 C80.282962,52.6777787 84.259064,56.6660965 84.2591398,61.5828571 C84.2525897,63.9536428 83.3056808,66.224721 81.6267241,67.8964758 C79.9477675,69.5682306 77.6742958,70.5037192 75.3064516,70.4971429" id="Shape"></path>
                    <path d="M108.075269,70.4971429 C103.164684,70.4698275 99.2034039,66.4667516 99.2215663,61.5500246 C99.2397287,56.6332976 103.230475,52.6596695 108.141127,52.6687241 C113.051779,52.6777787 117.027881,56.6660965 117.027957,61.5828571 C117.021407,63.9536428 116.074498,66.224721 114.395541,67.8964758 C112.716585,69.5682306 110.443113,70.5037192 108.075269,70.4971429" id="Shape"></path>
                    <path d="M173.679993,70.4971429 C168.769408,70.4698275 164.741038,66.4667516 164.759201,61.5500246 L164.759201,61.5500246 C164.777363,56.6332976 168.768109,52.6596695 173.678762,52.6687241" id="Shape"></path>
                    <path d="M108.075269,17.8533333 C103.164684,17.826018 99.2034039,13.8229421 99.2215663,8.90621507 C99.2397287,3.9894881 103.230475,0.0158600181 108.141127,0.0249145879 C113.051779,0.0339691577 117.027881,4.02228701 117.027957,8.93904762 C117.021407,11.3098333 116.074498,13.5809115 114.395541,15.2526663 C112.716585,16.9244211 110.443113,17.8599097 108.075269,17.8533333" id="Shape"></path>
                    <path d="M140.844086,17.8533333 C135.933501,17.826018 131.972221,13.8229421 131.990383,8.90621507 C132.008546,3.9894881 135.999292,0.0158600181 140.909944,0.0249145879 C145.820596,0.0339691577 149.796698,4.02228701 149.796774,8.93904762 C149.790224,11.3098333 148.843315,13.5809115 147.164359,15.2526663 C145.485402,16.9244211 143.21193,17.8599097 140.844086,17.8533333" id="Shape"></path>
                    <path d="M60.4677419,26.3219048 C65.3783266,26.3492201 69.3396069,30.352296 69.3214445,35.269023 C69.3032821,40.18575 65.3125357,44.1593781 60.4018836,44.1503235 C55.4912316,44.1412689 51.5151295,40.1529511 51.5150538,35.2361905 C51.5216038,32.8654048 52.4685127,30.5943266 54.1474694,28.9225718 C55.8264261,27.250817 58.0998978,26.3153284 60.4677419,26.3219048" id="Shape"></path>
                    <path d="M93.2365591,26.3219048 C98.1471438,26.3492201 102.108424,30.352296 102.090262,35.269023 C102.072099,40.18575 98.0813529,44.1593781 93.1707008,44.1503235 C88.2600488,44.1412689 84.2839468,40.1529511 84.283871,35.2361905 C84.290421,32.8654048 85.2373299,30.5943266 86.9162866,28.9225718 C88.5952433,27.250817 90.868715,26.3153284 93.2365591,26.3219048" id="Shape"></path>
                    <path d="M126.005376,26.3219048 C130.915961,26.3492201 134.877241,30.352296 134.859079,35.269023 C134.840916,40.18575 130.85017,44.1593781 125.939518,44.1503235 C121.028866,44.1412689 117.052764,40.1529511 117.052688,35.2361905 C117.059238,32.8654048 118.006147,30.5943266 119.685104,28.9225718 C121.364061,27.250817 123.637532,26.3153284 126.005376,26.3219048" id="Shape"></path>
                    <path d="M158.774194,26.3219048 C163.684778,26.3492201 167.646059,30.352296 167.627896,35.269023 C167.609734,40.18575 163.618987,44.1593781 158.708335,44.1503235 C153.797683,44.1412689 149.821581,40.1529511 149.821505,35.2361905 C149.828055,32.8654048 150.774964,30.5943266 152.453921,28.9225718 C154.132878,27.250817 156.406349,26.3153284 158.774194,26.3219048" id="Shape"></path>
                    <path d="M27.6989247,78.9657143 C32.6095094,78.9930296 36.5707897,82.9961056 36.5526273,87.9128325 C36.5344649,92.8295595 32.5437185,96.8031876 27.6330664,96.794133 C22.7224144,96.7850785 18.7463123,92.7967606 18.7462366,87.88 C18.7527866,85.5092144 19.6996955,83.2381362 21.3786522,81.5663813 C23.0576089,79.8946265 25.3310806,78.9591379 27.6989247,78.9657143" id="Shape"></path>
                    <path d="M93.2365591,78.9657143 C98.1471438,78.9930296 102.108424,82.9961056 102.090262,87.9128325 C102.072099,92.8295595 98.0813529,96.8031876 93.1707008,96.794133 C88.2600488,96.7850785 84.2839468,92.7967606 84.283871,87.88 C84.290421,85.5092144 85.2373299,83.2381362 86.9162866,81.5663813 C88.5952433,79.8946265 90.868715,78.9591379 93.2365591,78.9657143" id="Shape"></path>
                    <path d="M126.005376,78.9657143 C130.915961,78.9930296 134.877241,82.9961056 134.859079,87.9128325 C134.840916,92.8295595 130.85017,96.8031876 125.939518,96.794133 C121.028866,96.7850785 117.052764,92.7967606 117.052688,87.88 C117.059238,85.5092144 118.006147,83.2381362 119.685104,81.5663813 C121.364061,79.8946265 123.637532,78.9591379 126.005376,78.9657143" id="Shape"></path>
                    <path d="M158.774194,78.9657143 C163.684778,78.9930296 167.646059,82.9961056 167.627896,87.9128325 C167.609734,92.8295595 163.618987,96.8031876 158.708335,96.794133 C153.797683,96.7850785 149.821581,92.7967606 149.821505,87.88 C149.828055,85.5092144 150.774964,83.2381362 152.453921,81.5663813 C154.132878,79.8946265 156.406349,78.9591379 158.774194,78.9657143" id="Shape"></path>
                </g>
                <g id="Group-4" transform="translate(0.000000, 265.000000)">
                    <path d="M9.7688172,18.4285714 C4.85823258,18.4012561 0.896952237,14.3981801 0.91511466,9.48145317 C0.933277083,4.56472619 4.92402342,0.591098113 9.8346755,0.600152683 C14.7453276,0.609207253 18.7214296,4.59752511 18.7215054,9.51428571 C18.7149553,11.8850714 17.7680464,14.1561496 16.0890897,15.8279044 C14.410133,17.4996592 12.1366614,18.4351478 9.7688172,18.4285714" id="Shape"></path>
                    <path d="M42.5376344,18.4285714 C37.6270498,18.4012561 33.6657694,14.3981801 33.6839319,9.48145317 C33.7020943,4.56472619 37.6928406,0.591098113 42.6034927,0.600152683 C47.5141448,0.609207253 51.4902468,4.59752511 51.4903226,9.51428571 C51.4837725,11.8850714 50.5368636,14.1561496 48.8579069,15.8279044 C47.1789502,17.4996592 44.9054786,18.4351478 42.5376344,18.4285714" id="Shape"></path>
                    <path d="M75.3064516,18.4285714 C70.395867,18.4012561 66.4345866,14.3981801 66.4527491,9.48145317 C66.4709115,4.56472619 70.4616578,0.591098113 75.3723099,0.600152683 C80.282962,0.609207253 84.259064,4.59752511 84.2591398,9.51428571 C84.2525897,11.8850714 83.3056808,14.1561496 81.6267241,15.8279044 C79.9477675,17.4996592 77.6742958,18.4351478 75.3064516,18.4285714" id="Shape"></path>
                    <path d="M108.075269,18.4285714 C103.164684,18.4012561 99.2034039,14.3981801 99.2215663,9.48145317 C99.2397287,4.56472619 103.230475,0.591098113 108.141127,0.600152683 C113.051779,0.609207253 117.027881,4.59752511 117.027957,9.51428571 C117.021407,11.8850714 116.074498,14.1561496 114.395541,15.8279044 C112.716585,17.4996592 110.443113,18.4351478 108.075269,18.4285714" id="Shape"></path>
                    <path d="M173.679993,18.4285714 C168.769408,18.4012561 164.741038,14.3981801 164.759201,9.48145317 L164.759201,9.48145317 C164.777363,4.56472619 168.768109,0.591098113 173.678762,0.600152683" id="Shape"></path>
                </g>
                <g id="Group-4" transform="translate(0.000000, 105.000000)">
                    <path d="M9.7688172,18.4285714 C4.85823258,18.4012561 0.896952237,14.3981801 0.91511466,9.48145317 C0.933277083,4.56472619 4.92402342,0.591098113 9.8346755,0.600152683 C14.7453276,0.609207253 18.7214296,4.59752511 18.7215054,9.51428571 C18.7149553,11.8850714 17.7680464,14.1561496 16.0890897,15.8279044 C14.410133,17.4996592 12.1366614,18.4351478 9.7688172,18.4285714" id="Shape"></path>
                    <path d="M42.5376344,18.4285714 C37.6270498,18.4012561 33.6657694,14.3981801 33.6839319,9.48145317 C33.7020943,4.56472619 37.6928406,0.591098113 42.6034927,0.600152683 C47.5141448,0.609207253 51.4902468,4.59752511 51.4903226,9.51428571 C51.4837725,11.8850714 50.5368636,14.1561496 48.8579069,15.8279044 C47.1789502,17.4996592 44.9054786,18.4351478 42.5376344,18.4285714" id="Shape"></path>
                    <path d="M75.3064516,18.4285714 C70.395867,18.4012561 66.4345866,14.3981801 66.4527491,9.48145317 C66.4709115,4.56472619 70.4616578,0.591098113 75.3723099,0.600152683 C80.282962,0.609207253 84.259064,4.59752511 84.2591398,9.51428571 C84.2525897,11.8850714 83.3056808,14.1561496 81.6267241,15.8279044 C79.9477675,17.4996592 77.6742958,18.4351478 75.3064516,18.4285714" id="Shape"></path>
                    <path d="M108.075269,18.4285714 C103.164684,18.4012561 99.2034039,14.3981801 99.2215663,9.48145317 C99.2397287,4.56472619 103.230475,0.591098113 108.141127,0.600152683 C113.051779,0.609207253 117.027881,4.59752511 117.027957,9.51428571 C117.021407,11.8850714 116.074498,14.1561496 114.395541,15.8279044 C112.716585,17.4996592 110.443113,18.4351478 108.075269,18.4285714" id="Shape"></path>
                    <path d="M140.844086,18.4285714 C135.933501,18.4012561 131.972221,14.3981801 131.990383,9.48145317 C132.008546,4.56472619 135.999292,0.591098113 140.909944,0.600152683 C145.820596,0.609207253 149.796698,4.59752511 149.796774,9.51428571 C149.790224,11.8850714 148.843315,14.1561496 147.164359,15.8279044 C145.485402,17.4996592 143.21193,18.4351478 140.844086,18.4285714" id="Shape"></path>
                    <path d="M173.612903,18.4285714 C168.702319,18.4012561 164.741038,14.3981801 164.759201,9.48145317 C164.777363,4.56472619 168.768109,0.591098113 173.678762,0.600152683" id="Shape"></path>
                </g>
                <g id="Group-2" transform="translate(0.000000, 131.000000)">
                    <g id="Group-4" transform="translate(0.000000, 79.000000)">
                        <path d="M9.7688172,18.4285714 C4.85823258,18.4012561 0.896952237,14.3981801 0.91511466,9.48145317 C0.933277083,4.56472619 4.92402342,0.591098113 9.8346755,0.600152683 C14.7453276,0.609207253 18.7214296,4.59752511 18.7215054,9.51428571 C18.7149553,11.8850714 17.7680464,14.1561496 16.0890897,15.8279044 C14.410133,17.4996592 12.1366614,18.4351478 9.7688172,18.4285714" id="Shape"></path>
                        <path d="M42.5376344,18.4285714 C37.6270498,18.4012561 33.6657694,14.3981801 33.6839319,9.48145317 C33.7020943,4.56472619 37.6928406,0.591098113 42.6034927,0.600152683 C47.5141448,0.609207253 51.4902468,4.59752511 51.4903226,9.51428571 C51.4837725,11.8850714 50.5368636,14.1561496 48.8579069,15.8279044 C47.1789502,17.4996592 44.9054786,18.4351478 42.5376344,18.4285714" id="Shape"></path>
                        <path d="M75.3064516,18.4285714 C70.395867,18.4012561 66.4345866,14.3981801 66.4527491,9.48145317 C66.4709115,4.56472619 70.4616578,0.591098113 75.3723099,0.600152683 C80.282962,0.609207253 84.259064,4.59752511 84.2591398,9.51428571 C84.2525897,11.8850714 83.3056808,14.1561496 81.6267241,15.8279044 C79.9477675,17.4996592 77.6742958,18.4351478 75.3064516,18.4285714" id="Shape"></path>
                        <path d="M108.075269,18.4285714 C103.164684,18.4012561 99.2034039,14.3981801 99.2215663,9.48145317 C99.2397287,4.56472619 103.230475,0.591098113 108.141127,0.600152683 C113.051779,0.609207253 117.027881,4.59752511 117.027957,9.51428571 C117.021407,11.8850714 116.074498,14.1561496 114.395541,15.8279044 C112.716585,17.4996592 110.443113,18.4351478 108.075269,18.4285714" id="Shape"></path>
                        <path d="M140.844086,18.4285714 C135.933501,18.4012561 131.972221,14.3981801 131.990383,9.48145317 C132.008546,4.56472619 135.999292,0.591098113 140.909944,0.600152683 C145.820596,0.609207253 149.796698,4.59752511 149.796774,9.51428571 C149.790224,11.8850714 148.843315,14.1561496 147.164359,15.8279044 C145.485402,17.4996592 143.21193,18.4351478 140.844086,18.4285714" id="Shape"></path>
                        <path d="M173.679993,18.4285714 C168.769408,18.4012561 164.741038,14.3981801 164.759201,9.48145317 L164.759201,9.48145317 C164.777363,4.56472619 168.768109,0.591098113 173.678762,0.600152683" id="Shape"></path>
                    </g>
                    <path d="M9.7688172,44.8095238 C4.85823258,44.7822085 0.896952237,40.7791325 0.91511466,35.8624055 C0.933277083,30.9456786 4.92402342,26.9720505 9.8346755,26.9811051 C14.7453276,26.9901596 18.7214296,30.9784775 18.7215054,35.8952381 C18.7149553,38.2660237 17.7680464,40.5371019 16.0890897,42.2088568 C14.410133,43.8806116 12.1366614,44.8161002 9.7688172,44.8095238" id="Shape"></path>
                    <path d="M42.5376344,44.8095238 C37.6270498,44.7822085 33.6657694,40.7791325 33.6839319,35.8624055 C33.7020943,30.9456786 37.6928406,26.9720505 42.6034927,26.9811051 C47.5141448,26.9901596 51.4902468,30.9784775 51.4903226,35.8952381 C51.4837725,38.2660237 50.5368636,40.5371019 48.8579069,42.2088568 C47.1789502,43.8806116 44.9054786,44.8161002 42.5376344,44.8095238" id="Shape"></path>
                    <path d="M75.3064516,44.8095238 C70.395867,44.7822085 66.4345866,40.7791325 66.4527491,35.8624055 C66.4709115,30.9456786 70.4616578,26.9720505 75.3723099,26.9811051 C80.282962,26.9901596 84.259064,30.9784775 84.2591398,35.8952381 C84.2525897,38.2660237 83.3056808,40.5371019 81.6267241,42.2088568 C79.9477675,43.8806116 77.6742958,44.8161002 75.3064516,44.8095238" id="Shape"></path>
                    <path d="M108.075269,44.8095238 C103.164684,44.7822085 99.2034039,40.7791325 99.2215663,35.8624055 C99.2397287,30.9456786 103.230475,26.9720505 108.141127,26.9811051 C113.051779,26.9901596 117.027881,30.9784775 117.027957,35.8952381 C117.021407,38.2660237 116.074498,40.5371019 114.395541,42.2088568 C112.716585,43.8806116 110.443113,44.8161002 108.075269,44.8095238" id="Shape"></path>
                    <path d="M173.679993,44.8095238 C168.769408,44.7822085 164.741038,40.7791325 164.759201,35.8624055 L164.759201,35.8624055 C164.777363,30.9456786 168.768109,26.9720505 173.678762,26.9811051" id="Shape"></path>
                    <path d="M27.6989247,53.2533333 C32.6127232,53.2806853 36.5752955,57.288802 36.5525589,62.2087279 C36.5298223,67.1286539 32.5303747,71.0998839 27.6165339,71.0817062 C22.702693,71.0635284 18.7326628,67.062817 18.7462366,62.1428571 C18.7527866,59.7720715 19.6996955,57.5009933 21.3786522,55.8292385 C23.0576089,54.1574836 25.3310806,53.2219951 27.6989247,53.2285714" id="Shape"></path>
                    <path d="M93.2365591,53.2533333 C98.1503576,53.2806853 102.11293,57.288802 102.090193,62.2087279 C102.067457,67.1286539 98.0680091,71.0998839 93.1541683,71.0817062 C88.2403274,71.0635284 84.2702973,67.062817 84.283871,62.1428571 C84.3111161,57.2156334 88.3153923,53.2396088 93.2365591,53.2533333" id="Shape"></path>
                    <path d="M126.005376,53.2533333 C130.919175,53.2806853 134.881747,57.288802 134.859011,62.2087279 C134.836274,67.1286539 130.836826,71.0998839 125.922985,71.0817062 C121.009145,71.0635284 117.039114,67.062817 117.052688,62.1428571 C117.059238,59.7720715 118.006147,57.5009933 119.685104,55.8292385 C121.364061,54.1574836 123.637532,53.2219951 126.005376,53.2285714" id="Shape"></path>
                    <path d="M158.774194,53.2533333 C163.687992,53.2806853 167.650564,57.288802 167.627828,62.2087279 C167.605091,67.1286539 163.605644,71.0998839 158.691803,71.0817062 C153.777962,71.0635284 149.807932,67.062817 149.821505,62.1428571 C149.828055,59.7720715 150.774964,57.5009933 152.453921,55.8292385 C154.132878,54.1574836 156.406349,53.2219951 158.774194,53.2285714" id="Shape"></path>
                    <path d="M60.4677419,105.897143 C65.3783266,105.924458 69.3396069,109.927534 69.3214445,114.844261 C69.3032821,119.760988 65.3125357,123.734616 60.4018836,123.725562 C55.4912316,123.716507 51.5151295,119.728189 51.5150538,114.811429 C51.5216038,112.440643 52.4685127,110.169565 54.1474694,108.49781 C55.8264261,106.826055 58.0998978,105.890566 60.4677419,105.897143" id="Shape"></path>
                    <path d="M93.2365591,105.897143 C98.1471438,105.924458 102.108424,109.927534 102.090262,114.844261 C102.072099,119.760988 98.0813529,123.734616 93.1707008,123.725562 C88.2600488,123.716507 84.2839468,119.728189 84.283871,114.811429 C84.290421,112.440643 85.2373299,110.169565 86.9162866,108.49781 C88.5952433,106.826055 90.868715,105.890566 93.2365591,105.897143" id="Shape"></path>
                    <path d="M126.005376,105.897143 C130.915961,105.924458 134.877241,109.927534 134.859079,114.844261 C134.840916,119.760988 130.85017,123.734616 125.939518,123.725562 C121.028866,123.716507 117.052764,119.728189 117.052688,114.811429 C117.059238,112.440643 118.006147,110.169565 119.685104,108.49781 C121.364061,106.826055 123.637532,105.890566 126.005376,105.897143" id="Shape"></path>
                    <path d="M158.774194,105.897143 C163.684778,105.924458 167.646059,109.927534 167.627896,114.844261 C167.609734,119.760988 163.618987,123.734616 158.708335,123.725562 C153.797683,123.716507 149.821581,119.728189 149.821505,114.811429 C149.828055,112.440643 150.774964,110.169565 152.453921,108.49781 C154.132878,106.826055 156.406349,105.890566 158.774194,105.897143" id="Shape"></path>
                    <path d="M27.6989247,18.4628571 C22.7883401,18.4355418 18.8270598,14.4324659 18.8452222,9.51573888 C18.8633846,4.59901191 22.854131,0.625383828 27.764783,0.634438397 C32.6754351,0.643492967 36.6515371,4.63181082 36.6516129,9.54857143 C36.6450629,11.9193571 35.698154,14.1904353 34.0191973,15.8621901 C32.3402406,17.5339449 30.0667689,18.4694335 27.6989247,18.4628571" id="Shape"></path>
                    <path d="M60.4677419,18.4628571 C55.5571573,18.4355418 51.595877,14.4324659 51.6140394,9.51573888 C51.6322018,4.59901191 55.6229482,0.625383828 60.5336002,0.634438397 C65.4442523,0.643492967 69.4203543,4.63181082 69.4204301,9.54857143 C69.4138801,11.9193571 68.4669712,14.1904353 66.7880145,15.8621901 C65.1090578,17.5339449 62.8355861,18.4694335 60.4677419,18.4628571" id="Shape"></path>
                    <path d="M93.2365591,18.4628571 C88.3259745,18.4355418 84.3646942,14.4324659 84.3828566,9.51573888 C84.401019,4.59901191 88.3917654,0.625383828 93.3024174,0.634438397 C98.2130695,0.643492967 102.189172,4.63181082 102.189247,9.54857143 C102.182697,11.9193571 101.235788,14.1904353 99.5568317,15.8621901 C97.877875,17.5339449 95.6044033,18.4694335 93.2365591,18.4628571" id="Shape"></path>
                    <path d="M126.005376,18.4628571 C121.094792,18.4355418 117.133511,14.4324659 117.151674,9.51573888 C117.169836,4.59901191 121.160583,0.625383828 126.071235,0.634438397 C130.981887,0.643492967 134.957989,4.63181082 134.958065,9.54857143 C134.951514,11.9193571 134.004606,14.1904353 132.325649,15.8621901 C130.646692,17.5339449 128.373221,18.4694335 126.005376,18.4628571" id="Shape"></path>
                    <path d="M158.774194,18.4628571 C153.863609,18.4355418 149.902329,14.4324659 149.920491,9.51573888 C149.938653,4.59901191 153.9294,0.625383828 158.840052,0.634438397 C163.750704,0.643492967 167.726806,4.63181082 167.726882,9.54857143 C167.720332,11.9193571 166.773423,14.1904353 165.094466,15.8621901 C163.415509,17.5339449 161.142038,18.4694335 158.774194,18.4628571" id="Shape"></path>
                </g>
                <g id="Group" transform="translate(0.000000, 289.000000)">
                    <path d="M9.7688172,44.6914286 C4.85823258,44.6641132 0.896952237,40.6610373 0.91511466,35.7443103 C0.933277083,30.8275833 4.92402342,26.8539553 9.8346755,26.8630098 C14.7453276,26.8720644 18.7214296,30.8603823 18.7215054,35.7771429 C18.7149553,38.1479285 17.7680464,40.4190067 16.0890897,42.0907615 C14.410133,43.7625164 12.1366614,44.6980049 9.7688172,44.6914286" id="Shape"></path>
                    <path d="M42.5376344,44.6914286 C37.6270498,44.6641132 33.6657694,40.6610373 33.6839319,35.7443103 C33.7020943,30.8275833 37.6928406,26.8539553 42.6034927,26.8630098 C47.5141448,26.8720644 51.4902468,30.8603823 51.4903226,35.7771429 C51.4837725,38.1479285 50.5368636,40.4190067 48.8579069,42.0907615 C47.1789502,43.7625164 44.9054786,44.6980049 42.5376344,44.6914286" id="Shape"></path>
                    <path d="M75.3064516,44.6914286 C70.395867,44.6641132 66.4345866,40.6610373 66.4527491,35.7443103 C66.4709115,30.8275833 70.4616578,26.8539553 75.3723099,26.8630098 C80.282962,26.8720644 84.259064,30.8603823 84.2591398,35.7771429 C84.2525897,38.1479285 83.3056808,40.4190067 81.6267241,42.0907615 C79.9477675,43.7625164 77.6742958,44.6980049 75.3064516,44.6914286" id="Shape"></path>
                    <path d="M108.075269,44.6914286 C103.164684,44.6641132 99.2034039,40.6610373 99.2215663,35.7443103 C99.2397287,30.8275833 103.230475,26.8539553 108.141127,26.8630098 C113.051779,26.8720644 117.027881,30.8603823 117.027957,35.7771429 C117.021407,38.1479285 116.074498,40.4190067 114.395541,42.0907615 C112.716585,43.7625164 110.443113,44.6980049 108.075269,44.6914286" id="Shape"></path>
                    <path d="M140.844086,44.6914286 C135.933501,44.6641132 131.972221,40.6610373 131.990383,35.7443103 C132.008546,30.8275833 135.999292,26.8539553 140.909944,26.8630098 C145.820596,26.8720644 149.796698,30.8603823 149.796774,35.7771429 C149.790224,38.1479285 148.843315,40.4190067 147.164359,42.0907615 C145.485402,43.7625164 143.21193,44.6980049 140.844086,44.6914286" id="Shape"></path>
                    <path d="M173.612903,44.6914286 C168.702319,44.6641132 164.741038,40.6610373 164.759201,35.7443103 C164.777363,30.8275833 168.768109,26.8539553 173.678762,26.8630098" id="Shape"></path>
                    <path d="M18.7462366,62.0990476 C18.7527866,59.728262 19.6996955,57.4571838 21.3786522,55.785429 C23.0576089,54.1136741 25.3310806,53.1781855 27.6989247,53.1847619 C32.6095094,53.2120772 36.5707897,57.1832486 36.5526273,62.0999756 L36.5526273,62.0999756" id="Shape"></path>
                    <path d="M51.5150538,62.0990476 C51.5216038,59.728262 52.4685127,57.4571838 54.1474694,55.785429 C55.8264261,54.1136741 58.0998978,53.1781855 60.4677419,53.1847619 C65.3783266,53.2120772 69.3396069,57.1832486 69.3214445,62.0999756 L69.3214445,62.0999756" id="Shape"></path>
                    <path d="M117.052688,62.0990476 C117.059238,59.728262 118.006147,57.4571838 119.685104,55.785429 C121.364061,54.1136741 123.637532,53.1781855 126.005376,53.1847619 C130.915961,53.2120772 134.877241,57.1832486 134.859079,62.0999756 L134.859079,62.0999756" id="Shape"></path>
                    <path d="M149.821505,62.0990476 C149.828055,59.728262 150.774964,57.4571838 152.453921,55.785429 C154.132878,54.1136741 156.406349,53.1781855 158.774194,53.1847619 C163.684778,53.2120772 167.646059,57.1832486 167.627896,62.0999756 L167.627896,62.0999756" id="Shape"></path>
                    <path d="M27.6989247,18.3695238 C22.7883401,18.3422085 18.8270598,14.3391325 18.8452222,9.42240555 C18.8633846,4.50567857 22.854131,0.532050494 27.764783,0.541105064 C32.6754351,0.550159634 36.6515371,4.53847749 36.6516129,9.4552381 C36.6450629,11.8260237 35.698154,14.0971019 34.0191973,15.7688568 C32.3402406,17.4406116 30.0667689,18.3761002 27.6989247,18.3695238" id="Shape"></path>
                    <path d="M93.2365591,18.3695238 C88.3259745,18.3422085 84.3646942,14.3391325 84.3828566,9.42240555 C84.401019,4.50567857 88.3917654,0.532050494 93.3024174,0.541105064 C98.2130695,0.550159634 102.189172,4.53847749 102.189247,9.4552381 C102.182697,11.8260237 101.235788,14.0971019 99.5568317,15.7688568 C97.877875,17.4406116 95.6044033,18.3761002 93.2365591,18.3695238" id="Shape"></path>
                    <path d="M126.005376,18.3695238 C121.094792,18.3422085 117.133511,14.3391325 117.151674,9.42240555 C117.169836,4.50567857 121.160583,0.532050494 126.071235,0.541105064 C130.981887,0.550159634 134.957989,4.53847749 134.958065,9.4552381 C134.951514,11.8260237 134.004606,14.0971019 132.325649,15.7688568 C130.646692,17.4406116 128.373221,18.3761002 126.005376,18.3695238" id="Shape"></path>
                    <path d="M158.774194,18.3695238 C153.863609,18.3422085 149.902329,14.3391325 149.920491,9.42240555 C149.938653,4.50567857 153.9294,0.532050494 158.840052,0.541105064 C163.750704,0.550159634 167.726806,4.53847749 167.726882,9.4552381 C167.720332,11.8260237 166.773423,14.0971019 165.094466,15.7688568 C163.415509,17.4406116 161.142038,18.3761002 158.774194,18.3695238" id="Shape"></path>
                </g>
            </g>
            <g id="2342342Ресурс-1" transform="translate(0.000000, 78.000000)">
                <g id="Group-3" transform="translate(197.000000, 0.000000)">
                    <path d="M9.54301075,18.7942857 C4.63242613,18.7669704 0.671145786,14.7638944 0.689308209,9.84716745 C0.707470631,4.93044048 4.69821697,0.956812399 9.60886905,0.965866969 C14.5195211,0.974921539 18.4956231,4.96323939 18.4956989,9.88 C18.4891489,12.2507856 17.54224,14.5218638 15.8632833,16.1936187 C14.1843266,17.8653735 11.9108549,18.8008621 9.54301075,18.7942857" id="Shape"></path>
                </g>
                <g id="Group-4" transform="translate(48.000000, 187.000000)">
                    <path d="M9.53763441,18.4285714 C4.62704978,18.4012561 0.665769442,14.3981801 0.683931865,9.48145317 C0.702094287,4.56472619 4.69284063,0.591098113 9.60349271,0.600152683 C14.5141448,0.609207253 18.4902468,4.59752511 18.4903226,9.51428571 C18.4837725,11.8850714 17.5368636,14.1561496 15.8579069,15.8279044 C14.1789502,17.4996592 11.9054786,18.4351478 9.53763441,18.4285714" id="Shape"></path>
                    <path d="M42.3064516,18.4285714 C37.395867,18.4012561 33.4345866,14.3981801 33.4527491,9.48145317 C33.4709115,4.56472619 37.4616578,0.591098113 42.3723099,0.600152683 C47.282962,0.609207253 51.259064,4.59752511 51.2591398,9.51428571 C51.2525897,11.8850714 50.3056808,14.1561496 48.6267241,15.8279044 C46.9477675,17.4996592 44.6742958,18.4351478 42.3064516,18.4285714" id="Shape"></path>
                    <path d="M75.0752688,18.4285714 C70.1646842,18.4012561 66.2034039,14.3981801 66.2215663,9.48145317 C66.2397287,4.56472619 70.230475,0.591098113 75.1411271,0.600152683 C80.0517792,0.609207253 84.0278812,4.59752511 84.027957,9.51428571 C84.0214069,11.8850714 83.074498,14.1561496 81.3955413,15.8279044 C79.7165847,17.4996592 77.443113,18.4351478 75.0752688,18.4285714" id="Shape"></path>
                    <path d="M107.844086,18.4285714 C102.933501,18.4012561 98.9722211,14.3981801 98.9903835,9.48145317 C99.0085459,4.56472619 102.999292,0.591098113 107.909944,0.600152683 C112.820596,0.609207253 116.796698,4.59752511 116.796774,9.51428571 C116.790224,11.8850714 115.843315,14.1561496 114.164359,15.8279044 C112.485402,17.4996592 110.21193,18.4351478 107.844086,18.4285714" id="Shape"></path>
                </g>
                <g id="Group-4" transform="translate(146.000000, 27.000000)">
                    <path d="M9.84408602,18.4285714 C4.9335014,18.4012561 0.972221055,14.3981801 0.990383477,9.48145317 C1.0085459,4.56472619 4.99929224,0.591098113 9.90994432,0.600152683 C14.8205964,0.609207253 18.7966984,4.59752511 18.7967742,9.51428571 C18.7902242,11.8850714 17.8433152,14.1561496 16.1643586,15.8279044 C14.4854019,17.4996592 12.2119302,18.4351478 9.84408602,18.4285714" id="Shape"></path>
                    <path d="M42.6129032,18.4285714 C37.7023186,18.4012561 33.7410383,14.3981801 33.7592007,9.48145317 C33.7773631,4.56472619 37.7681094,0.591098113 42.6787615,0.600152683 C47.5894136,0.609207253 51.5655156,4.59752511 51.5655914,9.51428571 C51.5590414,11.8850714 50.6121324,14.1561496 48.9331758,15.8279044 C47.2542191,17.4996592 44.9807474,18.4351478 42.6129032,18.4285714" id="Shape"></path>
                </g>
                <g id="Group-2" transform="translate(81.000000, 53.000000)">
                    <g id="Group-4" transform="translate(0.000000, 79.000000)">
                        <path d="M9.30645161,18.4285714 C4.39586699,18.4012561 0.434586646,14.3981801 0.452749069,9.48145317 C0.470911492,4.56472619 4.46165783,0.591098113 9.37230991,0.600152683 C14.282962,0.609207253 18.259064,4.59752511 18.2591398,9.51428571 C18.2525897,11.8850714 17.3056808,14.1561496 15.6267241,15.8279044 C13.9477675,17.4996592 11.6742958,18.4351478 9.30645161,18.4285714" id="Shape"></path>
                        <path d="M42.0752688,18.4285714 C37.1646842,18.4012561 33.2034039,14.3981801 33.2215663,9.48145317 C33.2397287,4.56472619 37.230475,0.591098113 42.1411271,0.600152683 C47.0517792,0.609207253 51.0278812,4.59752511 51.027957,9.51428571 C51.0214069,11.8850714 50.074498,14.1561496 48.3955413,15.8279044 C46.7165847,17.4996592 44.443113,18.4351478 42.0752688,18.4285714" id="Shape"></path>
                        <path d="M74.844086,18.4285714 C69.9335014,18.4012561 65.9722211,14.3981801 65.9903835,9.48145317 C66.0085459,4.56472619 69.9992922,0.591098113 74.9099443,0.600152683 C79.8205964,0.609207253 83.7966984,4.59752511 83.7967742,9.51428571 C83.7902242,11.8850714 82.8433152,14.1561496 81.1643586,15.8279044 C79.4854019,17.4996592 77.2119302,18.4351478 74.844086,18.4285714" id="Shape"></path>
                        <path d="M107.612903,18.4285714 C102.702319,18.4012561 98.7410383,14.3981801 98.7592007,9.48145317 C98.7773631,4.56472619 102.768109,0.591098113 107.678762,0.600152683 C112.589414,0.609207253 116.565516,4.59752511 116.565591,9.51428571 C116.559041,11.8850714 115.612132,14.1561496 113.933176,15.8279044 C112.254219,17.4996592 109.980747,18.4351478 107.612903,18.4285714" id="Shape"></path>
                    </g>
                    <path d="M74.844086,44.8095238 C69.9335014,44.7822085 65.9722211,40.7791325 65.9903835,35.8624055 C66.0085459,30.9456786 69.9992922,26.9720505 74.9099443,26.9811051 C79.8205964,26.9901596 83.7966984,30.9784775 83.7967742,35.8952381 C83.7902242,38.2660237 82.8433152,40.5371019 81.1643586,42.2088568 C79.4854019,43.8806116 77.2119302,44.8161002 74.844086,44.8095238" id="Shape"></path>
                    <path d="M107.612903,44.8095238 C102.702319,44.7822085 98.7410383,40.7791325 98.7592007,35.8624055 C98.7773631,30.9456786 102.768109,26.9720505 107.678762,26.9811051 C112.589414,26.9901596 116.565516,30.9784775 116.565591,35.8952381 C116.559041,38.2660237 115.612132,40.5371019 113.933176,42.2088568 C112.254219,43.8806116 109.980747,44.8161002 107.612903,44.8095238" id="Shape"></path>
                    <path d="M27.2365591,53.2533333 C32.1503576,53.2806853 36.1129299,57.288802 36.0901933,62.2087279 C36.0674567,67.1286539 32.0680091,71.0998839 27.1541683,71.0817062 C22.2403274,71.0635284 18.2702973,67.062817 18.283871,62.1428571 C18.3111161,57.2156334 22.3153923,53.2396088 27.2365591,53.2533333" id="Shape"></path>
                    <path d="M60.0053763,53.2533333 C64.9191748,53.2806853 68.8817471,57.288802 68.8590105,62.2087279 C68.8362739,67.1286539 64.8368263,71.0998839 59.9229855,71.0817062 C55.0091446,71.0635284 51.0391145,67.062817 51.0526882,62.1428571 C51.0592382,59.7720715 52.0061471,57.5009933 53.6851038,55.8292385 C55.3640605,54.1574836 57.6375322,53.2219951 60.0053763,53.2285714" id="Shape"></path>
                    <path d="M92.7741935,53.2533333 C97.687992,53.2806853 101.650564,57.288802 101.627828,62.2087279 C101.605091,67.1286539 97.6056435,71.0998839 92.6918027,71.0817062 C87.7779618,71.0635284 83.8079317,67.062817 83.8215054,62.1428571 C83.8280554,59.7720715 84.7749643,57.5009933 86.453921,55.8292385 C88.1328777,54.1574836 90.4063494,53.2219951 92.7741935,53.2285714" id="Shape"></path>
                    <path d="M116.590323,62.1428571 C116.570292,58.5128952 118.738799,55.2291964 122.082554,53.8261515 C125.426308,52.4231066 129.285104,53.1777396 131.85582,55.7374294 C134.426537,58.2971192 135.201601,62.156468 133.818843,65.512098 C132.436085,68.8677281 129.168524,71.0570875 125.543011,71.0571429 C123.175167,71.0637192 120.901695,70.1282306 119.222738,68.4564758 C117.543782,66.784721 116.596873,64.5136428 116.590323,62.1428571" id="Shape"></path>
                    <path d="M27.2365591,105.897143 C32.1471438,105.924458 36.1084241,109.927534 36.0902617,114.844261 C36.0720993,119.760988 32.0813529,123.734616 27.1707008,123.725562 C22.2600488,123.716507 18.2839468,119.728189 18.283871,114.811429 C18.290421,112.440643 19.2373299,110.169565 20.9162866,108.49781 C22.5952433,106.826055 24.868715,105.890566 27.2365591,105.897143" id="Shape"></path>
                    <path d="M60.0053763,105.897143 C64.915961,105.924458 68.8772413,109.927534 68.8590789,114.844261 C68.8409165,119.760988 64.8501701,123.734616 59.939518,123.725562 C55.028866,123.716507 51.052764,119.728189 51.0526882,114.811429 C51.0592382,112.440643 52.0061471,110.169565 53.6851038,108.49781 C55.3640605,106.826055 57.6375322,105.890566 60.0053763,105.897143" id="Shape"></path>
                    <path d="M92.7741935,105.897143 C97.6847782,105.924458 101.646059,109.927534 101.627896,114.844261 C101.609734,119.760988 97.6189873,123.734616 92.7083352,123.725562 C87.7976832,123.716507 83.8215812,119.728189 83.8215054,114.811429 C83.8280554,112.440643 84.7749643,110.169565 86.453921,108.49781 C88.1328777,106.826055 90.4063494,105.890566 92.7741935,105.897143" id="Shape"></path>
                    <path d="M125.543011,123.725714 C120.632426,123.698399 116.671146,119.695323 116.689308,114.778596 C116.707471,109.861869 120.698217,105.888241 125.608869,105.897296 C130.519521,105.90635 134.495623,109.894668 134.495699,114.811429 C134.489149,117.182214 133.54224,119.453292 131.863283,121.125047 C130.184327,122.796802 127.910855,123.732291 125.543011,123.725714" id="Shape"></path>
                    <path d="M60.0053763,18.4628571 C55.0947917,18.4355418 51.1335114,14.4324659 51.1516738,9.51573888 C51.1698362,4.59901191 55.1605826,0.625383828 60.0712346,0.634438397 C64.9818867,0.643492967 68.9579887,4.63181082 68.9580645,9.54857143 C68.9515145,11.9193571 68.0046056,14.1904353 66.3256489,15.8621901 C64.6466922,17.5339449 62.3732205,18.4694335 60.0053763,18.4628571" id="Shape"></path>
                    <path d="M92.7741935,18.4628571 C87.8636089,18.4355418 83.9023286,14.4324659 83.920491,9.51573888 C83.9386534,4.59901191 87.9293998,0.625383828 92.8400518,0.634438397 C97.7507039,0.643492967 101.726806,4.63181082 101.726882,9.54857143 C101.720332,11.9193571 100.773423,14.1904353 99.0944661,15.8621901 C97.4155094,17.5339449 95.1420377,18.4694335 92.7741935,18.4628571" id="Shape"></path>
                </g>
                <g id="Group" transform="translate(0.000000, 211.000000)">
                    <path d="M24.7688172,44.6914286 C19.8582326,44.6641132 15.8969522,40.6610373 15.9151147,35.7443103 C15.9332771,30.8275833 19.9240234,26.8539553 24.8346755,26.8630098 C29.7453276,26.8720644 33.7214296,30.8603823 33.7215054,35.7771429 C33.7149553,38.1479285 32.7680464,40.4190067 31.0890897,42.0907615 C29.410133,43.7625164 27.1366614,44.6980049 24.7688172,44.6914286" id="Shape"></path>
                    <path d="M57.5376344,44.6914286 C52.6270498,44.6641132 48.6657694,40.6610373 48.6839319,35.7443103 C48.7020943,30.8275833 52.6928406,26.8539553 57.6034927,26.8630098 C62.5141448,26.8720644 66.4902468,30.8603823 66.4903226,35.7771429 C66.4837725,38.1479285 65.5368636,40.4190067 63.8579069,42.0907615 C62.1789502,43.7625164 59.9054786,44.6980049 57.5376344,44.6914286" id="Shape"></path>
                    <path d="M90.3064516,44.6914286 C85.395867,44.6641132 81.4345866,40.6610373 81.4527491,35.7443103 C81.4709115,30.8275833 85.4616578,26.8539553 90.3723099,26.8630098 C95.282962,26.8720644 99.259064,30.8603823 99.2591398,35.7771429 C99.2525897,38.1479285 98.3056808,40.4190067 96.6267241,42.0907615 C94.9477675,43.7625164 92.6742958,44.6980049 90.3064516,44.6914286" id="Shape"></path>
                    <path d="M123.075269,44.6914286 C118.164684,44.6641132 114.203404,40.6610373 114.221566,35.7443103 C114.239729,30.8275833 118.230475,26.8539553 123.141127,26.8630098 C128.051779,26.8720644 132.027881,30.8603823 132.027957,35.7771429 C132.021407,38.1479285 131.074498,40.4190067 129.395541,42.0907615 C127.716585,43.7625164 125.443113,44.6980049 123.075269,44.6914286" id="Shape"></path>
                    <path d="M155.844086,44.6914286 C150.933501,44.6641132 146.972221,40.6610373 146.990383,35.7443103 C147.008546,30.8275833 150.999292,26.8539553 155.909944,26.8630098 C160.820596,26.8720644 164.796698,30.8603823 164.796774,35.7771429 C164.790224,38.1479285 163.843315,40.4190067 162.164359,42.0907615 C160.485402,43.7625164 158.21193,44.6980049 155.844086,44.6914286" id="Shape"></path>
                    <path d="M188.612903,44.6914286 C183.702319,44.6641132 179.741038,40.6610373 179.759201,35.7443103 C179.777363,30.8275833 183.768109,26.8539553 188.678762,26.8630098 C193.589414,26.8720644 197.565516,30.8603823 197.565591,35.7771429 C197.559041,38.1479285 196.612132,40.4190067 194.933176,42.0907615 C193.254219,43.7625164 190.980747,44.6980049 188.612903,44.6914286" id="Shape"></path>
                    <path d="M0.977419355,62.0990476 C0.983969395,59.728262 1.93087831,57.4571838 3.609835,55.785429 C5.28879169,54.1136741 7.56226335,53.1781855 9.93010753,53.1847619 C14.8406922,53.2120772 18.8019725,57.1832486 18.7838101,62.0999756 L18.7838101,62.0999756" id="Shape"></path>
                    <path d="M33.7462366,62.0990476 C33.7527866,59.728262 34.6996955,57.4571838 36.3786522,55.785429 C38.0576089,54.1136741 40.3310806,53.1781855 42.6989247,53.1847619 C47.6095094,53.2120772 51.5707897,57.1832486 51.5526273,62.0999756 L51.5526273,62.0999756" id="Shape"></path>
                    <path d="M66.5150538,62.0990476 C66.5216038,59.728262 67.4685127,57.4571838 69.1474694,55.785429 C70.8264261,54.1136741 73.0998978,53.1781855 75.4677419,53.1847619 C80.3783266,53.2120772 84.3396069,57.1832486 84.3214445,62.0999756 L84.3214445,62.0999756" id="Shape"></path>
                    <path d="M99.283871,62.0990476 C99.290421,59.728262 100.23733,57.4571838 101.916287,55.785429 C103.595243,54.1136741 105.868715,53.1781855 108.236559,53.1847619 C113.147144,53.2120772 117.108424,57.1832486 117.090262,62.0999756 L117.090262,62.0999756" id="Shape"></path>
                    <path d="M164.821505,62.0990476 C164.828055,59.728262 165.774964,57.4571838 167.453921,55.785429 C169.132878,54.1136741 171.406349,53.1781855 173.774194,53.1847619 C178.684778,53.2120772 182.646059,57.1832486 182.627896,62.0999756 L182.627896,62.0999756" id="Shape"></path>
                    <path d="M197.590323,62.0990476 C197.570292,58.4690857 199.738799,55.1853869 203.082554,53.782342 L203.082554,53.782342 C206.426308,52.3792971 210.285104,53.1339301 212.85582,55.6936199 C214.609922,57.4401969 215.52799,59.716102 215.494969,62.0999756" id="Shape"></path>
                    <path d="M75.4677419,18.3695238 C70.5571573,18.3422085 66.595877,14.3391325 66.6140394,9.42240555 C66.6322018,4.50567857 70.6229482,0.532050494 75.5336002,0.541105064 C80.4442523,0.550159634 84.4203543,4.53847749 84.4204301,9.4552381 C84.4138801,11.8260237 83.4669712,14.0971019 81.7880145,15.7688568 C80.1090578,17.4406116 77.8355861,18.3761002 75.4677419,18.3695238" id="Shape"></path>
                    <path d="M141.005376,18.3695238 C136.094792,18.3422085 132.133511,14.3391325 132.151674,9.42240555 C132.169836,4.50567857 136.160583,0.532050494 141.071235,0.541105064 C145.981887,0.550159634 149.957989,4.53847749 149.958065,9.4552381 C149.951514,11.8260237 149.004606,14.0971019 147.325649,15.7688568 C145.646692,17.4406116 143.373221,18.3761002 141.005376,18.3695238" id="Shape"></path>
                    <path d="M173.774194,18.3695238 C168.863609,18.3422085 164.902329,14.3391325 164.920491,9.42240555 C164.938653,4.50567857 168.9294,0.532050494 173.840052,0.541105064 C178.750704,0.550159634 182.726806,4.53847749 182.726882,9.4552381 C182.720332,11.8260237 181.773423,14.0971019 180.094466,15.7688568 C178.415509,17.4406116 176.142038,18.3761002 173.774194,18.3695238" id="Shape"></path>
                    <path d="M197.590323,9.4552381 C197.570292,5.82527619 199.738799,2.54157734 203.082554,1.13853244 C206.426308,-0.264512467 210.285104,0.490120601 212.85582,3.04981036 C215.426537,5.60950012 216.201601,9.46884893 214.818843,12.824479 C213.436085,16.1801091 210.168524,18.3694684 206.543011,18.3695238 C204.175167,18.3761002 201.901695,17.4406116 200.222738,15.7688568 C198.543782,14.0971019 197.596873,11.8260237 197.590323,9.4552381" id="Shape"></path>
                </g>
            </g>
        </g>
    </g>
</svg>