<?xml version="1.0" encoding="UTF-8"?>
<svg width="235px" height="237px" viewBox="0 0 235 237" version="1.1" xmlns="http://www.w3.org/2000/svg" xmlns:xlink="http://www.w3.org/1999/xlink">
    <!-- Generator: Sketch 43.1 (39012) - http://www.bohemiancoding.com/sketch -->
    <title>tech-offset</title>
    <desc>Created with Sketch.</desc>
    <defs></defs>
    <g id="Page-1" stroke="none" stroke-width="1" fill="none" fill-rule="evenodd">
        <g id="tech-offset" fill-rule="nonzero" fill="#C12762">
            <path d="M154.948387,0.5 L154.948387,59.5 L158.258602,59.5 L158.258602,0.5 M161.594086,0.5 L161.594086,59.5 L164.92957,59.5 L164.92957,0.5 M168.265054,0.5 L168.265054,59.5 L171.575269,59.5 L171.575269,0.5 M175.138172,0.5 L175.138172,59.5 L181.329032,59.5 L181.329032,30 L184.462366,30 L184.462366,59.5 L187.772581,59.5 L187.772581,30 L191.108065,30 L191.108065,59.5 L194.569892,59.5 L194.569892,30 L197.905376,30 L197.905376,59.5 L201.24086,59.5 L201.24086,30 L204.677419,30 L204.677419,59.5 L233.989247,59.5 L233.989247,56.661512 L207.633871,56.661512 L207.633871,53.0120275 L234.090323,53.0120275 L234.090323,49.717354 L207.633871,49.717354 L207.633871,46.524055 L234.090323,46.524055 L234.090323,43.2293814 L207.633871,43.2293814 L207.633871,39.9093643 L234.090323,39.9093643 L234.090323,36.6146907 L207.633871,36.6146907 L207.633871,33.2946735 L234.090323,33.2946735 L234.090323,27.161512 L177.917742,27.161512 L177.917742,23.6134021 L234.090323,23.6134021 L234.090323,20.3187285 L177.917742,20.3187285 L177.917742,17.024055 L234.090323,17.024055 L234.090323,13.7293814 L177.917742,13.7293814 L177.917742,10.4093643 L234.090323,10.4093643 L234.090323,7.11469072 L177.917742,7.11469072 L177.917742,3.79467354 L234.090323,3.79467354 L234.090323,0.5 L230.93172,0.5 L227.621505,0.5 L224.286022,0.5 L220.975806,0.5 L217.615054,0.5 L214.304839,0.5 L210.969355,0.5 L177.917742,0.5" id="Shape"></path>
            <polygon id="Shape" points="112.117742 183.548917 112.117742 177.175061 108.782258 177.175061 108.782258 183.548917 108.782258 206.616207 112.117742 206.616207"></polygon>
            <polygon id="Shape" points="105.446774 183.548917 105.446774 177.175061 102.136559 177.175061 102.136559 183.548917 102.136559 206.616207 105.446774 206.616207"></polygon>
            <polygon id="Shape" points="98.8010753 183.548917 98.8010753 177.175061 95.4655914 177.175061 95.4655914 183.548917 95.4655914 206.616207 98.8010753 206.616207"></polygon>
            <path d="M29.3623656,229.683496 L88.8198925,229.683496 L88.8198925,233.224527 L29.3623656,233.224527 L29.3623656,229.683496 Z M29.3623656,223.082002 L88.8198925,223.082002 L88.8198925,226.395396 L29.3623656,226.395396 L29.3623656,223.082002 Z M29.3623656,216.480508 L88.8198925,216.480508 L88.8198925,219.768608 L29.3623656,219.768608 L29.3623656,216.480508 Z M29.3623656,212.96477 L29.3623656,209.879014 L88.8198925,209.879014 L88.8198925,213.192408 L29.3623656,213.192408 L29.3623656,212.96477 Z M2.95645161,233.044145 L2.95645161,206.616207 L6.29193548,206.616207 L6.29193548,236.252161 L2.95645161,236.252161 L2.95645161,233.044145 Z M9.60215054,233.044145 L9.60215054,206.616207 L12.9376344,206.616207 L12.9376344,236.252161 L9.60215054,236.252161 L9.60215054,233.044145 Z M16.2478495,233.044145 L16.2478495,206.616207 L19.6086022,206.616207 L19.6086022,236.252161 L16.2478495,236.252161 L16.2478495,233.044145 Z M22.9188172,233.044145 L22.9188172,206.616207 L26.4817204,206.616207 L26.4817204,236.252161 L22.9188172,236.252161 L22.9188172,233.044145 Z M52.6602151,177.225647 L0,177.225647 L0,180.513748 L59.0784946,180.513748 L59.0784946,183.827141 L0,183.827141 L0,187.115242 L59.0784946,187.115242 L59.0784946,190.428635 L0,190.428635 L0,193.716736 L59.0784946,193.716736 L59.0784946,197.030129 L0,197.030129 L0,200.31823 L59.0784946,200.31823 L59.0784946,203.859261 L0,203.859261 L0,236.057352 L118.56129,236.057352 L118.56129,206.616207 L115.680645,206.616207 L115.680645,236.057352 L112.117742,236.057352 L112.117742,206.616207 L108.782258,206.616207 L108.782258,236.057352 L105.446774,236.057352 L105.446774,206.616207 L102.136559,206.616207 L102.136559,236.057352 L98.8010753,236.057352 L98.8010753,206.616207 L95.4655914,206.616207 L95.4655914,236.057352 L92.1301075,236.057352 L92.1301075,206.616207 L92.1301075,177.225647 L85.9139785,177.225647 L85.9139785,206.666793 L82.4016129,206.666793 L82.4016129,177.225647 L79.066129,177.225647 L79.066129,206.666793 L75.8064516,206.666793 L75.8064516,177.225647 L72.3951613,177.225647 L72.3951613,206.666793 L69.0596774,206.666793 L69.0596774,177.225647 L65.6989247,177.225647 L65.6989247,206.666793 L62.4139785,206.666793 L62.4139785,177.225647 L52.6602151,177.225647 Z" id="Shape"></path>
            <polygon id="Shape" points="115.680645 177.175061 115.680645 183.548917 115.680645 206.616207 118.536022 206.616207 118.536022 183.548917 118.536022 177.175061"></polygon>
            <path d="M29.3623656,111.918914 L88.8198925,111.918914 L88.8198925,115.459945 L29.3623656,115.459945 L29.3623656,111.918914 Z M29.3623656,105.31742 L88.8198925,105.31742 L88.8198925,108.630813 L29.3623656,108.630813 L29.3623656,105.31742 Z M29.3623656,98.7159259 L88.8198925,98.7159259 L88.8198925,102.004026 L29.3623656,102.004026 L29.3623656,98.7159259 Z M29.3623656,95.2001877 L29.3623656,92.139725 L88.8198925,92.139725 L88.8198925,95.4531185 L29.3623656,95.4531185 L29.3623656,95.2001877 Z M29.3623656,88.8516246 L29.3623656,150.97143 L29.3623656,177.225647 L32.6725806,177.225647 L32.6725806,147.733916 L32.6725806,118.29277 L36.0080645,118.29277 L36.0080645,147.733916 L39.3182796,147.733916 L39.3182796,118.29277 L42.6537634,118.29277 L42.6537634,147.733916 L45.9892473,147.733916 L45.9892473,118.29277 L49.3247312,118.29277 L49.3247312,147.733916 L52.6349462,147.733916 L52.6349462,118.29277 L56.1978495,118.29277 L56.1978495,177.225647 L62.4139785,177.225647 L62.4139785,147.733916 L65.6989247,147.733916 L65.6989247,177.225647 L69.0091398,177.225647 L69.0091398,147.733916 L72.3446237,147.733916 L72.3446237,177.225647 L75.8064516,177.225647 L75.8064516,147.733916 L79.1419355,147.733916 L79.1419355,177.225647 L82.3763441,177.225647 L82.3763441,147.733916 L85.9139785,147.733916 L85.9139785,177.225647 L118.510753,177.225647 L118.510753,174.342236 L88.8198925,174.342236 L88.8198925,170.801205 L118.56129,170.801205 L118.56129,167.513104 L88.8198925,167.513104 L88.8198925,164.199711 L118.56129,164.199711 L118.56129,160.91161 L88.8198925,160.91161 L88.8198925,157.62351 L118.56129,157.62351 L118.56129,154.33541 L88.8198925,154.33541 L88.8198925,151.022016 L118.56129,151.022016 L118.56129,144.901091 L59.0784946,144.901091 L59.0784946,141.360059 L118.56129,141.360059 L118.56129,138.071959 L59.0784946,138.071959 L59.0784946,134.758565 L118.56129,134.758565 L118.56129,131.470465 L59.0784946,131.470465 L59.0784946,128.182365 L118.56129,128.182365 L118.56129,124.894264 L59.0784946,124.894264 L59.0784946,121.580871 L118.56129,121.580871 L118.510753,118.29277 L115.680645,118.29277 L92.1301075,118.29277 L92.1301075,88.8516246 L29.3623656,88.8516246 Z" id="Shape"></path>
            <polygon id="Shape" points="49.3247312 170.801205 49.3247312 177.175061 52.6602151 177.175061 52.6602151 170.801205 52.6602151 147.733916 49.3247312 147.733916"></polygon>
            <polygon id="Shape" points="42.6790323 170.801205 42.6790323 177.175061 45.9892473 177.175061 45.9892473 170.801205 45.9892473 147.733916 42.6790323 147.733916"></polygon>
            <polygon id="Shape" points="36.0080645 170.801205 36.0080645 177.175061 39.3182796 177.175061 39.3182796 170.801205 39.3182796 147.733916 36.0080645 147.733916"></polygon>
            <polygon id="Shape" points="230.93172 183.548917 230.93172 177.175061 227.621505 177.175061 227.621505 183.548917 227.621505 206.616207 230.93172 206.616207"></polygon>
            <polygon id="Shape" points="224.286022 183.548917 224.286022 177.175061 220.975806 177.175061 220.975806 183.548917 220.975806 206.616207 224.286022 206.616207"></polygon>
            <polygon id="Shape" points="217.615054 183.548917 217.615054 177.175061 214.304839 177.175061 214.304839 183.548917 214.304839 206.616207 217.615054 206.616207"></polygon>
            <path d="M148.176344,229.683496 L207.633871,229.683496 L207.633871,233.224527 L148.176344,233.224527 L148.176344,229.683496 Z M148.176344,223.082002 L207.633871,223.082002 L207.633871,226.395396 L148.176344,226.395396 L148.176344,223.082002 Z M148.176344,216.480508 L207.633871,216.480508 L207.633871,219.768608 L148.176344,219.768608 L148.176344,216.480508 Z M148.176344,212.96477 L148.176344,209.879014 L207.633871,209.879014 L207.633871,213.192408 L148.176344,213.192408 L148.176344,212.96477 Z M121.77043,232.870424 L121.77043,206.616207 L125.105914,206.616207 L125.105914,236.057352 L121.77043,236.057352 L121.77043,232.870424 Z M128.416129,232.870424 L128.416129,206.616207 L131.751613,206.616207 L131.751613,236.057352 L128.416129,236.057352 L128.416129,232.870424 Z M135.087097,232.870424 L135.087097,206.616207 L138.422581,206.616207 L138.422581,236.057352 L135.087097,236.057352 L135.087097,232.870424 Z M141.758065,232.870424 L141.758065,206.616207 L145.320968,206.616207 L145.320968,236.057352 L141.758065,236.057352 L141.758065,232.870424 Z M171.474194,177.225647 L118.409677,177.225647 L118.409677,180.513748 L177.917742,180.513748 L177.917742,183.827141 L118.460215,183.827141 L118.460215,187.115242 L177.917742,187.115242 L177.917742,190.428635 L118.460215,190.428635 L118.460215,193.716736 L177.917742,193.716736 L177.917742,197.030129 L118.460215,197.030129 L118.460215,200.31823 L177.917742,200.31823 L177.917742,203.859261 L118.460215,203.859261 L118.460215,235.981473 L171.575269,236.057352 L175.138172,236.057352 L234.090323,235.981473 L230.93172,235.981473 L230.93172,206.616207 L227.621505,206.616207 L227.621505,236.057352 L224.286022,236.057352 L224.286022,206.616207 L220.975806,206.616207 L220.975806,236.057352 L217.615054,236.057352 L217.615054,206.616207 L214.304839,206.616207 L214.304839,236.057352 L210.969355,236.057352 L210.969355,206.616207 L210.969355,177.225647 L204.677419,177.225647 L204.677419,206.666793 L201.215591,206.666793 L201.215591,177.225647 L197.880108,177.225647 L197.880108,206.666793 L194.569892,206.666793 L194.569892,177.225647 L191.234409,177.225647 L191.234409,206.666793 L187.898925,206.666793 L187.898925,177.225647 L184.462366,177.225647 L184.462366,206.666793 L181.227957,206.666793 L181.227957,177.225647 L171.474194,177.225647 Z" id="Shape"></path>
            <polygon id="Shape" points="230.93172 65.7843353 230.93172 59.410479 227.621505 59.410479 227.621505 65.7843353 227.621505 88.8516246 230.93172 88.8516246"></polygon>
            <polygon id="Shape" points="224.286022 65.7843353 224.286022 59.410479 220.975806 59.410479 220.975806 65.7843353 220.975806 88.8516246 224.286022 88.8516246"></polygon>
            <polygon id="Shape" points="217.615054 65.7843353 217.615054 59.410479 214.304839 59.410479 214.304839 65.7843353 214.304839 88.8516246 217.615054 88.8516246"></polygon>
            <path d="M148.176344,111.918914 L207.633871,111.918914 L207.633871,115.459945 L148.176344,115.459945 L148.176344,111.918914 Z M148.176344,105.31742 L207.633871,105.31742 L207.633871,108.630813 L148.176344,108.630813 L148.176344,105.31742 Z M148.176344,98.7159259 L207.633871,98.7159259 L207.633871,102.004026 L148.176344,102.004026 L148.176344,98.7159259 Z M148.176344,95.2001877 L148.176344,92.139725 L207.633871,92.139725 L207.633871,95.4531185 L148.176344,95.4531185 L148.176344,95.2001877 Z M121.77043,141.360059 L121.77043,88.8516246 L125.105914,88.8516246 L125.105914,147.733916 L121.77043,147.733916 L121.77043,141.360059 Z M128.416129,141.360059 L128.416129,88.8516246 L131.751613,88.8516246 L131.751613,147.733916 L128.416129,147.733916 L128.416129,141.360059 Z M135.087097,141.360059 L135.087097,88.8516246 L138.422581,88.8516246 L138.422581,147.733916 L135.087097,147.733916 L135.087097,141.360059 Z M141.758065,141.360059 L141.758065,88.8516246 L145.320968,88.8516246 L145.320968,147.733916 L141.758065,147.733916 L141.758065,141.360059 Z M171.474194,59.410479 L118.409677,59.410479 L118.409677,62.6985795 L177.917742,62.6985795 L177.917742,65.9360937 L118.460215,65.9360937 L118.460215,69.2241942 L177.917742,69.2241942 L177.917742,72.5375877 L118.460215,72.5375877 L118.460215,75.8256882 L177.917742,75.8256882 L177.917742,79.1390817 L118.460215,79.1390817 L118.460215,82.4271821 L177.917742,82.4271821 L177.917742,85.9682134 L118.460215,85.9682134 L118.460215,150.97143 L148.176344,150.97143 L148.176344,154.284823 L118.460215,154.284823 L118.460215,157.572924 L148.176344,157.572924 L148.176344,160.886317 L118.460215,160.886317 L118.460215,164.174418 L148.176344,164.174418 L148.176344,167.487811 L118.460215,167.487811 L118.460215,170.775912 L148.176344,170.775912 L148.176344,174.316943 L118.460215,174.316943 L118.460215,177.225647 L151.612903,177.225647 L151.612903,147.733916 L151.612903,147.733916 L151.612903,118.29277 L154.948387,118.29277 L154.948387,147.733916 L158.258602,147.733916 L158.258602,118.29277 L161.594086,118.29277 L161.594086,147.733916 L164.92957,147.733916 L164.92957,118.29277 L168.265054,118.29277 L168.265054,147.733916 L171.575269,147.733916 L171.575269,118.29277 L175.138172,118.29277 L175.138172,177.225647 L181.329032,177.225647 L181.329032,147.733916 L184.462366,147.733916 L184.462366,177.225647 L187.772581,177.225647 L187.772581,147.733916 L191.108065,147.733916 L191.108065,177.225647 L194.569892,177.225647 L194.569892,147.733916 L197.905376,147.733916 L197.905376,177.225647 L201.24086,177.225647 L201.24086,147.733916 L204.677419,147.733916 L204.677419,177.225647 L233.989247,177.225647 L233.989247,174.342236 L207.633871,174.342236 L207.633871,170.801205 L234.090323,170.801205 L234.090323,167.513104 L207.633871,167.513104 L207.633871,164.199711 L234.090323,164.199711 L234.090323,160.91161 L207.633871,160.91161 L207.633871,157.62351 L234.090323,157.62351 L234.090323,154.33541 L207.633871,154.33541 L207.633871,151.022016 L234.090323,151.022016 L234.090323,144.901091 L177.917742,144.901091 L177.917742,141.360059 L234.090323,141.360059 L234.090323,138.071959 L177.917742,138.071959 L177.917742,134.758565 L234.090323,134.758565 L234.090323,131.470465 L177.917742,131.470465 L177.917742,128.182365 L234.090323,128.182365 L234.090323,124.894264 L177.917742,124.894264 L177.917742,121.580871 L234.090323,121.580871 L234.090323,118.29277 L230.93172,118.29277 L230.93172,88.8516246 L227.621505,88.8516246 L227.621505,118.29277 L224.286022,118.29277 L224.286022,88.8516246 L220.975806,88.8516246 L220.975806,118.29277 L217.615054,118.29277 L217.615054,88.8516246 L214.304839,88.8516246 L214.304839,118.29277 L210.969355,118.29277 L210.969355,88.8516246 L210.969355,88.8516246 L210.969355,59.410479 L204.677419,59.410479 L204.677419,88.8516246 L201.215591,88.8516246 L201.215591,59.410479 L197.880108,59.410479 L197.880108,88.8516246 L194.569892,88.8516246 L194.569892,59.410479 L191.234409,59.410479 L191.234409,88.8516246 L187.898925,88.8516246 L187.898925,59.410479 L184.462366,59.410479 L184.462366,88.8516246 L181.227957,88.8516246 L181.227957,59.410479 L171.474194,59.410479 L171.474194,59.410479 Z" id="Shape"></path>
            <polygon id="Shape" points="168.163978 170.801205 168.163978 177.175061 171.474194 177.175061 171.474194 170.801205 171.474194 147.733916 168.163978 147.733916"></polygon>
            <polygon id="Shape" points="161.493011 170.801205 161.493011 177.175061 164.828495 177.175061 164.828495 170.801205 164.828495 147.733916 161.493011 147.733916"></polygon>
            <polygon id="Shape" points="154.847312 170.801205 154.847312 177.175061 158.157527 177.175061 158.157527 170.801205 158.157527 147.733916 154.847312 147.733916"></polygon>
        </g>
    </g>
</svg>