<?xml version="1.0" encoding="UTF-8"?>
<svg width="308px" height="294px" viewBox="0 0 308 294" version="1.1" xmlns="http://www.w3.org/2000/svg" xmlns:xlink="http://www.w3.org/1999/xlink">
    <!-- Generator: Sketch 43.1 (39012) - http://www.bohemiancoding.com/sketch -->
    <title>tech-cards</title>
    <desc>Created with Sketch.</desc>
    <defs></defs>
    <g id="Page-1" stroke="none" stroke-width="1" fill="none" fill-rule="evenodd">
        <g id="tech-cards" fill-rule="nonzero" fill="#FC9705">
            <path d="M264.831319,4.09002686 C264.831319,13.6293652 257.085655,21.94025 247.530894,21.94025 L247.530894,28.479125 C241.141163,28.167934 235.09879,31.394223 231.810538,36.8729159 C228.522286,42.3516089 228.522286,49.1927661 231.810538,54.6714591 C235.09879,60.150152 241.141163,63.376441 247.530894,63.06525 L247.530894,69.604125 C257.085655,69.604125 264.831319,77.3372867 264.831319,86.876625 C264.831319,96.4159633 257.085655,104.149125 247.530894,104.149125 L247.530894,110.688 C237.953383,110.688 230.189277,118.439574 230.189277,128.001625 C230.189277,137.563676 237.953383,145.31525 247.530894,145.31525 L247.530894,151.854125 C257.085655,151.854125 264.831319,159.587287 264.831319,169.126625 C264.831319,178.665963 257.085655,186.399125 247.530894,186.399125 L247.530894,192.938 C241.141163,192.626809 235.09879,195.853098 231.810538,201.331791 C228.522286,206.810484 228.522286,213.651641 231.810538,219.130334 C235.09879,224.609027 241.141163,227.835316 247.530894,227.524125 L247.530894,234.063 C257.085655,234.063 264.831319,241.796162 264.831319,251.3355 C264.831319,260.874838 257.085655,268.608 247.530894,268.608 L247.530894,275.146875 C241.141163,274.835684 235.09879,278.061973 231.810538,283.540666 C230.026642,286.512889 229.21052,289.660876 229.362172,293 C243.42261,293.025853 297.490339,293.031397 307.156071,293 C307.158624,289.915262 306.336563,287.02451 304.689887,284.280916 C301.401635,278.802223 295.359263,275.575934 288.969532,275.887125 L288.969532,269.34825 C279.414771,269.34825 271.669106,261.615088 271.669106,252.07575 C271.669106,242.536412 279.414771,234.80325 288.969532,234.80325 L288.969532,228.264375 C295.359263,228.575566 301.401635,225.349277 304.689887,219.870584 C307.97814,214.391891 307.97814,207.550734 304.689887,202.072041 C301.401635,196.593348 295.359263,193.367059 288.969532,193.67825 L288.969532,187.139375 C279.414771,187.139375 271.669106,179.406213 271.669106,169.866875 C271.669106,160.327537 279.414771,152.594375 288.969532,152.594375 L288.969532,145.64425 C298.547043,145.64425 306.311149,137.892676 306.311149,128.330625 C306.311149,118.768574 298.547043,111.017 288.969532,111.017 L288.969532,104.478125 C279.414771,104.478125 271.669106,96.7449633 271.669106,87.205625 C271.669106,77.6662867 279.414771,69.933125 288.969532,69.933125 L288.969532,63.312 C295.359263,63.623191 301.401635,60.396902 304.689887,54.9182091 C307.97814,49.4395161 307.97814,42.5983589 304.689887,37.1196659 C301.401635,31.640973 295.359263,28.414684 288.969532,28.725875 L288.969532,22.187 C279.414771,22.1869996 271.669107,13.6293649 271.669107,4.09002686 C271.669107,-0.698831916 264.831319,-0.660452572 264.831319,4.09002686 Z M285.015149,279.423875 L289.134298,279.423875 C294.0868,279.149286 298.785457,281.631083 301.344531,285.873231 C302.672561,288.074692 303.311411,290.522604 303.26108,293 C288.866033,292.987046 249.306209,293.001158 233.072114,293 C233.056163,290.583326 233.695835,288.020425 234.991129,285.873231 C237.550202,281.631083 242.24886,279.149286 247.201362,279.423875 L251.320511,279.423875 L251.320511,272.47375 C259.701692,270.714183 266.200988,264.095602 267.797106,255.69475 L268.538553,255.69475 C270.134672,264.095602 276.633967,270.714183 285.015149,272.47375 L285.015149,279.423875 Z M285.015149,197.29725 L289.134298,197.29725 C294.0868,197.022661 298.785457,199.504458 301.344531,203.746606 C303.903605,207.988755 303.903605,213.29587 301.344531,217.538019 C298.785457,221.780167 294.0868,224.261964 289.134298,223.987375 L285.015149,223.987375 L285.015149,230.9375 C276.633967,232.697067 270.134672,239.315648 268.538553,247.7165 L267.797106,247.7165 C266.200988,239.315648 259.701692,232.697067 251.320511,230.9375 L251.320511,223.94625 L247.201362,223.94625 C242.24886,224.220839 237.550202,221.739042 234.991129,217.496894 C232.432055,213.254745 232.432055,207.94763 234.991129,203.705481 C237.550202,199.463333 242.24886,196.981536 247.201362,197.256125 L251.320511,197.256125 L251.320511,190.182625 C259.696137,188.412944 266.190749,181.799132 267.797106,173.403625 L268.538553,173.403625 C270.14491,181.799132 276.639523,188.412944 285.015149,190.182625 L285.015149,197.29725 Z M285.015149,114.965 L289.134298,114.965 C294.0868,114.690411 298.785457,117.172208 301.344531,121.414356 C303.903605,125.656505 303.903605,130.96362 301.344531,135.205769 C298.785457,139.447917 294.0868,141.929714 289.134298,141.655125 L285.015149,141.655125 L285.015149,148.6875 C276.639523,150.457181 270.14491,157.070993 268.538553,165.4665 L267.797106,165.4665 C266.190749,157.070993 259.696137,150.457181 251.320511,148.6875 L251.320511,141.655125 L247.201362,141.655125 C242.24886,141.929714 237.550202,139.447917 234.991129,135.205769 C232.432055,130.96362 232.432055,125.656505 234.991129,121.414356 C237.550202,117.172208 242.24886,114.690411 247.201362,114.965 L251.320511,114.965 L251.320511,107.8915 C259.701692,106.131933 266.200988,99.5133523 267.797106,91.1125 L268.538553,91.1125 C270.134672,99.5133523 276.633967,106.131933 285.015149,107.8915 L285.015149,114.965 Z M285.015149,32.715 L289.134298,32.715 C294.0868,32.4404111 298.785457,34.9222075 301.344531,39.1643561 C303.903605,43.4065046 303.903605,48.7136204 301.344531,52.9557689 C298.785457,57.1979175 294.0868,59.6797139 289.134298,59.405125 L285.015149,59.405125 L285.015149,66.4375 C276.633967,68.1970671 270.134672,74.8156477 268.538553,83.2165 L267.797106,83.2165 C266.200988,74.8156477 259.701692,68.1970671 251.320511,66.4375 L251.320511,59.405125 L247.201362,59.405125 C242.24886,59.6797139 237.550202,57.1979175 234.991129,52.9557689 C232.432055,48.7136204 232.432055,43.4065046 234.991129,39.1643561 C237.550202,34.9222075 242.24886,32.4404111 247.201362,32.715 L251.320511,32.715 L251.320511,25.600375 C259.701692,23.8408079 266.200988,17.2222273 267.797106,8.821375 L268.538553,8.821375 C270.134672,17.2222273 276.633967,23.8408079 285.015149,25.600375 L285.015149,32.715 Z" id="Shape"></path>
            <path d="M112.258043,169.0855 C112.258043,178.624838 104.512378,186.358 94.957617,186.358 L94.957617,192.896875 C85.3801064,192.896875 77.616,200.648449 77.616,210.2105 C77.616,219.772551 85.3801064,227.524125 94.957617,227.524125 L94.957617,234.063 C104.512378,234.063 112.258043,241.796162 112.258043,251.3355 C112.258043,260.874838 104.512378,268.608 94.957617,268.608 L94.957617,275.146875 C88.567886,274.835684 82.5255137,278.061973 79.2372615,283.540666 C77.530309,286.38469 76.7094463,289.80286 76.7746734,293 C90.6055567,292.971804 140.742116,293.050859 154.541053,293 C154.516742,289.96635 153.694864,286.979139 152.075419,284.280916 C148.787167,278.802223 142.744795,275.575934 136.355064,275.887125 L136.355064,269.34825 C126.800303,269.34825 119.054638,261.615088 119.054638,252.07575 C119.054638,242.536412 126.800303,234.80325 136.355064,234.80325 L136.355064,228.264375 C145.932574,228.264375 153.696681,220.512801 153.696681,210.95075 C153.696681,201.388699 145.932574,193.637125 136.355064,193.637125 L136.355064,187.09825 C126.800303,187.09825 119.054638,178.629365 119.054638,169.090027 C119.054638,164.411965 112.258043,164.224223 112.258043,169.0855 Z M132.235915,279.423875 L136.355064,279.423875 C141.307566,279.149286 146.006223,281.631083 148.565297,285.873231 C149.873893,288.042476 150.513331,290.558608 150.483612,293 C139.934669,292.999563 98.7337382,293.01284 80.2933128,293 C80.2679858,290.566432 80.907513,288.03549 82.2118945,285.873231 C84.7709684,281.631083 89.4696255,279.149286 94.4221277,279.423875 L98.5412766,279.423875 L98.5412766,272.47375 C106.922458,270.714183 113.421754,264.095602 115.017872,255.69475 L115.759319,255.69475 C117.355438,264.095602 123.854733,270.714183 132.235915,272.47375 L132.235915,279.423875 Z M132.235915,197.29725 L136.355064,197.29725 C141.307566,197.022661 146.006223,199.504458 148.565297,203.746606 C151.124371,207.988755 151.124371,213.29587 148.565297,217.538019 C146.006223,221.780167 141.307566,224.261964 136.355064,223.987375 L132.235915,223.987375 L132.235915,230.9375 C123.854733,232.697067 117.355438,239.315648 115.759319,247.7165 L115.017872,247.7165 C113.421754,239.315648 106.922458,232.697067 98.5412766,230.9375 L98.5412766,223.94625 L94.4221277,223.94625 C89.4696255,224.220839 84.7709684,221.739042 82.2118945,217.496894 C79.6528207,213.254745 79.6528207,207.94763 82.2118945,203.705481 C84.7709684,199.463333 89.4696255,196.981536 94.4221277,197.256125 L98.5412766,197.256125 L98.5412766,190.182625 C106.922458,188.423058 113.421754,181.804477 115.017872,173.403625 L115.759319,173.403625 C117.355438,181.804477 123.854733,188.423058 132.235915,190.182625 L132.235915,197.29725 Z" id="Shape"></path>
            <path d="M188.585872,169.0855 C188.585872,178.624838 180.840208,186.358 171.285447,186.358 L171.285447,192.896875 C161.707936,192.896875 153.94383,200.648449 153.94383,210.2105 C153.94383,219.772551 161.707936,227.524125 171.285447,227.524125 L171.285447,234.063 C180.840208,234.063 188.585872,241.796162 188.585872,251.3355 C188.585872,260.874838 180.840208,268.608 171.285447,268.608 L171.285447,275.146875 C164.895716,274.835684 158.853343,278.061973 155.565091,283.540666 C153.816592,286.453912 152.997842,289.725974 153.108841,293 C181.828771,293.036437 214.918349,293.020309 230.910526,293 C230.921268,289.900059 230.099239,287.038045 228.444441,284.280916 C225.156188,278.802223 219.113816,275.575934 212.724085,275.887125 L212.724085,269.34825 C203.169324,269.34825 195.42366,261.615088 195.42366,252.07575 C195.42366,242.536412 203.169324,234.80325 212.724085,234.80325 L212.724085,228.264375 C222.301596,228.264375 230.065702,220.512801 230.065702,210.95075 C230.065702,201.388699 222.301596,193.637125 212.724085,193.637125 L212.724085,187.09825 C203.169324,187.09825 195.42366,178.629365 195.42366,169.090027 C195.42366,164.135528 188.585872,164.500661 188.585872,169.0855 Z M208.604936,279.423875 L212.724085,279.423875 C217.676587,279.149286 222.375244,281.631083 224.934318,285.873231 C226.232009,288.024399 226.871649,290.578867 226.853237,293 C218.574809,293.034925 170.267201,293.022325 156.663158,293 C156.625787,290.545105 157.26504,288.054544 158.580916,285.873231 C161.13999,281.631083 165.838647,279.149286 170.791149,279.423875 L174.910298,279.423875 L174.910298,272.47375 C183.285924,270.704069 189.780536,264.090257 191.386894,255.69475 L192.12834,255.69475 C193.724459,264.095602 200.223754,270.714183 208.604936,272.47375 L208.604936,279.423875 Z M208.604936,197.29725 L212.724085,197.29725 C217.676587,197.022661 222.375244,199.504458 224.934318,203.746606 C227.493392,207.988755 227.493392,213.29587 224.934318,217.538019 C222.375244,221.780167 217.676587,224.261964 212.724085,223.987375 L208.604936,223.987375 L208.604936,230.9375 C200.223754,232.697067 193.724459,239.315648 192.12834,247.7165 L191.386894,247.7165 C189.780536,239.320993 183.285924,232.707181 174.910298,230.9375 L174.910298,223.94625 L170.791149,223.94625 C165.838647,224.220839 161.13999,221.739042 158.580916,217.496894 C156.021842,213.254745 156.021842,207.94763 158.580916,203.705481 C161.13999,199.463333 165.838647,196.981536 170.791149,197.256125 L174.910298,197.256125 L174.910298,190.182625 C183.285924,188.412944 189.780536,181.799132 191.386894,173.403625 L192.12834,173.403625 C193.724459,181.804477 200.223754,188.423058 208.604936,190.182625 L208.604936,197.29725 Z" id="Shape"></path>
            <path d="M35.9302128,251.3355 C35.9302128,260.874838 28.1845484,268.608 18.6297872,268.608 L18.6297872,275.146875 C12.2400562,274.835684 6.19768391,278.061973 2.90943167,283.540666 C1.15184228,286.469058 0.333694346,289.709219 0.454987866,293 C9.29055055,293.015857 56.9824398,293.052065 78.2549449,293 C78.2602313,289.91017 77.4381767,287.029042 75.7887811,284.280916 C72.5005289,278.802223 66.4581565,275.575934 60.0684255,275.887125 L60.0684255,269.34825 C50.5136643,269.34825 42.768,261.615088 42.768,252.07575 C42.768,247.294059 35.9302128,246.577852 35.9302128,251.3355 Z M55.9492766,272.350375 L55.9492766,279.423875 L60.0684255,279.423875 C65.0209276,279.149286 69.7195848,281.631083 72.2786586,285.873231 C73.6205456,288.097662 74.2587949,290.497016 74.1934067,293 C53.4201371,293.038789 34.6159099,293.006202 4.01250536,293 C3.93336162,290.474135 4.57094525,288.118258 5.92525624,285.873231 C8.4843301,281.631083 13.1829872,279.149286 18.1354894,279.423875 L22.2546383,279.423875 L22.2546383,272.47375 C30.6302646,270.704069 37.1248768,264.090257 38.731234,255.69475 L39.4726809,255.69475 C41.0790381,264.090257 47.5736503,270.704069 55.9492766,272.47375" id="Shape"></path>
        </g>
    </g>
</svg>