<?xml version="1.0" encoding="UTF-8"?>
<svg width="273px" height="273px" viewBox="0 0 273 273" version="1.1" xmlns="http://www.w3.org/2000/svg" xmlns:xlink="http://www.w3.org/1999/xlink">
    <!-- Generator: Sketch 43.1 (39012) - http://www.bohemiancoding.com/sketch -->
    <title>tech-emboss</title>
    <desc>Created with Sketch.</desc>
    <defs></defs>
    <g id="Page-1" stroke="none" stroke-width="1" fill="none" fill-rule="evenodd">
        <g id="tech-emboss" transform="translate(1.000000, 1.000000)" stroke="#790000" stroke-width="2">
            <g id="Group-5" transform="translate(4.000000, 4.000000)">
                <path d="M60,66.0000383 C60,62.6863086 62.6946371,60 66.0000383,60 L106.999374,60 C114.179421,60 120,65.8212317 120,73.0006262 L120,106.999374 C120,114.179421 114.178768,120 106.999374,120 L73.0006262,120 C65.8205786,120 60,114.178768 60,106.999374 L60,66.0000383 Z" id="Rectangle"></path>
                <path d="M60,186.000038 C60,182.686309 62.6946371,180 66.0000383,180 L106.999374,180 C114.179421,180 120,185.821232 120,193.000626 L120,226.999374 C120,234.179421 114.178768,240 106.999374,240 L73.0006262,240 C65.8205786,240 60,234.178768 60,226.999374 L60,186.000038 Z" id="Rectangle"></path>
                <path d="M180,186.000038 C180,182.686309 182.694637,180 186.000038,180 L226.999374,180 C234.179421,180 240,185.821232 240,193.000626 L240,226.999374 C240,234.179421 234.178768,240 226.999374,240 L193.000626,240 C185.820579,240 180,234.178768 180,226.999374 L180,186.000038 Z" id="Rectangle"></path>
                <path d="M180,66.0000383 C180,62.6863086 182.694637,60 186.000038,60 L226.999374,60 C234.179421,60 240,65.8212317 240,73.0006262 L240,106.999374 C240,114.179421 234.178768,120 226.999374,120 L193.000626,120 C185.820579,120 180,114.178768 180,106.999374 L180,66.0000383 Z" id="Rectangle"></path>
                <path d="M120,126.000038 C120,122.686309 122.694637,120 126.000038,120 L166.999374,120 C174.179421,120 180,125.821232 180,133.000626 L180,166.999374 C180,174.179421 174.178768,180 166.999374,180 L133.000626,180 C125.820579,180 120,174.178768 120,166.999374 L120,126.000038 Z" id="Rectangle"></path>
                <path d="M268,180 L252.995884,180 C245.818456,180 240,174.178768 240,166.999374 L240,126.000038 L240,126.000038 C240,122.686309 242.684758,120 246.006702,120 L268,120" id="Rectangle"></path>
                <path d="M268,60 L252.995884,60 C245.818456,60 240,54.1787683 240,46.9993738 L240,6.0000383 L240,6.0000383 C240,2.68630865 242.684758,0 246.006702,0 L268,0" id="Rectangle"></path>
                <path d="M120,6.0000383 C120,2.68630865 122.694637,0 126.000038,0 L166.999374,0 C174.179421,0 180,5.82123167 180,13.0006262 L180,46.9993738 C180,54.1794214 174.178768,60 166.999374,60 L133.000626,60 C125.820579,60 120,54.1787683 120,46.9993738 L120,6.0000383 Z" id="Rectangle"></path>
                <path d="M120,268 L120,246.006702 L120,246.006702 C120,242.689292 122.694637,240 126.000038,240 L166.999374,240 C174.179421,240 180,245.817713 180,252.993862 L180,267.995642" id="Rectangle"></path>
                <path d="M240,268 L240,246.006702 L240,246.006702 C240,242.689292 242.684758,240 246.006702,240 L268,240" id="Rectangle"></path>
                <path d="M0,126.000038 C0,122.686309 2.69463714,120 6.0000383,120 L46.9993738,120 C54.1794214,120 60,125.821232 60,133.000626 L60,166.999374 C60,174.179421 54.1787683,180 46.9993738,180 L13.0006262,180 C5.82057862,180 0,174.178768 0,166.999374 L0,126.000038 Z" id="Rectangle"></path>
            </g>
            <g id="Group-5">
                <rect id="Rectangle" x="60" y="60" width="60" height="60" rx="10"></rect>
                <rect id="Rectangle" x="60" y="180" width="60" height="60" rx="10"></rect>
                <rect id="Rectangle" x="180" y="180" width="60" height="60" rx="10"></rect>
                <rect id="Rectangle" x="180" y="60" width="60" height="60" rx="10"></rect>
                <rect id="Rectangle" x="120" y="120" width="60" height="60" rx="10"></rect>
                <path d="M272,180 L249.993372,180 C244.474185,180 240,175.514786 240,169.991129 L240,130.008871 L240,130.008871 C240,124.481124 244.483157,120 249.993372,120 L272,120" id="Rectangle"></path>
                <path d="M272,60 L249.993372,60 C244.474185,60 240,55.514786 240,49.9911289 L240,10.0088711 L240,10.0088711 C240,4.48112423 244.483157,0 249.993372,0 L272,0" id="Rectangle"></path>
                <rect id="Rectangle" x="120" y="0" width="60" height="60" rx="10"></rect>
                <path d="M120,272 L120,249.993372 L120,249.993372 C120,244.474185 124.485214,240 130.008871,240 L169.991129,240 C175.518876,240 180,244.483157 180,249.993372 L180,272" id="Rectangle"></path>
                <path d="M240,272 L240,249.993372 L240,249.993372 C240,244.474185 244.483157,240 249.993372,240 L272,240" id="Rectangle"></path>
                <rect id="Rectangle" x="0" y="120" width="60" height="60" rx="10"></rect>
            </g>
        </g>
    </g>
</svg>